<svg width="304" height="385" viewBox="0 0 304 385" fill="none" xmlns="http://www.w3.org/2000/svg">
<path d="M44.3274 117.371C30.0232 112.942 15.8275 108.403 1.82251 103.083C0.0136596 102.396 -0.78938 105.319 1.02147 105.986C14.9863 111.133 29.3868 115.632 43.956 118.716C44.8313 118.901 45.1906 117.638 44.3274 117.371Z" fill="white"/>
<path d="M60.3601 95.0351C55.2408 87.3099 37.9252 62.9919 34.43 58.0853C33.4041 56.6438 32.5128 54.7828 30.8906 53.9737C30.0133 53.5361 29.2103 54.2528 29.3468 55.1602C29.6298 57.0434 31.3483 58.6675 32.4606 60.1672C33.7434 61.8977 54.0242 89.2914 59.2519 95.8904C59.7478 96.5167 60.7998 95.6997 60.3601 95.0351Z" fill="white"/>
<path d="M89.0423 80.7874C88.4339 75.4191 87.9742 72.6928 84.8765 51.9182C84.6797 50.5932 84.6757 49.0714 83.9229 47.9411C83.4491 47.2304 82.3208 47.3127 82.0739 48.182C81.7486 49.3304 81.7346 48.4551 84.3666 64.295C85.2941 69.8741 86.1593 75.4794 87.2856 81.0223C87.4823 81.994 89.1567 81.7953 89.0423 80.7874Z" fill="white"/>
<path d="M174.125 200.595L185.775 203.494C183.426 185.544 181.632 174.063 180.437 167.125C177.173 174.639 174.515 182.417 172.517 190.361C173.027 193.488 173.565 196.901 174.125 200.595Z" fill="white"/>
<path d="M149.766 356.688C145.968 353.687 140.465 354.333 137.463 358.131C132.667 364.202 137.592 373.18 145.357 372.259C153.059 371.355 155.871 361.51 149.766 356.688Z" fill="white"/>
<path d="M202.87 364.076C199.761 331.549 193.184 260.628 186.039 205.508L176.38 216.212C181.465 253.283 186.165 303.702 188.149 336.528C188.448 339.075 186.619 341.39 184.071 341.687C183.214 341.792 175.264 345.63 142.727 349.447C109.686 353.323 102.167 351.318 100.615 351.478C98.0618 351.781 95.7531 349.947 95.4459 347.347C95.3897 347.021 89.7624 314.243 82.9727 264.808C76.189 215.419 75.4924 177.625 75.4803 177.149C75.1812 174.601 77.0101 172.286 79.6782 171.965C97.7065 167.673 132.39 162.461 151.817 161.941C152.522 158.98 153.277 156.031 154.086 153.096C130.246 155.119 73.794 162.046 67.8675 164.083C63.497 164.595 55.3 168.861 54.3865 174.332C52.9812 182.732 73.5711 357.606 77.9296 376.752C78.6885 383.224 85.9881 385.258 92.4706 384.606C108.545 382.986 181.642 376.913 197.028 371.426C200.674 370.998 203.216 367.69 202.87 364.076ZM90.0635 382.857C83.7818 382.462 80.3688 380.329 79.9091 376.435C74.2276 348.274 56.6993 193.898 56.2817 177.018C56.1612 172.156 59.5179 169.405 63.774 168.221C62.1519 172.168 72.4188 259.906 72.9106 264.146C80.664 330.792 87.4416 377.135 87.5058 377.567C87.7769 379.87 89.1962 381.761 91.1255 382.737L90.0635 382.857ZM145.592 374.255C139.719 374.947 134.339 370.733 133.644 364.817C132.95 358.906 137.174 353.562 143.084 352.87C148.991 352.177 154.337 356.397 155.031 362.307C155.724 368.204 151.488 373.562 145.592 374.255Z" fill="white"/>
<path d="M187.715 202.943L171.65 198.944C176.699 172.363 189.072 147.433 207.024 127.283L205.066 126.466C186.912 147.032 174.462 172.448 169.504 199.508C169.407 200.028 169.735 200.534 170.249 200.662L185.607 204.485L149.811 244.157L131.301 195.24C135.985 196.967 140.862 198.119 145.83 198.669C146.4 198.725 146.888 198.32 146.941 197.764C149.681 168.117 157.834 138.461 170.616 111.475L168.785 110.652C156.061 137.528 147.89 167.031 145.037 196.553C139.854 195.888 134.783 194.547 129.944 192.56C129.133 192.227 128.314 193.024 128.623 193.843L148.514 246.408C148.782 247.11 149.697 247.283 150.199 246.725L188.217 204.589C188.724 204.027 188.447 203.124 187.715 202.943Z" fill="white"/>
<path d="M297.024 50.5515C282.576 43.2779 194.358 3.83666 178.646 0.897532C172.798 -1.55575 166.081 1.19265 163.63 7.04078L132.189 82.0005C129.741 87.8346 132.498 94.5721 138.179 96.939C148.324 103.399 228.83 139.331 256.712 146.669C262.558 149.08 269.237 146.282 271.636 140.558C277.942 127.944 300.068 80.2398 303.132 65.4659C305.406 58.5658 303.158 53.1192 297.024 50.5515ZM269.811 139.723C267.792 144.537 262.237 146.81 257.421 144.79C257.374 144.772 257.328 144.756 257.28 144.744C233.928 138.814 158.179 105.929 139.109 95.1683C134.297 93.1507 132.022 87.5916 134.04 82.7774L136.908 75.9355C182.463 92.7472 226.271 113.749 272.732 133.236C272.997 133.347 273.307 132.56 269.811 139.723ZM301.196 64.9359C298.384 77.65 284.268 108.84 278.956 120.406C232.502 100.904 187.839 80.0451 142.237 63.2295L165.477 7.81973C167.426 3.17013 172.8 0.642567 178.032 2.80475C196.309 6.88218 279.081 43.9465 296.181 52.3744C301.365 54.5486 303.156 58.9754 301.194 64.9359H301.196Z" fill="white"/>
<path d="M290.885 58.4636C287.833 57.3895 284.93 55.8638 279.961 54.1151C279.437 53.9304 278.865 54.2075 278.683 54.7295C277.412 58.3512 275.31 63.1072 273.742 66.4297C273.427 67.0983 273.923 67.8612 274.651 67.8612C277.39 69.2544 280.861 70.7601 284.964 72.3381C285.482 72.5389 286.273 72.2156 286.506 71.7117C288.337 67.7447 290.341 63.597 291.553 59.8448C291.708 59.369 291.465 58.6664 290.885 58.4636Z" fill="white"/>
<path d="M205.01 27.9117C203.905 27.9117 185.154 21.0838 173.085 16.0648C172.573 15.852 172.33 15.2638 172.543 14.7518C172.755 14.2399 173.346 13.999 173.856 14.2098C184.151 18.49 194.739 22.441 205.325 25.9522C206.403 26.3096 206.144 27.9117 205.01 27.9117Z" fill="white"/>
<path d="M190.326 33.8798C189.442 33.8798 178.346 29.7923 168.907 25.1106C168.409 24.8637 168.206 24.2614 168.453 23.7655C168.698 23.2676 169.302 23.0669 169.798 23.3118C176.518 26.6444 183.532 29.5414 190.645 31.9224C191.719 32.2817 191.46 33.8798 190.326 33.8798Z" fill="white"/>
<path d="M91.979 249.724C92.0512 246.859 92.2279 244.775 92.3263 243.785C92.3805 243.233 91.979 242.741 91.4269 242.685C90.8848 242.631 90.3829 243.034 90.3287 243.584C90.2263 244.6 90.0437 246.742 89.9714 249.674C89.9372 251.013 91.9469 251.033 91.979 249.724Z" fill="white"/>
<path d="M95.6988 241.557C95.9297 241.557 95.8896 241.507 101.804 240.61C103.117 240.411 102.816 238.421 101.503 238.624C97.8347 239.18 95.7528 239.526 95.536 239.562C94.3275 239.762 94.474 241.555 95.7007 241.555L95.6988 241.557Z" fill="white"/>
<path d="M96.1968 285.298C95.8294 283.513 95.4379 281.54 95.0324 279.401C94.7854 278.097 92.814 278.47 93.0609 279.777C93.4684 281.927 93.8619 283.907 94.2313 285.701C94.3417 286.237 94.8657 286.595 95.4158 286.482C95.9599 286.37 96.3092 285.84 96.1968 285.298Z" fill="white"/>
<path d="M91.4208 262.734C91.9729 262.688 92.3824 262.202 92.3383 261.65C92.1737 259.667 92.0592 257.661 91.999 255.69C91.9829 255.136 91.467 254.71 90.9651 254.718C90.411 254.736 89.9753 255.198 89.9914 255.752C90.0536 257.758 90.1701 259.799 90.3387 261.817C90.3809 262.341 90.8286 262.775 91.4208 262.734Z" fill="white"/>
<path d="M107.615 239.743C107.818 239.743 107.763 239.711 113.718 238.894C114.268 238.818 114.651 238.312 114.575 237.764C114.499 237.216 113.995 236.826 113.445 236.907C111.275 237.204 109.279 237.487 107.472 237.748C106.246 237.923 106.376 239.743 107.615 239.743Z" fill="white"/>
<path d="M119.548 238.102C119.749 238.102 119.834 238.058 125.65 237.323C126.2 237.255 126.589 236.753 126.521 236.201C126.453 235.653 125.955 235.259 125.399 235.33C123.311 235.593 121.315 235.852 119.418 236.101C118.183 236.261 118.304 238.102 119.548 238.102Z" fill="white"/>
<path d="M131.501 236.595L137.596 235.891C138.147 235.828 138.544 235.331 138.482 234.78C138.42 234.23 137.93 233.829 137.372 233.895C135.497 234.106 133.503 234.339 131.383 234.596C130.138 234.744 130.249 236.595 131.501 236.595Z" fill="white"/>
<path d="M93.9566 273.494C93.541 271.091 93.2981 269.752 92.997 267.584C92.9207 267.036 92.4188 266.652 91.8667 266.727C91.3166 266.803 90.9331 267.311 91.0094 267.859C91.3146 270.075 91.5716 271.497 91.9771 273.84C92.0735 274.396 92.6095 274.753 93.1395 274.655C93.6856 274.56 94.0509 274.038 93.9566 273.494Z" fill="white"/>
<path d="M171.007 252.789C171.555 252.705 171.931 252.193 171.846 251.645C171.513 249.467 171.162 247.473 170.81 245.67C170.704 245.126 170.176 244.771 169.634 244.877C169.09 244.984 168.734 245.51 168.841 246.054C169.186 247.831 169.535 249.798 169.863 251.948C169.947 252.498 170.463 252.872 171.007 252.789Z" fill="white"/>
<path d="M172.332 264.761C172.884 264.715 173.294 264.227 173.246 263.675C173.137 262.412 172.732 258.349 172.651 257.652C172.499 256.327 170.505 256.566 170.658 257.881C170.736 258.568 171.138 262.595 171.246 263.848C171.294 264.414 171.802 264.813 172.332 264.761Z" fill="white"/>
<path d="M174.169 281.79C174.153 280.443 172.145 280.5 172.161 281.817C172.185 283.704 172.189 286.055 172.137 287.797C172.131 288.016 172.261 288.817 173.141 288.831C173.681 288.839 174.126 288.401 174.145 287.857C174.197 286.073 174.195 283.704 174.169 281.79Z" fill="white"/>
<path d="M97.4529 291.173C97.1658 289.876 95.2024 290.316 95.4935 291.611C96.2483 294.987 96.7482 296.911 96.7482 296.911C96.8827 298.041 97.8805 298.561 98.5892 297.973C99.0148 297.615 99.075 296.965 98.7177 296.539C98.7177 296.539 98.2238 294.616 97.4529 291.173Z" fill="white"/>
<path d="M173.042 276.787C173.596 276.769 174.028 276.295 174.004 275.741C173.93 273.896 173.829 271.878 173.693 269.704C173.657 269.15 173.181 268.728 172.629 268.767C172.075 268.801 171.655 269.279 171.689 269.831C171.824 271.987 171.926 273.992 171.998 275.823C172.008 276.05 172.201 276.811 173.042 276.783V276.787Z" fill="white"/>
<path d="M167.967 289.414C167.046 289.603 165.175 289.962 162.083 290.47C161.537 290.558 161.165 291.076 161.256 291.622C161.348 292.186 161.886 292.544 162.408 292.449C165.542 291.935 167.435 291.57 168.369 291.379C168.913 291.269 169.262 290.739 169.152 290.195C169.041 289.651 168.505 289.301 167.967 289.414Z" fill="white"/>
<path d="M120.331 295.715C118.105 295.932 116.115 296.115 114.349 296.267C113.044 296.378 113.176 298.357 114.521 298.267C116.294 298.114 118.292 297.931 120.528 297.713C121.845 297.582 121.66 295.589 120.331 295.715Z" fill="white"/>
<path d="M108.367 296.74C104.199 297.025 102.421 297.043 102.421 297.043C101.867 297.047 101.421 297.501 101.425 298.055C101.429 298.605 101.879 299.053 102.429 299.051C102.501 299.051 104.262 299.035 108.504 298.743C109.811 298.653 109.718 296.67 108.367 296.74Z" fill="white"/>
<path d="M132.291 294.45C130.167 294.69 128.177 294.909 126.312 295.11C125.762 295.168 125.363 295.664 125.421 296.214C125.479 296.768 125.977 297.164 126.525 297.106C128.392 296.907 130.388 296.688 132.516 296.443C133.066 296.381 133.461 295.883 133.399 295.333C133.337 294.783 132.843 294.387 132.289 294.45H132.291Z" fill="white"/>
<path d="M156.147 291.391C154.382 291.65 152.405 291.931 150.197 292.23C148.888 292.408 149.141 294.39 150.468 294.219C152.684 293.918 154.669 293.637 156.44 293.376C157.755 293.183 157.462 291.192 156.147 291.391Z" fill="white"/>
<path d="M144.232 293.013C142.369 293.25 140.384 293.495 138.264 293.75C137.714 293.816 137.32 294.316 137.386 294.866C137.453 295.416 137.953 295.81 138.503 295.744C140.627 295.489 142.618 295.242 144.485 295.007C145.804 294.838 145.551 292.847 144.232 293.015V293.013Z" fill="white"/>
<path d="M146.946 261.236L136.223 262.547L134.77 250.662C134.286 246.707 128.309 247.44 128.791 251.393L130.245 263.278L119.522 264.589C115.569 265.073 116.302 271.066 120.253 270.568L130.975 269.257L132.429 281.142C132.919 285.149 138.889 284.356 138.408 280.411L136.954 268.526L147.677 267.215C151.634 266.731 150.903 260.759 146.946 261.236Z" fill="white"/>
<path d="M167.978 234.322L166.418 236.05C166.715 237.03 167.114 238.431 167.558 240.224C167.693 240.766 168.245 241.091 168.775 240.957C169.313 240.822 169.64 240.28 169.507 239.74C168.841 237.054 168.269 235.209 167.978 234.322Z" fill="white"/>
</svg>
