<svg width="532" height="482" viewBox="0 0 532 482" fill="none" xmlns="http://www.w3.org/2000/svg">
<path d="M303.865 92.1295C308.091 92.0052 308.837 86.8349 306.351 84.0012C305.854 83.5333 305.267 83.1727 304.625 82.9418C303.983 82.7108 303.3 82.6145 302.619 82.6588C301.938 82.7031 301.274 82.8871 300.667 83.1993C300.061 83.5115 299.525 83.9452 299.093 84.4735C296.085 88.0281 298.074 93.3226 303.865 92.1295ZM305.158 85.7661C306.6 87.6055 306.525 90.7375 303.766 91.2843C301.554 91.2843 299.665 90.5386 299.665 88.3263C299.689 85.2441 303.244 83.3798 305.158 85.8655V85.7661ZM324.596 91.682C328.822 91.5577 329.567 86.3875 327.082 83.5538C326.596 83.0644 326.012 82.6848 325.367 82.4406C324.722 82.1963 324.033 82.0931 323.345 82.1379C322.657 82.1826 321.987 82.3743 321.38 82.7C320.772 83.0258 320.241 83.4779 319.824 84.0261C316.841 87.5558 318.78 92.8752 324.596 91.682ZM325.889 85.3186C327.33 87.1581 327.231 90.29 324.497 90.8369C322.284 90.8369 320.395 90.0912 320.395 87.8789C320.395 84.7967 323.975 82.8578 325.889 85.3186Z" fill="white"/>
<path d="M339.116 118.328C410.281 112.512 388.531 37.2198 325.569 38.7858C254.826 40.7495 233.573 126.978 339.116 118.328ZM280.13 58.5222C300.264 38.6367 340.408 33.9636 364.644 52.5566C391.812 73.2873 388.78 113.406 338.942 117.458C311.872 119.646 293.329 115.146 282.019 107.664C263.401 95.3354 264.52 74.0081 280.13 58.5222Z" fill="white"/>
<path d="M343.81 90.8337C348.036 90.8337 348.906 85.5391 346.296 82.7054C345.799 82.2376 345.212 81.8769 344.57 81.646C343.928 81.415 343.245 81.3187 342.564 81.363C341.883 81.4073 341.219 81.5913 340.612 81.9035C340.005 82.2157 339.47 82.6494 339.038 83.1777C336.03 86.7571 338.068 92.0268 343.81 90.8337ZM345.103 84.4703C346.545 86.3097 346.445 89.4417 343.711 90.0134C341.523 90.0134 339.609 89.2428 339.609 87.0306C339.634 83.9731 343.189 82.0094 345.103 84.4703ZM259.669 261.825C261.136 261.054 264.343 257.723 263.845 256.157C264.79 253.672 279.431 206.916 283.458 191.828C284.066 190.243 284.353 188.553 284.303 186.856C284.029 186.309 283.582 186.26 283.035 186.235L235.658 186.98C234.887 151.211 231.382 50.7394 227.405 17.7045C228.101 17.7045 228.872 17.7045 229.095 16.8593C229.941 13.7771 230.661 8.28367 228.275 6.19569C222.459 1.10001 35.6336 5.69855 33.2473 6.56854C30.861 7.43853 30.7616 14.4233 31.209 17.4062C31.209 18.127 32.427 18.4005 33.123 18.5745C28.6488 47.1351 32.8993 245.27 36.8267 262.372C37.0256 263.217 37.299 264.037 38.0198 264.211C39.6545 264.602 41.3164 264.867 42.9912 265.006C45.6758 285.911 64.0202 289.863 85.0989 286.508C104.887 283.157 123.704 275.521 140.232 264.136C155.817 263.59 139.486 264.286 168.544 264.41C177.269 264.36 255.493 264.087 259.669 261.825ZM142.419 248.228C147.391 248.228 153.704 248.874 157.333 252.578C158.029 253.299 159.819 255.461 158.949 255.909C156.662 257.127 145.203 256.704 142.096 256.754L142.419 248.228ZM141.947 257.574L145.526 257.947C145.566 259.309 145.96 260.637 146.67 261.8L141.698 261.974L141.947 257.574ZM282.165 188.372C280.475 196.128 264.467 248.228 262.279 255.014C243.164 254.219 214.579 255.312 175.926 256.381C177.641 250.589 193.848 195.233 195.812 189.839C195.936 189.59 281.916 188.372 282.165 188.372ZM32.1785 17.2073C31.557 13.0562 32.5513 7.73682 33.5456 7.26454C34.9624 6.74254 218.109 3.9337 226.933 7.76167C227.547 8.61232 227.854 9.64669 227.803 10.6948C227.871 12.37 227.686 14.0458 227.256 15.6662C227.032 15.6662 87.2118 19.0716 70.657 19.0467C66.4314 19.0467 35.2607 19.1462 32.1785 17.2073ZM43.1652 77.1375C43.0161 75.8201 42.867 71.7932 42.7427 66.449C47.9875 68.2635 76.5482 68.3132 82.1161 68.3132C86.1678 68.3132 157.11 66.7224 168.643 66.2501C172.695 66.101 213.386 64.0627 217.537 63.5656C217.615 66.9987 217.515 70.4335 217.239 73.8563C217.089 73.8563 108.887 78.0572 94.9423 78.3306C89.9461 78.4052 47.5401 79.3746 43.1652 77.1375ZM217.313 50.4908C96.4586 53.2251 46.9684 54.8905 42.5687 52.9765V39.6035C52.5115 42.0891 142.469 39.9515 150.299 39.7526C158.75 39.504 211.521 37.2669 216.915 36.894C217.04 41.3434 217.214 46.0911 217.313 50.4908ZM42.5687 53.9708C50.9206 56.7299 144.979 54.3685 150.622 54.1945C159.123 53.9708 212.764 51.5845 217.338 51.3608C217.338 55.4125 217.512 59.2902 217.537 62.7204C137.174 64.7587 49.2303 68.4624 42.7178 65.5541C42.7178 62.0742 42.7178 58.1219 42.5687 53.9708ZM216.717 36.1483C130.115 38.112 47.6892 40.5729 42.4195 38.8329V27.523C52.0392 30.1578 143.438 27.8958 150.249 27.697C158.377 27.4733 207.42 25.2113 216.021 24.8881C216.443 28.0698 216.717 31.9475 216.717 36.1483ZM216.07 24.0181C112.019 26.5038 47.1921 28.393 42.5438 26.6778C42.5438 24.7141 42.5438 21.7064 42.8421 19.693C78.2136 21.8556 156.712 19.4693 215.573 18.1022C215.871 19.7427 216.045 22.303 216.17 23.9933L216.07 24.0181ZM38.865 262.347C35.0867 250.465 29.7425 47.9057 33.8936 18.7485C36.5863 19.1776 39.2993 19.468 42.0218 19.6184C41.1767 29.2381 41.1767 73.4338 41.7484 77.5103C41.7921 77.7012 41.8771 77.8802 41.9973 78.0348C42.1175 78.1894 42.2701 78.3158 42.4444 78.4052C44.6056 79.1171 46.8569 79.5188 49.1309 79.5983C48.5633 88.2521 48.8046 96.94 49.8518 105.549C41.8727 106.494 41.127 118.798 51.89 116.884C59.6206 116.561 57.9303 105.624 50.7963 105.499C51.3555 96.8842 51.0808 88.2352 49.9761 79.6729C59.0986 80.344 75.6782 80.4435 94.992 80.1949C108.937 79.996 215.126 76.1183 216.965 75.9692C217.935 75.9692 218.879 75.9692 219.128 75.0743C220.694 69.3075 218.506 24.4158 217.736 18.0276L225.566 17.8287C229.443 50.8139 232.749 148.651 233.57 187.055C225.74 187.179 196.856 187.577 195.066 188.049C194.569 188.198 194.395 188.571 194.146 189.218C193.276 191.529 191.362 198.166 190.666 200.552C179.079 191.224 165.876 184.105 151.716 179.548C151.965 178.132 152.288 176.73 152.685 175.347C155.646 175.239 158.527 174.356 161.039 172.786C163.552 171.215 165.608 169.013 167.003 166.399C170.01 161.427 171.974 153.598 171.775 141.293C171.981 141.355 172.199 141.362 172.408 141.314C172.617 141.266 172.81 141.165 172.968 141.02C173.936 140.245 174.775 139.323 175.454 138.286C176.672 133.695 176.313 128.828 174.435 124.465C172.496 118.748 171.626 114.821 166.978 109.8C163.366 105.809 158.547 103.111 153.257 102.119C148.584 101.705 143.875 102.049 139.312 103.138C137.262 103.748 135.347 104.744 133.669 106.071C132.652 106.93 131.808 107.977 131.184 109.153C129.966 110.844 127.107 110.968 124.895 112.037C120.393 114.951 117.052 119.348 115.449 124.465C114.333 127.663 113.745 131.021 113.709 134.408C111.87 132.37 108.962 129.983 106.501 131.177C104.04 132.37 101.728 140.548 101.753 144.525C101.778 148.502 103.294 148.477 106.923 148.477C105.27 149.862 103.895 151.549 102.872 153.448C101.181 156.108 101.256 156.282 98.472 157.425C97.0552 158.022 95.7626 158.271 95.7626 159.339C95.7585 159.555 95.821 159.766 95.9418 159.945C96.0625 160.123 96.2355 160.26 96.4369 160.336C96.6384 160.412 96.8585 160.424 97.0671 160.37C97.2757 160.317 97.4625 160.2 97.602 160.035L99.2674 159.364C100.463 159.014 101.565 158.402 102.494 157.572C103.423 156.742 104.155 155.715 104.637 154.567C106.725 151.286 108.166 149.272 112.094 148.452C110.01 149.882 108.295 151.785 107.089 154.006C105.884 156.227 105.222 158.702 105.159 161.229C101.48 163.863 96.036 168.412 94.122 172.489C92.208 176.565 90.99 182.68 94.4203 184.743C76.9475 193.154 62.9725 207.419 54.9226 225.061C48.1118 235.998 41.8478 250.167 42.7675 263.117C41.4528 262.937 40.1497 262.679 38.865 262.347ZM50.5478 107.488C51.639 107.465 52.7023 107.834 53.5456 108.527C54.389 109.22 54.9567 110.191 55.1463 111.266C55.9169 114.647 52.9837 117.182 48.4101 115.616C43.8364 114.05 45.8747 107.736 50.5478 107.562V107.488ZM113.461 137.838C113.967 140.296 115.068 142.592 116.667 144.525C116.691 144.773 116.691 145.022 116.667 145.27C112.596 146.214 108.402 146.508 104.239 146.14C103.886 145.204 103.808 144.186 104.015 143.207C104.266 139.656 105.293 136.202 107.023 133.091C108.837 132.171 112.317 136.073 113.461 137.838ZM118.084 180.319C125.864 180.617 126.113 171.097 127.679 170.376C129.484 169.262 130.903 167.62 131.744 165.673C132.584 163.725 132.805 161.566 132.377 159.489C132.377 159.041 129.444 152.951 129.096 151.882C128.027 148.701 124.994 145.594 127.903 142.66C129.717 140.548 131.407 143.033 132.601 145.519C132.668 145.695 132.778 145.85 132.922 145.972C133.065 146.094 133.237 146.177 133.421 146.215C135.086 146.513 137.224 142.76 138.914 141.94C141.903 140.774 144.662 139.091 147.067 136.968C148.882 135.178 150.125 131.525 152.188 130.505C156.017 128.985 159.956 127.755 163.97 126.827C164.84 129.611 163.398 129.934 169.762 138.509C170.135 139.006 170.408 139.752 170.756 140.349C170.767 140.556 170.767 140.763 170.756 140.97C171.129 153.2 168.768 160.856 165.785 165.827C164.427 168.252 162.435 170.262 160.023 171.642C157.61 173.021 154.867 173.718 152.088 173.657C151.904 173.643 151.72 173.692 151.566 173.796C151.413 173.899 151.299 174.052 151.243 174.229C151.243 174.229 150.373 177.236 150.05 178.976C149.653 181.089 150.05 180.94 152.138 181.711C157.333 183.437 162.386 185.564 167.251 188.074C164.704 195.484 160.977 202.434 156.215 208.656C155.171 209.923 152.238 215.069 150.249 214.423C145.551 212.832 119.6 189.118 112.964 181.512L112.317 180.791C114.229 180.522 116.154 180.364 118.084 180.319ZM61.9571 216.138C61.8843 216.161 61.8062 216.161 61.7334 216.138C61.7947 216.195 61.8735 216.23 61.9571 216.237V216.138ZM84.7509 284.37C72.0242 286.359 55.3452 286.309 48.5343 275.397C38.2933 259.09 48.9072 234.88 59.9188 219.096C60.3911 218.4 61.6091 216.61 62.156 216.063C73.1965 198.859 90.3038 186.437 110.08 181.263C113.585 186.235 143.836 214.447 149.677 216.411C153.282 217.604 156.066 212.235 157.88 209.948C162.778 203.541 166.583 196.369 169.14 188.72C176.624 192.448 183.683 196.973 190.194 202.218C187.35 212.037 184.591 221.881 181.917 231.748C181.345 227.824 180.18 224.011 178.462 220.438C178.418 220.342 178.341 220.267 178.244 220.225C178.148 220.184 178.039 220.18 177.94 220.214C177.841 220.248 177.758 220.318 177.707 220.41C177.657 220.502 177.642 220.609 177.666 220.711C177.932 223.798 178.524 226.847 179.431 229.809C179.87 231.332 180.444 232.813 181.146 234.234C178.039 245.369 175.429 254.765 174.957 256.431C158.899 256.903 160.49 256.953 160.639 256.704C161.658 255.014 159.894 252.702 158.526 251.31C156.903 249.845 155.001 248.722 152.934 248.008C150.867 247.295 148.677 247.006 146.496 247.159C145.15 247.161 143.805 247.244 142.469 247.408L142.618 244.475C142.63 244.265 142.573 244.057 142.457 243.882C142.34 243.707 142.17 243.575 141.972 243.505C130.165 239.354 111.671 235.601 97.4032 236.471C99.6394 229.772 101.001 222.812 101.455 215.765C101.463 215.662 101.434 215.56 101.373 215.477C101.312 215.395 101.222 215.337 101.121 215.316C101.021 215.295 100.916 215.311 100.826 215.361C100.736 215.412 100.668 215.494 100.635 215.591C98.4404 222.382 97.0473 229.406 96.4834 236.52C89.1226 236.767 81.9841 239.103 75.9019 243.257C75.8635 243.294 75.833 243.338 75.8122 243.387C75.7914 243.436 75.7807 243.489 75.7807 243.542C75.7807 243.596 75.7914 243.649 75.8122 243.698C75.833 243.747 75.8635 243.791 75.9019 243.828C76.8961 245.171 80.8733 237.341 101.927 237.689C115.101 238.322 128.116 240.833 140.58 245.146L139.66 261.924C123.242 273.394 104.492 281.093 84.7509 284.469V284.37Z" fill="white"/>
<path d="M225.665 229.164C230.936 229.549 236.228 229.549 241.499 229.164C241.642 229.154 241.78 229.112 241.905 229.043C242.03 228.973 242.138 228.876 242.221 228.76C242.304 228.643 242.361 228.51 242.386 228.369C242.412 228.228 242.406 228.084 242.369 227.946C242.17 225.659 237.547 218.898 235.856 217.133C235.011 216.238 234.763 216.263 233.893 217.133C230.699 220.262 227.887 223.758 225.516 227.548C225.217 228.194 225.118 228.816 225.665 229.164ZM234.812 217.133C235.962 218.418 236.939 219.846 237.721 221.383C238.925 223.421 239.973 225.549 240.853 227.747C238.615 227.747 229.518 228.02 227.007 227.747C229.372 224.041 231.98 220.495 234.812 217.133ZM254.002 129.512C257.998 129.178 261.805 127.664 264.939 125.162C268.144 122.948 270.951 120.209 273.241 117.059C273.788 116.213 272.57 116.015 272.545 116.661C268.578 120.062 264.375 123.177 259.968 125.982C258.086 127.189 256.044 128.126 253.902 128.766C253.838 128.811 253.788 128.872 253.757 128.943C253.725 129.014 253.714 129.092 253.724 129.17C253.734 129.247 253.766 129.319 253.815 129.38C253.864 129.44 253.929 129.486 254.002 129.512ZM272.52 116.711C272.542 116.847 272.613 116.97 272.719 117.059C272.652 117.029 272.594 116.98 272.555 116.919C272.515 116.857 272.494 116.784 272.495 116.711H272.52ZM155.394 159.564C155.363 159.67 155.374 159.783 155.425 159.881C155.476 159.978 155.563 160.052 155.668 160.086C156.264 160.384 157.134 160.881 158.153 161.254C160.018 162 161.882 161.975 162.478 160.061C162.79 158.11 162.79 156.121 162.478 154.17C162.261 152.298 161.835 150.455 161.211 148.677C161.191 148.565 161.128 148.465 161.034 148.4C160.941 148.334 160.826 148.309 160.714 148.329C160.602 148.348 160.502 148.412 160.437 148.505C160.371 148.598 160.346 148.714 160.366 148.826V152.704C160.569 154.969 160.569 157.249 160.366 159.514C160.366 159.738 160.117 159.788 159.918 159.813C157.731 160.036 155.643 158.793 155.394 159.564ZM153.977 149.472C153.988 149.01 154.055 148.551 154.176 148.105C154.243 147.984 154.286 147.851 154.301 147.714C154.317 147.577 154.305 147.438 154.267 147.305C154.229 147.173 154.165 147.049 154.079 146.941C153.993 146.833 153.887 146.743 153.766 146.676C153.645 146.609 153.513 146.566 153.375 146.551C153.238 146.535 153.099 146.547 152.967 146.585C152.834 146.623 152.71 146.687 152.602 146.773C152.494 146.859 152.404 146.965 152.337 147.086C152.012 147.874 151.851 148.719 151.865 149.572C151.914 149.823 152.052 150.049 152.254 150.208C152.455 150.366 152.708 150.447 152.964 150.435C153.22 150.423 153.464 150.319 153.65 150.142C153.836 149.965 153.952 149.728 153.977 149.472ZM167.798 149.447C167.823 149.259 167.795 149.067 167.717 148.894C167.639 148.721 167.514 148.573 167.356 148.467C167.198 148.361 167.014 148.301 166.824 148.294C166.635 148.287 166.447 148.334 166.282 148.428C165.362 148.9 165.76 150.168 165.76 150.914C165.76 151.191 165.87 151.456 166.065 151.652C166.261 151.848 166.527 151.958 166.804 151.958C167.08 151.958 167.346 151.848 167.542 151.652C167.738 151.456 167.848 151.191 167.848 150.914C167.806 150.426 167.79 149.937 167.798 149.447ZM150.821 141.592C151.909 141.461 153.012 141.528 154.077 141.791C156.563 142.264 156.563 142.661 156.786 142.264C157.01 141.866 155.469 140.374 154.698 140.002C153.378 139.455 151.928 139.3 150.522 139.554C149.031 139.828 146.868 141.195 147.167 141.766C147.465 142.338 147.465 141.866 150.821 141.592ZM166.853 143.83L167.649 144.103C167.897 144.103 169.463 144.501 169.637 144.277C169.811 144.053 168.991 142.587 168.32 142.189C166.207 140.946 164.169 142.413 164.492 143.084C165.264 143.377 166.053 143.626 166.853 143.83ZM156.19 166.499C155.567 166.392 154.969 166.173 154.425 165.853C153.754 165.521 153.134 165.094 152.585 164.585C151.616 163.765 150.622 162.994 150.423 162.771C150.364 162.69 150.278 162.632 150.181 162.608C150.084 162.585 149.981 162.596 149.892 162.641C149.802 162.686 149.732 162.761 149.692 162.853C149.653 162.945 149.648 163.048 149.677 163.143C150.224 166.449 153.729 168.761 156.389 167.319C157.06 167.22 156.737 166.375 156.19 166.499ZM493.126 227.548C493.797 227.548 494.593 227.548 494.816 226.703C495.661 223.645 496.382 218.127 493.996 216.039C488.105 210.919 301.33 215.517 298.968 216.387C296.607 217.257 296.482 224.217 296.93 227.2C296.93 227.921 298.148 228.219 298.844 228.393C295.215 251.585 297.676 366.473 298.372 391.654C292.182 387.403 274.633 376.043 267.251 374.85C265.883 374.651 267.251 369.208 263.696 367.393C263.186 367.134 262.596 367.083 262.049 367.25C261.503 367.417 261.042 367.789 260.763 368.288C259.97 369.604 259.328 371.005 258.849 372.464C258.277 372.961 256.189 372.787 255.444 372.713C250.025 372.141 244.233 370.227 242.692 373.085C242.414 373.682 242.324 374.349 242.435 374.997C242.546 375.646 242.853 376.245 243.313 376.715C245.973 379.2 256.736 382.233 259.57 383.426C262.056 388.223 276.1 425.509 300.161 441.616C300.31 444.922 301.454 471.668 303.119 473.632C305.332 476.118 341.374 475.446 344.407 475.72C364.292 477.385 449.129 472.016 498.669 470.748C499.141 470.748 499.812 470.376 500.21 469.282C505.579 453.97 497.153 261.154 493.126 227.548ZM297.874 227.001C297.278 222.85 298.247 217.531 299.242 217.058C300.236 216.586 483.183 213.678 492.629 217.555C493.249 218.403 493.556 219.44 493.499 220.489C493.565 222.162 493.389 223.837 492.977 225.46C492.753 225.46 352.933 228.865 336.378 228.84C332.624 228.94 300.832 229.039 297.874 227.1V227.001ZM470.531 408.183C475.502 417.082 482.114 438.012 484.998 447.83C476.347 448.601 443.337 451.832 437.943 453.001C437.695 453.001 437.943 453.423 436.949 448.029C436.402 445.021 434.016 435.278 433.892 434.78C432.674 430.082 432.127 428.69 431.406 426.056C431.372 425.958 431.304 425.877 431.215 425.826C431.125 425.776 431.02 425.759 430.919 425.781C430.819 425.802 430.729 425.86 430.668 425.942C430.606 426.025 430.577 426.127 430.586 426.23C430.884 428.715 431.207 431.599 431.704 434.134C431.704 434.383 440.031 470.724 440.106 470.972C432.251 471.345 349.875 475.521 342.592 473.706C343.313 465.678 344.258 458.593 345.227 452.628C345.227 452.379 354.598 404.182 354.722 403.61C354.747 403.508 354.732 403.4 354.681 403.308C354.631 403.216 354.548 403.147 354.449 403.112C354.349 403.078 354.241 403.082 354.145 403.124C354.048 403.165 353.971 403.241 353.927 403.336C350.701 411.725 348.854 420.581 348.458 429.56C345.152 425.906 317.909 395.73 316.144 392.524C325.514 384.357 336.012 377.584 347.315 372.414C357.879 367.474 369.181 364.3 380.772 363.018C379.403 363.909 378.262 365.11 377.442 366.523C376.522 368.586 378.784 371.718 380.971 372.514C395.513 377.833 407.394 374.204 413.981 366.772C415.423 365.156 415.348 364.808 415.398 363.863C439.509 370.55 457.332 384.147 470.531 408.283V408.183ZM441.921 470.127C440.678 465.156 440.23 461.676 438.913 455.039C439.708 454.915 480.648 450.067 485.445 449.496C487.432 455.729 488.912 462.114 489.87 468.586C483.382 468.909 448.334 470.997 441.921 470.127ZM381.021 335.079C383.186 327.434 386.541 320.178 390.964 313.578C395.164 314.771 399.614 314.771 403.815 313.578C403.467 315.218 405.182 316.064 406.798 316.61C406.43 317.192 406.181 317.841 406.066 318.519C405.95 319.198 405.971 319.892 406.127 320.563C406.233 321.19 406.484 321.783 406.859 322.297C407.234 322.81 407.724 323.229 408.289 323.521C409.116 323.928 410.008 324.188 410.924 324.291C410.454 325.144 410.207 326.102 410.207 327.075C410.207 328.049 410.454 329.007 410.924 329.859C411.373 330.565 411.977 331.16 412.689 331.599C412.264 331.994 411.896 332.446 411.595 332.941C410.054 335.974 409.234 341.095 412.49 342.213C413.04 342.376 413.633 342.317 414.14 342.047C414.647 341.777 415.027 341.319 415.199 340.771C416.218 338.609 418.033 337.863 418.953 339.976C420.146 342.685 415.373 345.295 414.106 347.433C413.509 348.402 412.341 349.596 413.037 351.012C413.31 351.584 413.211 351.012 413.236 352.305C413.484 365.057 413.882 363.839 412.465 365.429C406.4 372.191 395.339 375.571 381.667 370.55C381.053 370.275 380.51 369.863 380.08 369.346C379.649 368.829 379.342 368.221 379.182 367.567C379.182 367.368 379.306 367.194 379.48 366.971C381.049 365.295 382.839 363.84 384.799 362.646C385.57 362.074 385.744 361.701 386.166 360.16C386.589 358.619 386.738 357.177 387.036 356.282C388.428 352.131 376.92 352.28 381.021 335.079ZM405.455 286.707C404.256 286.027 402.892 285.692 401.514 285.741C400.136 285.789 398.799 286.218 397.65 286.981C390.367 287.254 315.274 290.337 308.886 286.981C308.712 285.663 308.563 281.661 308.463 276.292C313.708 278.132 342.269 278.157 347.837 278.182C351.864 278.182 422.806 276.591 434.364 276.118C439.509 275.895 482.114 273.633 483.258 273.409C483.331 276.843 483.223 280.278 482.935 283.7C482.935 283.7 440.553 285.415 405.455 286.707ZM483.034 260.409C364.193 263.093 312.714 264.784 308.265 262.894V249.521C318.207 252.007 408.165 249.894 416.02 249.671C424.471 249.422 477.217 247.185 482.611 246.837C482.686 251.261 482.91 255.91 483.034 260.409ZM308.289 263.889C316.617 266.623 410.626 264.262 416.318 264.112C424.844 263.864 478.46 261.478 483.059 261.254C483.059 265.306 483.233 269.208 483.258 272.614C410.601 274.552 315.001 278.455 308.439 275.447C308.364 271.992 308.314 268.015 308.289 263.889ZM482.537 246.017C387.21 248.179 313.509 250.441 308.215 248.726V237.416C317.81 240.051 409.209 237.764 416.044 237.565C422.482 237.391 475.701 235.254 481.816 234.806C482.139 238.013 482.363 241.865 482.537 246.017ZM481.891 233.886C385.943 236.074 313.211 238.336 308.364 236.546C308.364 234.582 308.364 231.575 308.662 229.561C344.009 231.724 422.756 229.338 481.369 227.97C481.567 229.686 481.766 232.196 481.891 233.886ZM299.664 228.666C302.357 229.087 305.07 229.369 307.792 229.512C306.873 239.181 306.897 283.302 307.469 287.403C307.5 287.599 307.58 287.784 307.701 287.941C307.823 288.098 307.983 288.221 308.165 288.298C310.316 289.021 312.56 289.431 314.827 289.516C314.223 298.162 314.473 306.846 315.573 315.442C307.593 316.412 306.823 328.691 317.586 326.802C325.292 326.454 323.701 315.517 316.492 315.392C317.066 306.778 316.791 298.127 315.672 289.566C333.544 290.883 367.051 289.964 384.973 289.392C383.781 290.129 382.722 291.061 381.841 292.151C377.715 296.924 381.344 305.499 385.545 310.123C386.639 311.319 387.956 312.29 389.423 312.981C381.966 323.943 372.942 342.661 381.966 352.429C383.118 353.393 384.183 354.458 385.147 355.611C384.75 356.904 384.352 359.638 383.855 360.831C383.184 361.303 383.358 361.229 383.01 361.253C370.387 362.426 358.073 365.835 346.644 371.321C335.175 376.647 324.568 383.66 315.175 392.126C314.852 392.449 314.926 392.772 318.58 397.097L311.421 401.845C307.939 398.503 304.162 395.484 300.136 392.822C299.291 367.244 296.259 252.181 299.664 228.666ZM316.269 317.48C317.34 317.456 318.385 317.812 319.218 318.486C320.051 319.159 320.618 320.107 320.817 321.159C321.613 324.54 318.68 327.1 314.106 325.509C309.532 323.918 311.595 317.63 316.269 317.48ZM276.149 411.788C270.576 402.53 265.707 392.867 261.583 382.879C261.186 382.059 261.136 381.885 259.52 381.288C254.649 379.843 249.902 378.006 245.327 375.795C245.052 375.622 244.801 375.413 244.581 375.173C244.233 374.129 244.581 373.98 245.302 373.831C248.558 373.259 255.245 375.497 258.625 374.776C259.154 374.743 259.659 374.542 260.066 374.203C260.473 373.863 260.761 373.402 260.887 372.887C261.061 372.439 262.205 368.959 262.826 369.257C265.486 370.6 263.423 376.292 266.977 376.839C275.453 378.057 306.077 397.371 310.899 402.988C310.992 403.079 311.117 403.13 311.247 403.13C311.378 403.13 311.503 403.079 311.595 402.988L319.053 397.793C325.888 406.095 341.25 423.545 348.235 431.425C347.688 433.314 334.364 446.065 327.678 447.085C305.58 450.49 287.932 430.928 276.149 411.788ZM304.586 472.339C303.393 468.685 302.274 446.836 302.1 442.958C309.737 447.935 318.945 449.909 327.951 448.501C333.818 447.507 343.661 438.559 347.638 433.836C344.409 446.909 342.149 460.202 340.877 473.607C323.229 473.93 310.228 473.632 304.586 472.339ZM498.172 468.834L491.983 469.008C492.405 462.471 479.206 419.792 472.346 407.289C458.873 382.805 440.703 368.76 415.398 361.974C415.398 360.011 415.398 357.972 415.075 352.479C415.519 352.481 415.958 352.387 416.361 352.202C416.765 352.017 417.123 351.747 417.412 351.41C418.247 352.059 419.228 352.495 420.27 352.678C424.123 353.349 430.362 349.546 429.89 346.265C431.884 346.319 433.846 345.754 435.507 344.649C438.366 342.859 441.697 339.031 441.274 335.875C440.852 332.718 439.857 334.557 442.293 332.991C444.677 331.327 446.36 328.838 447.016 326.006C447.314 324.176 447.247 322.306 446.821 320.501C446.394 318.697 445.616 316.995 444.531 315.492C444.146 314.963 443.629 314.546 443.03 314.284C442.432 314.022 441.774 313.924 441.125 314C440.877 314 440.926 314.174 441.722 312.633C441.97 312.218 442.146 311.764 442.244 311.291C442.36 309.622 442.106 307.947 441.5 306.387C440.895 304.828 439.952 303.421 438.739 302.268C438.004 301.504 437.059 300.975 436.023 300.749C434.988 300.523 433.908 300.611 432.922 301C432.922 301 431.829 301.473 431.481 301.572C431.481 300.677 431.605 299.434 431.481 299.086C431.304 297.749 430.819 296.472 430.064 295.355C429.309 294.237 428.305 293.311 427.131 292.648C424.303 291.581 421.184 291.581 418.356 292.648C417.622 290.783 416.247 289.241 414.478 288.298C416.094 288.298 482.089 285.813 483.73 285.813C483.952 285.801 484.164 285.72 484.338 285.582C484.511 285.444 484.638 285.255 484.699 285.042C486.166 279.723 484.302 236.173 483.332 227.871L491.162 227.672C495.811 266.275 502.895 454.268 498.172 468.834Z" fill="white"/>
<path d="M388.48 325.908L389.624 324.293C389.782 324.065 389.843 323.784 389.795 323.511C389.746 323.239 389.59 322.997 389.363 322.838C389.135 322.68 388.854 322.619 388.582 322.668C388.309 322.717 388.067 322.872 387.909 323.099L386.74 324.715C386.582 324.946 386.522 325.23 386.573 325.505C386.625 325.78 386.783 326.023 387.014 326.182C387.245 326.34 387.529 326.4 387.804 326.349C388.079 326.297 388.322 326.139 388.48 325.908ZM389.997 337.268C390.444 337.591 390.916 336.895 390.444 336.572C388.928 335.205 388.157 334.509 387.809 334.086C387.461 333.664 387.66 333.763 387.809 333.49C388.282 332.371 390.295 329.935 393.352 325.287C393.425 325.201 393.46 325.09 393.451 324.978C393.442 324.866 393.388 324.763 393.303 324.69C393.217 324.618 393.106 324.582 392.994 324.592C392.882 324.601 392.779 324.654 392.706 324.74C390.988 326.102 389.429 327.652 388.058 329.363C384.056 334.434 385.348 335.081 389.997 337.268ZM397.28 331.103C397.504 330.557 397.951 329.836 398.224 329.239C398.281 329.113 398.313 328.978 398.318 328.84C398.323 328.702 398.3 328.564 398.252 328.435C398.203 328.306 398.13 328.187 398.035 328.086C397.941 327.986 397.828 327.904 397.702 327.847C397.577 327.79 397.441 327.758 397.303 327.754C397.165 327.749 397.028 327.771 396.898 327.82C396.769 327.868 396.651 327.942 396.55 328.036C396.449 328.13 396.367 328.243 396.31 328.369C396.062 328.916 395.639 329.587 395.341 330.308C395.289 330.435 395.262 330.572 395.263 330.709C395.263 330.847 395.291 330.983 395.344 331.11C395.397 331.237 395.474 331.352 395.572 331.449C395.67 331.546 395.785 331.623 395.913 331.675C396.04 331.727 396.176 331.754 396.314 331.754C396.451 331.753 396.588 331.726 396.715 331.672C396.842 331.619 396.957 331.542 397.054 331.444C397.151 331.346 397.228 331.231 397.28 331.103ZM388.928 345.918C389.698 346.042 390.486 345.982 391.229 345.745C391.971 345.507 392.648 345.098 393.203 344.551C393.706 343.973 394.042 343.268 394.173 342.513C394.215 342.465 394.246 342.409 394.264 342.348C394.282 342.287 394.286 342.223 394.275 342.16C394.264 342.097 394.24 342.038 394.203 341.986C394.166 341.934 394.118 341.891 394.062 341.86C394.007 341.83 393.945 341.812 393.881 341.808C393.818 341.805 393.754 341.816 393.696 341.84C393.637 341.865 393.585 341.902 393.542 341.95C393.5 341.997 393.469 342.054 393.452 342.115C392.588 342.804 391.624 343.358 390.593 343.756C389.514 344.035 388.401 344.161 387.287 344.128C387.235 344.097 387.177 344.077 387.117 344.07C387.056 344.062 386.995 344.068 386.937 344.087C386.879 344.106 386.826 344.137 386.781 344.178C386.737 344.219 386.701 344.27 386.678 344.326C386.654 344.382 386.643 344.442 386.645 344.503C386.647 344.564 386.662 344.624 386.689 344.678C386.717 344.733 386.755 344.781 386.803 344.819C386.85 344.857 386.905 344.884 386.964 344.899C387.524 345.396 388.199 345.746 388.928 345.918ZM402.549 411.715C397.106 407.489 391.14 409.105 386.467 414.2C382.664 406.345 375.629 403.934 367.103 410.546C354.252 420.489 376.549 448.329 379.532 449.298C379.788 449.398 380.072 449.398 380.327 449.298C381.396 448.727 406.477 435.254 407.67 422.105C407.822 420.073 407.427 418.039 406.526 416.211C405.626 414.384 404.253 412.832 402.549 411.715Z" fill="white"/>
</svg>
