<svg width="237" height="173" viewBox="0 0 237 173" fill="none" xmlns="http://www.w3.org/2000/svg">
<path d="M183.883 67.6016C183.361 67.6016 183.361 68.5413 183.883 68.5413C185.126 68.5413 202.447 68.2642 203.901 67.9871C204.034 67.9678 204.155 67.9031 204.242 67.8047C204.33 67.7063 204.378 67.5808 204.378 67.451C204.378 67.3212 204.33 67.1957 204.242 67.0973C204.155 66.9989 204.034 66.9342 203.901 66.9149C199.338 66.3366 188.906 67.5052 183.883 67.6016ZM190.821 92.2031C190.249 92.2031 190.348 93.1308 190.896 93.1548C194.949 93.2874 201.265 93.0826 205.406 92.9018C206.164 92.9018 206.251 91.6971 205.406 91.6971C200.768 91.7212 195.471 91.7814 190.821 92.2031ZM191.356 50.6504C191.235 50.6555 191.121 50.7028 191.033 50.7835C190.946 50.8642 190.892 50.9729 190.882 51.0894C190.871 51.2058 190.904 51.322 190.976 51.4163C191.047 51.5106 191.151 51.5767 191.269 51.6022C193.494 51.8673 200.718 52.1443 202.894 51.2528C203.006 51.1993 203.096 51.1121 203.152 51.0045C203.207 50.8968 203.225 50.7745 203.203 50.656C203.18 50.5376 203.119 50.4295 203.027 50.348C202.935 50.2666 202.819 50.2163 202.695 50.2047C199.811 50.036 195.185 50.9275 191.356 50.6504ZM177.156 73.9267C187.65 73.7821 199.537 73.0713 210.131 72.1315C210.79 72.1315 210.728 70.9268 210.044 70.9268C199.624 71.1798 187.451 71.8424 177.094 72.8785C176.95 72.8865 176.816 72.9494 176.721 73.0533C176.625 73.1572 176.576 73.2937 176.584 73.4327C176.592 73.5717 176.657 73.7018 176.765 73.7945C176.872 73.8871 177.013 73.9346 177.156 73.9267ZM192.201 20.266C195.123 20.0492 198.045 19.8805 200.905 19.5432C201.725 19.4588 201.514 18.3384 200.706 18.3384C197.796 18.5552 194.887 18.9167 192.002 19.242C191.331 19.3143 191.517 20.3142 192.201 20.266ZM175.142 45.3976C174.52 45.3976 174.495 46.4217 175.142 46.4699C182.171 46.7871 189.215 46.31 196.13 45.0482C196.914 44.9157 196.789 43.7109 195.993 43.8435C189.107 44.9814 182.127 45.5016 175.142 45.3976ZM198.281 26.0369C199.363 26.2899 199.525 24.5791 198.53 24.7478C193.677 25.5101 188.758 25.8047 183.846 25.6273C183.187 25.6273 183.037 26.5549 183.709 26.6272C188.571 27.1001 193.477 26.9014 198.281 26.0369ZM171.349 73.3604C170.38 72.999 165.903 73.6014 164.648 73.7339C164.038 73.7339 164.013 74.6857 164.648 74.6736L169.733 74.517C172.083 74.4327 172.071 73.6375 171.349 73.3604ZM176.485 125.491C175.44 125.25 168.017 125.792 166.799 125.864C166.152 125.864 166.276 126.828 166.923 126.816C168.241 126.816 175.465 126.816 176.609 126.467C177.119 126.298 176.945 125.587 176.485 125.491ZM166.786 120.395C170.28 120.551 178.934 120.696 182.428 119.889C182.51 119.888 182.59 119.871 182.665 119.838C182.739 119.806 182.806 119.758 182.86 119.699C182.914 119.64 182.955 119.571 182.98 119.496C183.005 119.42 183.013 119.341 183.005 119.262C182.996 119.183 182.97 119.107 182.929 119.039C182.888 118.97 182.833 118.911 182.767 118.865C182.701 118.818 182.626 118.785 182.546 118.769C182.466 118.752 182.384 118.752 182.304 118.768C177.193 118.768 172.456 119.6 166.935 119.383C166.276 119.359 166.102 120.359 166.786 120.395ZM178.847 98.9739C179.593 98.8414 179.531 97.7691 178.748 97.7691C173.227 98.3113 172.071 98.4438 166.413 98.6607C165.866 98.6607 165.804 99.5763 166.413 99.6124C170.569 99.8798 174.743 99.6654 178.847 98.9739ZM186.506 91.3959C179.742 91.6368 172.717 92.7452 165.655 92.9862C165.529 93.005 165.413 93.067 165.33 93.1609C165.247 93.2548 165.201 93.3745 165.201 93.4982C165.201 93.6219 165.247 93.7416 165.33 93.8355C165.413 93.9295 165.529 93.9914 165.655 94.0102C171.511 94.0102 180.936 93.7452 186.643 92.5163C186.762 92.4652 186.861 92.3785 186.926 92.2689C186.99 92.1593 187.017 92.0325 187.002 91.9072C186.986 91.7819 186.93 91.6646 186.841 91.5726C186.752 91.4806 186.634 91.4186 186.506 91.3959ZM209.546 122.539C209.447 122.539 202.621 123.081 201.452 123.045C201.341 123.065 201.24 123.118 201.163 123.197C201.086 123.277 201.038 123.378 201.025 123.487C201.013 123.595 201.036 123.704 201.093 123.799C201.15 123.893 201.236 123.967 201.34 124.009C202.733 124.262 208.601 124.358 209.807 123.371C209.868 123.306 209.911 123.227 209.93 123.141C209.95 123.056 209.947 122.967 209.92 122.883C209.894 122.799 209.846 122.724 209.78 122.663C209.715 122.603 209.634 122.56 209.546 122.539ZM211.747 96.2632C203.13 96.8053 193.507 97.1186 184.927 97.8294C184.256 97.8294 184.38 98.8052 185.027 98.8414C189.665 98.9739 206.164 98.1547 211.859 97.4559C211.94 97.4499 212.02 97.4281 212.092 97.3919C212.164 97.3558 212.229 97.3059 212.281 97.2452C212.333 97.1845 212.372 97.1143 212.396 97.0388C212.419 96.9632 212.427 96.8838 212.419 96.8053C212.403 96.6475 212.323 96.5021 212.198 96.4006C212.072 96.2991 211.91 96.2497 211.747 96.2632ZM179.382 68.8666C179.547 68.8666 179.705 68.8031 179.821 68.6902C179.938 68.5772 180.003 68.424 180.003 68.2642C180.003 68.1045 179.938 67.9512 179.821 67.8383C179.705 67.7253 179.547 67.6618 179.382 67.6618C174.023 67.7944 168.614 67.8305 163.218 68.2281C163.102 68.253 162.998 68.3156 162.924 68.4054C162.849 68.4952 162.809 68.6069 162.809 68.722C162.809 68.8372 162.849 68.9489 162.924 69.0387C162.998 69.1285 163.102 69.191 163.218 69.216C168.639 69.3124 174.023 69.0353 179.382 68.8666ZM200.582 117.503C198.692 117.503 191.878 117.973 190.261 118.25C189.739 118.335 189.665 119.166 190.261 119.19C192.015 119.274 198.791 118.853 200.756 118.684C201.514 118.708 201.352 117.503 200.582 117.503ZM196.951 124.262L181.321 125.226C180.613 125.226 180.787 126.274 181.483 126.238C184.517 126.105 194.278 125.732 197.013 125.37C197.622 125.298 197.635 124.262 196.951 124.262ZM185.76 19.5432C181.172 19.0372 166.774 19.8805 161.887 20.3624C161.216 20.4226 161.166 21.4347 161.887 21.3744C169.92 20.8684 177.74 20.6997 185.773 20.7238C185.913 20.6948 186.039 20.6197 186.128 20.5112C186.218 20.4027 186.266 20.2675 186.265 20.1286C186.263 19.9896 186.212 19.8554 186.12 19.7487C186.028 19.642 185.901 19.5694 185.76 19.5432ZM187.091 52.06C187.874 51.9516 187.588 50.8552 186.805 50.8552C178.802 51.7387 170.75 52.1411 162.695 52.06C162.579 52.0781 162.472 52.1359 162.396 52.2231C162.319 52.3104 162.277 52.4212 162.277 52.5359C162.277 52.6505 162.319 52.7614 162.396 52.8486C162.472 52.9359 162.579 52.9937 162.695 53.0118C170.84 53.3919 179.004 53.0734 187.091 52.06ZM178.648 26.832C178.73 26.8245 178.809 26.8014 178.882 26.7639C178.954 26.7264 179.019 26.6754 179.071 26.6138C179.123 26.5522 179.162 26.4812 179.185 26.4049C179.209 26.3286 179.216 26.2486 179.208 26.1694C179.2 26.0902 179.176 26.0132 179.137 25.9429C179.099 25.8727 179.046 25.8106 178.982 25.7601C178.919 25.7097 178.846 25.672 178.767 25.6492C178.688 25.6264 178.606 25.619 178.524 25.6273C173.04 26.2899 167.843 26.314 162.434 26.7718C161.862 26.832 161.8 27.7356 162.434 27.7597C167.855 27.8446 173.275 27.5345 178.648 26.832ZM163.243 45.9036C162.621 45.9036 162.608 46.8554 163.317 46.8795C165.549 47.0831 167.792 47.1395 170.031 47.0481C170.132 47.0045 170.218 46.9335 170.278 46.8437C170.338 46.7539 170.37 46.6492 170.37 46.5421C170.37 46.4351 170.338 46.3304 170.278 46.2406C170.218 46.1508 170.132 46.0798 170.031 46.0361C169.808 45.9157 164.387 45.9036 163.243 45.9036ZM147.725 52.8431C148.446 52.8431 151.12 48.5541 152.624 47.0843C153.171 46.5542 152.276 45.6627 151.716 46.1687C150.13 47.5543 148.757 49.1528 147.638 50.9155L144.492 48.1084C143.846 47.5301 143.013 48.518 143.609 49.1083C144.206 49.6987 146.805 52.8431 147.725 52.8431ZM139.22 33.1692C144.318 33.4583 149.615 33.3619 155.21 33.3981C155.608 33.3981 155.844 32.3258 155.21 19.5311C155.21 18.6034 155.123 17.9167 155.111 17.6637C155.114 17.6264 155.109 17.5889 155.096 17.5536C155.083 17.5183 155.063 17.486 155.036 17.4589C154.676 17.0854 152.326 17.1095 147.041 17.242C138.151 17.4469 137.169 17.3866 137.169 17.8806C137.131 17.977 137.691 33.0246 139.22 33.1692ZM139.568 32.2776C138.947 29.0609 138.499 22.266 138.114 18.4589C141.732 18.6637 149.976 18.2661 154.129 18.1697C154.129 18.1697 154.352 28.8802 154.452 32.3379C149.578 32.2294 144.492 32.0487 139.519 32.2174L139.568 32.2776Z" fill="black"/>
<path d="M156.925 55.9884C157.97 55.5908 156.751 44.3623 156.577 41.4106C156.569 41.3499 156.538 41.2943 156.49 41.254C155.744 40.6275 139.965 41.4588 139.17 41.5191C138.374 41.5793 139.17 45.7719 139.306 48.6272C139.592 55.7354 139.928 56.3498 140.301 56.398C143.012 56.7715 154.438 56.9281 156.925 55.9884ZM139.928 42.507C145.312 42.1696 150.77 42.1456 155.62 42.1215C155.744 44.9406 155.943 52.8801 156.192 55.0246C151.124 55.5324 146.024 55.6734 140.935 55.4463C141.147 53.6511 140.115 44.5431 139.928 42.507ZM150.049 72.9275L152.934 70.3975C153.018 70.2598 153.055 70.0998 153.04 69.9405C153.024 69.7812 152.957 69.6306 152.848 69.5103C152.739 69.3901 152.594 69.3063 152.433 69.2709C152.272 69.2355 152.103 69.2503 151.952 69.3132C150.77 70.0181 149.699 70.8821 148.769 71.8794L146.182 69.5662C146.042 69.44 145.856 69.3729 145.665 69.3797C145.474 69.3865 145.293 69.4666 145.163 69.6024C145.032 69.7382 144.963 69.9185 144.97 70.1038C144.977 70.2891 145.06 70.4641 145.2 70.5903L147.687 72.9998C145.449 75.2889 144.466 76.7226 144.69 77.3731C144.914 78.0237 145.722 77.7346 145.934 77.4454C146.804 76.4093 147.786 75.2287 148.843 74.1323C149.891 75.2407 151.053 76.2419 152.312 77.1202C152.442 77.1528 152.579 77.1509 152.708 77.1146C152.836 77.0784 152.953 77.0091 153.044 76.9141C153.136 76.8192 153.2 76.702 153.228 76.575C153.257 76.448 153.25 76.3158 153.207 76.1925C152.271 75.0034 151.213 73.9095 150.049 72.9275ZM150.708 21.2789C148.722 22.9619 147.099 25.0092 145.934 27.3027C144.997 26.2163 143.919 25.2525 142.726 24.4354C141.992 23.9414 141.047 24.8811 141.768 25.4112C143.187 26.6259 144.512 27.9385 145.735 29.3388C146.058 29.6641 146.369 29.4954 146.642 29.146C147.996 26.5899 149.667 24.203 151.616 22.0379C152.213 21.3993 151.355 20.6885 150.708 21.2789ZM150.31 99.9386C150.957 99.5048 153.419 94.9026 154.849 93.3364C155.408 92.734 154.438 91.9027 153.804 92.5413C152.102 94.2404 150.643 96.153 149.465 98.2278L146.568 95.8182C145.934 95.3002 145.088 96.2279 145.747 96.8423C146.406 97.4567 149.241 100.83 150.31 99.9386ZM159.797 115.384C159.325 114.48 142.315 115.384 142.154 115.384C142.117 115.388 142.081 115.402 142.051 115.423C142.02 115.444 141.996 115.472 141.98 115.504C141.408 116.396 141.98 130.889 142.39 132.239C142.875 133.877 159.362 132.516 160.183 132.588C160.208 132.593 160.233 132.593 160.258 132.588C160.283 132.583 160.306 132.572 160.326 132.557C160.346 132.542 160.363 132.523 160.375 132.502C160.386 132.48 160.393 132.456 160.394 132.431C160.655 130.588 159.86 115.504 159.797 115.384ZM142.95 116.263C147.923 116.468 153.804 116.167 158.852 116.155C158.927 118.167 159.375 129.974 159.437 131.564C153.916 131.805 149.278 131.72 143.397 131.564C143.459 129.552 143.024 118.095 142.95 116.299V116.263Z" fill="black"/>
<path d="M148.957 124.07C149.84 124.07 154.353 124.371 154.714 124.179C154.809 124.126 154.89 124.053 154.951 123.966C155.012 123.878 155.052 123.777 155.066 123.672C155.081 123.567 155.07 123.461 155.035 123.36C154.999 123.26 154.941 123.169 154.863 123.094C154.204 122.42 150.039 122.564 149.342 122.697C148.397 122.866 148.223 123.215 148.248 123.48C148.281 123.641 148.369 123.786 148.498 123.893C148.626 124 148.788 124.063 148.957 124.07ZM150.636 88.7102C146.557 88.7824 142.268 88.927 141.559 88.9752C141.285 88.9752 140.999 89.2041 140.962 91.71C140.962 94.7099 141.497 104.216 142.74 104.3C145.227 104.481 158.083 104.529 159.737 104.408C159.998 104.408 160.21 104.408 159.737 98.1435C159.476 94.9147 158.892 89.0475 158.892 89.0475C158.842 88.8065 158.817 88.5897 150.636 88.7102ZM157.959 89.7704C158.258 94.2642 158.419 98.8664 158.917 103.384H143.101C142.616 99.0351 142.292 94.5533 141.944 89.9511L157.959 89.7704ZM144.493 81.9273C149.541 81.9273 157.984 81.2647 158.059 81.2285C158.854 80.8309 158.059 69.9518 157.797 65.3014C157.797 64.4701 153.408 64.4581 149.765 64.5906C148.174 64.5906 140.266 65.0002 140.291 66.0966C140.713 82.2285 140.614 81.4454 140.925 81.614C142.088 81.9082 143.294 82.014 144.493 81.9273ZM141.87 80.7225C141.584 75.9757 141.484 70.9397 141.285 66.2652C146.448 65.8209 151.633 65.652 156.815 65.7592C156.815 67.4098 157.151 78.3853 157.362 80.2165C155.522 80.337 143.797 80.4213 141.907 80.7346L141.87 80.7225Z" fill="black"/>
<path d="M235.26 99.7571C232.002 13.8929 233.37 14.6158 232.773 14.1098C231.928 13.3387 225.4 13.8447 223.796 13.929L223.125 0.760866C223.157 0.681446 223.168 0.595714 223.159 0.510943C223.149 0.426173 223.119 0.344866 223.07 0.273922C223.021 0.202977 222.956 0.144489 222.878 0.103418C222.801 0.0623474 222.715 0.0399067 222.627 0.0380008C196.516 -0.27524 169.646 1.3994 142.702 3.17041C135.441 3.66437 127.893 4.09809 120.508 4.8571C120.439 4.84634 120.368 4.85058 120.301 4.8695C120.234 4.88842 120.172 4.92156 120.119 4.96651C120.067 5.01146 120.026 5.06711 119.998 5.12945C119.971 5.19178 119.958 5.25924 119.961 5.32696C121.328 37.4944 125.307 89.4925 132.183 147.069C132.258 147.731 137.928 147.153 143.025 146.828C143.092 148.245 143.356 149.647 143.809 150.996C144.555 151.912 236.789 146.37 236.677 142.563C236.28 128.262 235.745 113.781 235.26 99.7571ZM228.272 137.322C195.571 142.141 166.165 143.49 133.327 146.237C126.824 91.649 124.151 54.2046 120.893 5.70044C130.989 5.12215 168.328 1.79697 222.267 1.11025C223.609 36.133 228.608 133.467 228.235 137.322H228.272ZM72.1896 54.4938C71.3441 54.4938 71.3565 56.0841 71.7544 56.6865C71.8004 56.7747 71.8719 56.8479 71.9603 56.8971C72.0487 56.9464 72.15 56.9695 72.2518 56.9636C73.0102 56.8792 72.9729 54.5781 72.1896 54.4938ZM67.7507 61.4574C68.2854 61.5899 69.7277 61.6742 70.0634 61.1923C70.5359 60.5177 69.2552 54.3974 69.0936 53.9637C69.0603 53.8752 68.9957 53.801 68.9112 53.7543C68.8268 53.7077 68.728 53.6916 68.6324 53.709C68.5369 53.7263 68.4508 53.776 68.3895 53.8491C68.3282 53.9223 68.2957 54.0141 68.2978 54.1083C68.2978 55.2046 68.8076 58.9274 69.0065 60.4815L67.7631 60.5538C67.6722 60.5913 67.5946 60.6536 67.5395 60.7331C67.4845 60.8126 67.4545 60.9059 67.4532 61.0017C67.4519 61.0974 67.4793 61.1914 67.5321 61.2723C67.5849 61.3532 67.6609 61.4175 67.7507 61.4574ZM71.1327 52.2409C71.5008 52.1432 71.8878 52.1338 72.2604 52.2136C72.6331 52.2934 72.98 52.4599 73.2714 52.6987C73.7563 53.1203 74.6888 52.3131 73.3584 51.4939C72.401 50.8674 70.1629 50.6506 70.3991 51.759C70.4377 51.9133 70.5342 52.0482 70.6698 52.1373C70.8055 52.2264 70.9705 52.2633 71.1327 52.2409Z" fill="black"/>
<path d="M107.588 96.0335C99.5932 88.3952 85.2072 79.4197 72.276 77.6366C72.4901 76.9205 72.4901 76.1601 72.276 75.4439C73.2603 74.6467 74.1752 73.7723 75.0114 72.8296C76.7895 70.8055 76.7522 68.8297 74.2157 69.8297C76.7024 64.5046 76.7024 52.9629 75.8072 46.4812C79.9725 48.9991 86.9977 46.5775 86.1398 41.6621C91.7972 43.3126 95.4776 32.4214 88.2908 30.4577C89.298 22.217 78.4059 21.0243 75.0736 25.8313C73.1961 20.5183 64.567 23.3134 65.1887 27.4819C61.2969 23.4338 52.8915 24.8434 51.7228 29.8914C48.204 26.7952 42.3973 28.1084 42.9071 32.6745C37.3368 30.1685 34.3899 36.6261 38.7169 38.6983C35.9442 40.1441 36.0312 46.0956 40.2836 46.0956C40.2836 50.0714 42.7704 59.1795 48.9251 64.1672C49.5841 69.7454 48.4029 72.6007 46.3513 77.7691C26.0592 80.757 10.6536 96.0938 3.7404 115.117C-4.14268 136.803 -0.400084 157.284 22.9632 161.597C22.9146 164.491 22.5646 167.373 21.9187 170.199C21.9071 170.306 21.9355 170.413 21.9988 170.501C22.062 170.589 22.1559 170.652 22.2632 170.678C22.3705 170.705 22.4839 170.693 22.5828 170.645C22.6817 170.596 22.7594 170.515 22.8015 170.416C23.6339 167.61 24.0853 164.71 24.1444 161.79C29.7729 162.601 35.523 161.75 40.6458 159.35C45.7687 156.95 50.0271 153.111 52.8667 148.333C56.466 149.658 60.1399 150.784 63.8707 151.706C75.6083 154.923 90.9144 158.116 105.412 154.308C105.126 161.043 104.728 166.441 104.107 171.802C104.107 172.332 104.865 172.488 104.952 171.958C105.437 169.139 106.643 156.766 106.569 153.983C115.795 151.236 121.962 145.032 123.479 136.972C126.127 123.31 120.159 107.973 107.588 96.0335ZM54.7815 44.1439C55.1048 47.6618 54.7815 50.1678 53.6749 51.7942C53.2646 52.3846 52.6429 52.999 52.1082 52.999C51.6979 52.5653 49.0122 49.8666 46.4757 51.4448C44.822 52.493 44.7474 54.5291 46.314 57.1796C47.4338 58.7894 48.2348 60.587 48.6765 62.4806C43.9143 57.4687 42.4595 52.7701 41.3653 46.0354C42.6293 45.8145 43.7829 45.1963 44.6479 44.2764C46.8238 47.4088 52.1455 46.7824 54.7815 44.1439ZM47.0725 52.24C48.7511 51.24 50.3053 52.4448 51.7228 53.6496C52.5558 54.3604 53.9236 53.3604 54.5701 52.4448C56.2611 50.1798 56.1119 46.4209 55.8881 44.5415C57.095 45.6552 58.6977 46.2763 60.3643 46.2763C62.0309 46.2763 63.6337 45.6552 64.8405 44.5415C65.0892 48.0112 72.5993 48.8064 74.5762 45.927C75.4839 51.9508 75.9191 64.9744 72.9101 70.4321C70.4233 71.4923 64.7659 73.9139 61.9558 72.8416C59.5437 71.9139 58.3252 68.3478 55.5151 66.8177C53.6251 65.8057 52.0087 66.9503 53.3267 68.9984C56.659 74.1307 56.3606 76.0825 53.7246 81.3594C51.4143 80.7493 49.2538 79.6965 47.3709 78.2631C50.1064 74.4681 50.8524 67.6972 50.1685 63.1914C49.5593 59.1795 48.9251 59.4204 47.2839 56.4567C46.5254 55.2399 45.854 52.9869 47.0725 52.24ZM68.0485 76.5403C67.9493 76.5848 67.8704 76.6631 67.8266 76.7601C67.7828 76.8572 67.7773 76.9665 67.8109 77.0672C67.8446 77.168 67.9151 77.2534 68.0093 77.3072C68.1034 77.3611 68.2147 77.3797 68.322 77.3595C69.3882 77.1749 70.3989 76.7634 71.2813 76.1547C71.3529 77.2782 71.0475 78.3939 70.4109 79.3354C70.1871 79.6365 70.585 80.5401 71.3932 79.4197C71.331 82.7449 69.5778 86.8531 66.2082 88.4675C63.9245 88.0675 61.7511 87.2133 59.8251 85.9588C57.8991 84.7043 56.2622 83.0767 55.0177 81.1787C58.7479 74.9861 55.4654 70.3357 54.3712 68.4081C53.7619 67.2997 54.0728 67.131 55.0675 67.7575C57.4175 69.2032 59.4815 73.2392 61.7569 73.7813C66.0466 74.7813 71.331 72.2754 73.9172 71.1549C75.2601 70.5646 76.0434 70.167 74.427 72.1308C72.2635 74.7211 71.0326 75.2632 68.0485 76.5403ZM15.4283 127.96C15.3833 128.058 15.3762 128.168 15.4084 128.271C15.4407 128.374 15.5099 128.461 15.6036 128.519C15.6973 128.576 15.8091 128.598 15.9185 128.582C16.0278 128.566 16.1275 128.512 16.1992 128.43C27.1037 111.78 45.1452 100.226 54.4333 82.4075C55.8757 85.5158 62.0429 89.5157 65.8477 89.5157C65.8477 92.5156 65.5368 96.0817 65.2135 99.5033C61.4834 98.672 51.3995 95.6118 49.5841 91.612C49.3728 91.118 48.5521 91.4554 48.7511 91.9493C50.4545 96.419 60.9736 100.009 65.1016 100.768C64.2297 109.77 62.5023 118.675 59.9416 127.37C58.064 133.875 55.6519 141.743 52.1704 147.562C49.3948 152.346 45.1479 156.172 40.0217 158.506C34.8954 160.841 29.1452 161.568 23.5724 160.585C0.619497 156.682 -2.83712 136.622 4.95892 115.43C12.2452 95.5757 28.1979 81.6003 46.6 78.9498C48.6004 80.379 50.787 81.5457 53.1029 82.4196C43.7775 99.8526 25.9971 111.298 15.4283 127.96ZM61.0109 127.876C73.0931 122.942 85.9303 119.967 99.0088 119.069C102.739 118.828 106.469 118.84 110.199 118.84C110.746 118.84 110.759 117.972 110.199 117.972C107.663 117.802 105.119 117.758 102.577 117.84C101.968 113.021 93.0033 98.9611 89.957 95.0697C89.879 94.9983 89.7771 94.9564 89.6699 94.9516C89.5627 94.9469 89.4573 94.9796 89.3729 95.0438C89.2885 95.1081 89.2308 95.1996 89.2102 95.3016C89.1896 95.4037 89.2075 95.5095 89.2607 95.5998C95.3657 103.889 100.302 114.442 101.284 117.888C90.3548 118.286 73.4945 120.792 61.359 126.55C62.5029 122.49 66.9294 105.744 67.0289 89.2025C70.4482 87.7206 72.8852 82.3593 72.5993 78.7571C85.4912 81.6019 97.3154 87.8579 106.755 96.8287C117.834 107.346 124.623 120.924 122.534 135.683C121.427 144.116 115.247 150.646 106.022 153.019C90.1186 157.236 73.7556 153.574 58.0516 148.851C56.5314 148.355 54.9828 147.945 53.4138 147.622C56.5916 141.29 59.1356 134.678 61.0109 127.876Z" fill="black"/>
<path d="M60.4016 50.3131C60.723 49.853 61.1515 49.4725 61.6526 49.2026C62.1537 48.9326 62.7133 48.7806 63.2863 48.7589C64.1939 48.7589 64.1442 47.4337 63.2863 47.5541C62.5477 47.6294 61.8367 47.8671 61.2075 48.2492C60.5782 48.6313 60.0474 49.1477 59.6556 49.7589C59.3323 50.2528 60.0535 50.795 60.4016 50.3131ZM63.336 53.6503C62.8262 54.0479 62.8635 56.0598 63.6344 56.0598C63.8107 56.042 63.9756 55.9668 64.1021 55.8464C64.2286 55.7261 64.3092 55.5677 64.3307 55.3972C64.6167 54.349 63.8831 53.2768 63.336 53.6503ZM62.2418 63.6017C62.2186 63.5075 62.1659 63.4226 62.0909 63.3585C62.0159 63.2945 61.9224 63.2544 61.823 63.2439C61.7237 63.2333 61.6234 63.2528 61.5358 63.2996C61.4483 63.3464 61.3779 63.4182 61.3342 63.5053C61.2098 63.674 60.9736 64.1921 61.4958 65.2402C61.8503 65.9538 62.4621 66.5168 63.2158 66.8232C63.9695 67.1295 64.8128 67.1578 65.5865 66.9028C65.6913 66.8625 65.7772 66.7863 65.8278 66.6887C65.8785 66.591 65.8903 66.4788 65.8612 66.3733C65.832 66.2677 65.7639 66.1762 65.6697 66.1162C65.5755 66.0561 65.4619 66.0316 65.3503 66.0474C63.5847 66.3847 62.5651 65.3005 62.2418 63.6017Z" fill="black"/>
</svg>
