<svg width="222" height="173" viewBox="0 0 222 173" fill="none" xmlns="http://www.w3.org/2000/svg">
<path fill-rule="evenodd" clip-rule="evenodd" d="M61.1948 26.1935V26.9958C61.1948 27.2205 61.287 27.4361 61.451 27.595C61.615 27.7539 61.8374 27.8432 62.0694 27.8432C62.3014 27.8432 62.5238 27.7539 62.6878 27.595C62.8518 27.4361 62.944 27.2205 62.944 26.9958V26.1483C62.932 25.9255 62.8322 25.7157 62.6651 25.5622C62.4979 25.4087 62.2764 25.3232 62.0461 25.3235C61.9307 25.3249 61.8169 25.3488 61.7112 25.3935C61.6055 25.4383 61.5102 25.5032 61.4308 25.5843C61.3514 25.6654 61.2897 25.7611 61.2491 25.8658C61.2086 25.9704 61.1901 26.0819 61.1948 26.1935ZM60.8566 23.8321C62.1394 23.5383 63.1889 22.7022 61.3231 22.8152C60.8609 22.8776 60.4047 22.9759 59.9588 23.1089C58.2096 23.8095 59.7255 24.0919 60.8566 23.8321ZM167.847 31.6961C167.31 32.7885 166.411 33.6755 165.293 34.2158C165.25 34.2307 165.213 34.2598 165.19 34.2981C165.166 34.3364 165.157 34.3814 165.164 34.4255C165.171 34.4696 165.193 34.51 165.227 34.5397C165.262 34.5695 165.305 34.5868 165.351 34.5886C165.729 34.653 166.117 34.6263 166.481 34.5109C166.845 34.3954 167.175 34.1947 167.44 33.9266C167.705 33.6586 167.898 33.3313 168.001 32.9738C168.105 32.6163 168.116 32.2395 168.033 31.8769C168.033 31.8289 168.014 31.783 167.979 31.7491C167.944 31.7152 167.896 31.6961 167.847 31.6961ZM163.206 22.7361C162.982 22.6805 162.744 22.712 162.544 22.8239C162.343 22.9358 162.196 23.1192 162.133 23.3349C162.027 23.7027 162.007 24.0886 162.075 24.4648C162.075 24.6896 162.167 24.9051 162.331 25.064C162.495 25.2229 162.717 25.3122 162.949 25.3122C163.181 25.3122 163.404 25.2229 163.568 25.064C163.732 24.9051 163.824 24.6896 163.824 24.4648C163.824 23.6513 164.01 22.9507 163.206 22.7361ZM123.103 133.748C122.159 133.285 104.096 134.426 103.641 136.392C103.548 136.821 103.839 138.471 104.352 138.742C105.367 139.262 122.742 138.313 123.698 136.482C123.97 136.037 124.06 135.509 123.95 135.003C123.84 134.497 123.538 134.049 123.103 133.748ZM104.574 138.268C104.214 137.72 104.02 137.086 104.014 136.437C104.247 135.42 113.868 134.867 114.929 134.799C114.904 135.712 115.146 136.613 115.629 137.397C114.299 137.601 105.204 138.595 104.574 138.301V138.268ZM122.847 136.008C121.926 136.64 117.25 137.217 116.13 137.352C116.228 136.458 116.032 135.556 115.57 134.776C116.958 134.686 121.401 134.448 122.719 134.561C123.068 134.81 123.08 135.578 122.847 136.03V136.008ZM92.4581 136.426C92.4266 136.407 92.3903 136.397 92.3532 136.397C92.3161 136.397 92.2797 136.407 92.2482 136.426C92.2482 136.313 69.9756 148.47 69.2993 149.758C69.2691 149.82 69.2535 149.888 69.2535 149.956C69.2535 150.025 69.2691 150.092 69.2993 150.154C70.0106 152.131 93.2511 172.492 94.2189 172.955C94.4988 173.091 94.8486 172.853 95.9448 172.289C98.277 171.08 118.182 160.775 120.235 159.114C120.806 158.549 121.156 153.465 120.841 152.888C120.526 152.312 92.4581 136.539 92.4581 136.426ZM94.4755 172.017C91.9917 170.108 72.3195 152.933 70.1389 150.018C72.1679 148.165 91.7934 137.149 92.3882 136.81C95.3967 138.584 117.051 151.352 119.827 153.159C118.36 153.57 116.965 154.191 115.687 155.001C115.022 155.623 116.678 156.775 118.975 158.933C115.465 161.125 98.0554 170.164 94.4755 172.017ZM119.64 158.289C119.523 158.176 116.713 155.521 116.585 155.419C117.718 154.734 118.885 154.104 120.083 153.532C120.087 155.129 119.931 156.722 119.617 158.289H119.64Z" fill="black"/>
<path fill-rule="evenodd" clip-rule="evenodd" d="M109.951 156.211C109.135 156.55 99.1765 159.748 96.3662 160.855C95.5402 161.254 94.6401 161.488 93.7191 161.544C93.5559 161.544 94.5004 159.782 101.649 154.381C102.395 153.816 103.829 152.742 103.981 151.861C104.669 148.946 96.5178 153.307 89.2296 156.064C88.4759 156.456 87.6534 156.709 86.8041 156.81C86.7225 156.347 88.3667 154.889 88.4716 154.776C92.8212 150.121 98.3369 148.2 97.9637 146.483C97.3923 143.794 87.2705 149.025 85.1366 149.872C83.3408 150.607 80.4721 151.488 80.6471 151.488C80.2622 151.635 80.6471 151.895 80.717 151.861C80.787 151.827 84.4836 150.731 85.3815 150.347C86.7225 149.85 95.6898 145.658 97.1824 146.641C97.7772 147.048 91.4335 150.358 87.8536 154.189C87.2239 154.844 85.5214 156.177 86.0461 157.262C86.1424 157.429 86.2882 157.565 86.4649 157.652C86.6416 157.739 86.8409 157.772 87.0373 157.748C88.7748 157.748 100.622 151.997 103.06 151.816C102.5 152.531 101.832 153.16 101.077 153.68C99.3397 155.013 94.3022 158.991 93.1361 160.821C92.5297 161.77 93.0311 162.335 93.8241 162.346C94.8736 162.346 96.1563 161.657 99.3164 160.505C110.033 156.505 110.371 156.686 110.196 156.313C110.187 156.29 110.174 156.27 110.156 156.253C110.139 156.235 110.119 156.222 110.096 156.212C110.073 156.203 110.048 156.198 110.024 156.197C109.999 156.197 109.974 156.202 109.951 156.211Z" fill="black"/>
<path fill-rule="evenodd" clip-rule="evenodd" d="M221.581 113.129C221.429 101.31 220.333 77.1869 217.919 65.4925C216.648 59.2894 213.896 50.8039 208.777 46.7024C206.608 44.9737 203.413 43.3127 197.617 40.2055C197.687 40.0586 188.463 36.443 188.032 37.6407C187.673 35.5799 187.171 33.5452 186.527 31.5506C187.39 31.2794 187.005 28.8388 187.367 27.4603C187.728 26.0819 189.093 25.0989 189.792 23.969C191.367 21.4493 191.635 17.054 191.343 14.1276C191.064 11.4046 186.959 5.32576 184.253 4.33146C181.548 3.33715 178.773 3.37105 175.916 2.8174C173.584 2.35415 171.858 1.09997 169.246 0.783598C166.634 0.467229 165.071 1.91349 162.832 1.91349C160.593 1.91349 158.074 0.229951 155.73 0.0943637C154.457 0.0752204 153.22 0.504473 152.248 1.30242C151.277 2.10037 150.637 3.21279 150.448 4.43315C150.165 6.2521 150.388 8.11124 151.093 9.81916C151.798 11.5271 152.96 13.0221 154.459 14.1502C156.285 15.2694 158.337 15.9975 160.477 16.2857C160.337 22.0595 160.966 20.5115 160.267 21.02C159.567 21.5284 159.789 25.0876 160.033 26.0706C160.138 26.466 160.243 26.6129 160.745 26.7711C160.465 27.901 158.494 30.3416 160.267 30.9404C160.5 31.0195 161.433 31.1777 161.526 31.2116C161.765 32.2831 162.117 33.3281 162.576 34.3301C163.028 35.3375 163.689 36.2443 164.517 36.9945C165.345 37.7446 166.324 38.3222 167.392 38.6915C169.071 39.3242 170.4 39.4937 171.38 39.8214C171.515 40.2886 171.585 40.7711 171.59 41.2563C167.425 42.3169 163.502 44.1217 160.022 46.5781C153.713 51.5383 144.746 72.1137 142.402 74.3735C141.492 75.2435 120.071 79.2659 116.911 81.3449C116.293 81.7516 116.269 82.1019 116.351 82.825C115.581 82.9606 112.34 83.5482 111.978 84.2148C111.871 84.6991 111.9 85.2021 112.06 85.6724C109.174 85.1503 106.263 84.7731 103.337 84.5425C102.802 84.5546 102.275 84.6755 101.791 84.8974C101.307 85.1193 100.876 85.4372 100.527 85.8306C99.5475 86.9605 100.34 86.7684 99.3026 86.6102C97.0987 86.3051 89.2041 88.87 88.2129 89.3219C88.2129 88.9152 88.2129 88.6327 87.7698 88.4067C86.4683 88.0413 85.1085 87.9111 83.7584 88.0226C82.9421 88.5536 86.0906 88.3728 87.3967 89.0282C87.3967 89.8982 87.5133 98.8243 87.3967 100.576C87.3967 100.892 87.3967 100.847 87.1518 100.881C85.9857 101.039 84.3065 100.881 83.7934 101.242C83.98 97.3103 83.7934 87.6836 83.2337 87.1186C82.8955 86.7797 76.6685 86.0565 69.8934 85.2656C69.9174 80.516 69.6449 75.7693 69.0771 71.0516C67.8294 60.5662 65.2173 48.2052 57.0546 41.9343C57.5276 42.1214 58.0482 42.1648 58.5472 42.0585C59.2136 41.8023 59.9309 41.6942 60.6462 41.7422C61.8123 42.0472 61.9639 42.8721 64.8791 40.9738C65.0657 40.8496 65.5555 40.8835 65.9403 40.5106C67.258 39.2338 66.5933 37.5051 66.5933 36.217C66.7864 35.3413 66.8493 34.4434 66.7799 33.5505C66.7442 33.4173 66.6771 33.294 66.5841 33.1902C66.491 33.0863 66.3745 33.0046 66.2435 32.9516C66.2435 32.5788 66.6516 31.9121 66.0686 31.189C66.9082 30.7596 67.8177 30.2625 67.3513 29.3812C66.4603 28.0003 65.7253 26.5305 65.159 24.9972C64.7975 23.6865 65.2873 22.0143 65.264 20.6019C65.264 19.6302 65.3689 18.4664 65.264 17.4043C66.1634 16.7958 66.8507 15.9368 67.2347 14.9411C67.3197 14.5387 67.3015 14.1221 67.1815 13.7281C67.0616 13.3341 66.8436 12.9746 66.5467 12.6814C66.1619 12.4441 66.0802 12.6814 66.0919 11.9808C66.1341 11.735 66.1227 11.4833 66.0584 11.242C65.9941 11.0007 65.8784 10.7751 65.7187 10.5798C65.229 10.1165 64.1095 9.60805 63.7597 9.1335C63.165 8.28608 62.8151 7.43866 61.6957 7.09969C60.9027 6.85112 60.1564 7.33697 59.62 7.16749C58.8854 6.94151 58.1274 6.17318 57.2878 6.9867C57.1003 7.08519 56.8946 7.14686 56.6825 7.16819C56.4704 7.18952 56.2561 7.17008 56.0517 7.11099C55.3521 6.53475 55.1771 5.54044 53.9877 5.32576C53.3114 5.21277 51.982 5.52914 51.4689 5.32576C50.6284 4.72626 49.701 4.25034 48.7169 3.9134C47.6167 3.81188 46.5066 3.90374 45.4402 4.18457C44.6938 4.33146 43.7376 4.25237 42.9563 4.36536C41.3355 4.61393 40.869 5.9698 39.7962 6.62514C38.7234 7.28048 36.9159 7.29177 35.8897 8.76063C35.0268 10.0035 35.2134 11.3481 34.8752 12.591C34.7353 13.122 33.989 13.7209 33.7091 14.2632C33.0561 15.5174 33.5575 16.7829 33.5459 17.8676C33.5342 18.9523 32.7529 19.9466 32.9745 21.2572C33.1545 21.9118 33.4504 22.5312 33.8491 23.0877C33.8539 23.2708 33.8303 23.4536 33.7791 23.63C33.4233 24.5192 33.3502 25.4911 33.5692 26.4208C33.76 27.3122 34.2043 28.1341 34.8519 28.7936C35.6682 29.4829 36.088 29.3021 36.6827 30.2851C36.9328 30.8049 37.3089 31.2584 37.7788 31.607C38.6418 32.172 39.7029 31.6861 40.216 31.9347C40.5352 32.0981 40.8833 32.2016 41.2422 32.2398C40.9551 32.3803 40.7071 32.5857 40.5192 32.8386C34.1756 33.6183 25.8029 38.1039 20.6954 44.2392C18.678 46.7589 15.2846 50.3971 14.0136 53.3123C7.18021 68.272 10.5153 91.7286 7.76326 98.9712L0.953199 116.179C0.62669 117.004 -0.212907 121.106 0.0902805 122.518C0.580045 124.62 2.85395 121.987 4.24162 120.496C3.3787 123.467 3.39036 124.247 2.93558 135.941C2.79565 139.602 2.66738 143.591 2.60907 146.946C2.60573 146.97 2.60776 146.995 2.61504 147.018C2.62232 147.041 2.63468 147.063 2.65126 147.081C2.66785 147.099 2.68829 147.114 2.71119 147.124C2.73409 147.134 2.75891 147.139 2.78399 147.138C3.1105 147.138 2.9006 147.5 3.3787 138.167C3.71687 131.602 4.10169 125.478 4.13667 124.981C4.30928 123.05 4.74855 121.15 5.44271 119.332C8.69927 116.974 12.3639 115.199 16.2642 114.089C20.605 112.964 25.1888 113.078 29.4645 114.417C30.6306 114.79 33.7674 115.547 34.8869 115.038C37.2191 113.908 43.2246 110.168 44.2157 107.897C44.7055 106.767 45.102 105.852 45.4868 105.005C47.2709 105.163 49.4632 105.604 51.4106 105.626C53.5912 105.626 54.9906 105.287 57.4044 103.22C66.2785 103.412 76.0621 103.152 80.7265 102.982C83.84 104.112 93.4021 107.423 95.7227 109.649C96.6322 110.507 97.1686 112.903 97.4951 115.569C97.9251 118.757 98.0383 121.976 97.8333 125.185C91.443 126.371 83.3036 128.247 77.0066 129.761C76.654 129.666 76.2855 129.639 75.9222 129.682C74.2546 129.851 75.0359 130.506 74.4879 128.868C74.5141 128.874 74.5415 128.874 74.5675 128.867C74.5936 128.86 74.6175 128.847 74.6371 128.829C74.6567 128.811 74.6715 128.789 74.68 128.764C74.6886 128.74 74.6907 128.713 74.6861 128.687C74.6689 126.516 74.4069 124.352 73.9048 122.236C73.8232 121.919 73.2518 121.761 72.902 121.659C69.1238 120.597 54.5358 119.174 51.329 119.976C49.2417 120.507 34.7936 127.738 34.1406 129.275C33.4876 130.812 31.7151 140.054 31.3886 141.76C23.8322 143.896 17.8734 145.658 14.9581 146.619C14.934 146.626 14.9117 146.639 14.8926 146.655C14.8735 146.671 14.858 146.691 14.8471 146.713C14.8362 146.735 14.83 146.759 14.8291 146.784C14.8281 146.809 14.8324 146.833 14.8415 146.856C14.9815 147.274 18.8063 145.353 57.9875 135.376C58.3812 136.35 58.8857 137.279 59.4917 138.145C58.3256 138.416 57.0079 138.913 56.6231 139.952C56.5547 140.172 56.5434 140.404 56.5902 140.629C56.637 140.854 56.7404 141.064 56.8913 141.24C57.848 142.278 59.1233 142.991 60.5296 143.274C62.9953 143.873 65.5574 144.004 68.0743 143.658C70.4911 143.454 72.8725 142.961 75.1642 142.19C77.6597 141.173 77.4964 139.659 76.5402 138.969C75.5548 138.408 74.4721 138.025 73.3451 137.839C74.4062 135.975 73.415 136.8 75.0009 136.427C75.8984 136.22 76.7182 135.774 77.3681 135.139C78.3943 134.122 79.0823 131.614 78.1028 130.405C83.0238 129.275 102.813 124.529 107.652 124.88C116.433 125.501 180.277 150.935 195.39 155.839C195.413 155.846 195.439 155.849 195.463 155.847C195.488 155.845 195.512 155.838 195.535 155.827C195.557 155.816 195.577 155.801 195.593 155.783C195.609 155.764 195.621 155.743 195.629 155.72C195.636 155.697 195.639 155.673 195.637 155.649C195.635 155.625 195.628 155.601 195.617 155.58C195.606 155.558 195.59 155.539 195.571 155.523C195.552 155.508 195.53 155.496 195.506 155.488C191.553 154.155 182.738 150.754 172.184 146.664C172.697 145.466 174.05 141.602 175.1 140.269C175.531 139.726 175.508 139.681 179.356 139.896C189.443 140.461 198.328 140.201 208.007 137.207C213.919 135.365 216.823 131.117 218.502 125.433C218.84 125.535 219.761 125.829 220.088 125.897C220.181 125.918 220.278 125.918 220.372 125.897C220.465 125.875 220.551 125.833 220.624 125.772C221.779 124.631 221.581 115.355 221.581 113.129ZM62.0805 35.4374C61.7649 35.5488 61.4242 35.5761 61.094 35.5165C60.7637 35.4569 60.4561 35.3125 60.2031 35.0984C59.9514 34.9032 59.7543 34.6498 59.63 34.3616C59.5057 34.0734 59.4582 33.7595 59.4917 33.4488C59.4763 33.4023 59.4805 33.3518 59.5034 33.3084C59.5264 33.2649 59.5662 33.2321 59.6142 33.2171C59.6621 33.2022 59.7142 33.2062 59.7591 33.2285C59.8039 33.2507 59.8378 33.2893 59.8532 33.3358C60.429 34.1382 61.2421 34.7527 62.1854 35.0984C62.2155 35.1225 62.2375 35.1546 62.2488 35.1907C62.2601 35.2269 62.2602 35.2654 62.249 35.3016C62.2378 35.3378 62.2158 35.37 62.1858 35.3941C62.1559 35.4183 62.1192 35.4333 62.0805 35.4374ZM51.1308 25.5395C51.1706 25.2076 51.3082 24.8938 51.5272 24.6356C51.7838 24.387 52.5651 24.5452 53.1131 24.1837C53.523 23.8698 53.8341 23.451 54.011 22.9747C54.6641 21.7205 55.7019 22.6922 57.1479 20.6245C57.5169 20.043 57.8033 19.4159 57.9991 18.7602C58.8154 18.3873 59.8765 18.9297 60.9027 17.2913C61.2409 16.7377 61.4625 16.1614 62.0688 16.0032C62.5236 16.4778 62.9784 18.263 64.8208 17.5738C64.8208 18.1839 64.6809 21.2685 64.6459 21.5171C64.4948 22.2618 64.4128 23.0181 64.401 23.7769C64.401 26.0367 65.4739 27.2796 66.6633 29.641C66.8499 30.0139 65.8703 30.3755 65.3806 30.6353C64.6896 30.3887 63.9747 30.2108 63.2466 30.1043C60.9844 29.5732 59.1769 30.7144 57.2295 31.2342C56.8994 31.2362 56.5703 31.1982 56.25 31.1212C55.5153 31.0534 54.7457 31.7765 53.7078 31.9121C53.4373 31.9636 53.157 31.9351 52.9033 31.8303C52.6496 31.7256 52.4343 31.5494 52.2852 31.3246C52.1594 30.9108 52.0697 30.4874 52.017 30.0591C51.912 29.6523 51.7838 29.2456 51.6905 28.8501C51.5039 28.0366 52.052 27.7202 51.4106 26.5903C50.9675 25.822 50.9792 26.161 51.1308 25.5395ZM51.5739 48.5893C52.3591 47.1455 52.9995 45.6321 53.4863 44.0698C54.1393 48.0018 54.4891 49.9904 54.6524 50.9847C53.8011 50.2955 53.7195 50.0356 51.5739 48.5441V48.5893ZM55.0722 53.188C55.6436 56.5777 55.5153 55.8093 55.6203 56.5099C55.3417 56.0014 55.0011 55.5272 54.6058 55.0975C54.7363 54.3511 54.7948 53.5946 54.7807 52.8377L55.0722 53.188ZM50.8509 55.2218C50.1545 54.5202 49.5188 53.7644 48.9501 52.962C49.5267 51.6555 50.1768 50.3805 50.8975 49.143C53.3464 50.9621 53.1598 50.9395 53.7662 51.6739C53.8552 52.6362 53.8552 53.6042 53.7662 54.5665L50.8509 55.2218ZM51.0025 55.9562C52.3901 58.9504 52.9499 63.8655 53.2414 67.1421C51.7857 63.015 49.8284 59.0703 47.4109 55.3913C47.8837 54.7653 48.3048 54.1041 48.6703 53.414C49.1506 54.2807 49.7252 55.0951 50.3844 55.8432C50.4687 55.8946 50.5636 55.9272 50.6623 55.939C50.7611 55.9507 50.8613 55.9411 50.9558 55.911L51.0025 55.9562ZM44.0758 31.7765C44.1707 31.8051 44.2684 31.824 44.3673 31.833C44.6389 31.8212 44.8992 31.7246 45.1093 31.5576C45.3195 31.3906 45.4683 31.1622 45.5334 30.9065C45.72 30.7935 45.86 30.6692 45.8483 30.4546C45.8366 30.2399 43.3295 26.918 46.5246 25.2119C46.8064 25.1823 47.0896 25.2531 47.3214 25.4111C47.5532 25.5692 47.7177 25.8036 47.784 26.0706C47.9349 26.6733 48.2535 27.2243 48.7053 27.6637C48.7406 28.3859 48.8381 29.104 48.9968 29.8105C49.0901 30.2286 48.7636 30.7709 48.6936 31.3472C48.5303 32.4771 49.6615 33.7199 50.0696 34.7368C50.6177 36.104 50.2445 37.5729 51.5505 38.7819C52.8566 39.9908 52.6117 38.9965 53.0665 41.7083C52.5225 43.8394 51.7729 45.9162 50.8276 47.9114C49.5099 46.1036 42.8397 35.5504 41.4987 33.1437C42.0001 32.8499 43.5627 31.9912 44.0292 31.7313L44.0758 31.7765ZM40.5775 33.2793C41.4287 35.2001 49.9063 48.2164 49.9063 48.3294C49.4982 49.5836 47.1543 54.7811 46.0465 55.3461C43.6094 53.6625 36.9276 35.9571 36.4495 34.3527C37.7651 33.8066 39.149 33.4305 40.5658 33.2341L40.5775 33.2793ZM52.6117 83.164C51.329 82.7686 47.1893 69.1534 43.4928 61.617C41.2772 57.0974 36.9276 49.6288 32.1815 47.6402C27.0507 45.5047 17.5119 50.6231 16.4974 57.2669C15.8779 61.6485 16.2439 66.1081 17.5702 70.3397C23.0742 86.4633 30.5257 99.3215 46.443 103.005C46.8162 102.282 45.4985 102.881 55.9701 103.152C55.4569 103.539 54.9107 103.883 54.3375 104.18C52.3785 105.208 48.6586 104.383 45.9066 104.09L46.2564 103.355C29.861 99.8073 22.188 86.4068 16.6956 70.5883C15.3085 66.2291 14.9107 61.6308 15.5295 57.1087C16.579 49.9226 26.4559 44.7703 31.925 46.5555C33.3194 47.0589 34.5961 47.8272 35.6798 48.8153C35.1598 44.2877 35.0311 39.7259 35.295 35.1775C35.5093 34.9931 35.7395 34.8268 35.983 34.6804C36.9859 38.07 42.6998 54.2727 45.6034 56.0692C45.7875 56.1747 46.0032 56.2165 46.215 56.1877C46.4268 56.159 46.6223 56.0614 46.7695 55.911C49.3933 60.2837 51.8421 64.7581 52.8216 69.4697C53.3757 72.0701 53.5173 74.7372 53.2414 77.379C51.5855 70.7352 47.0027 61.1311 41.7902 56.5325C47.1194 65.4473 51.0025 79.7065 52.74 82.52C53.435 82.7056 54.145 82.8341 54.8623 82.9041C54.5591 76.1248 54.3259 61.9898 51.364 55.8545C51.7255 55.8545 54.2792 55.3235 54.2792 55.3235C54.7398 55.8593 55.1314 56.4474 55.4453 57.0748C55.9234 57.9674 55.7602 57.2895 56.4832 62.035C59.9815 83.9436 59.7833 83.8307 60.238 84.0679C57.9525 83.7855 53.9294 83.5482 52.6117 83.164ZM60.3547 78.6444C55.8068 53.6286 55.7602 52.9281 53.8478 42.4879C53.9994 41.9907 54.116 41.584 54.1976 41.2902C54.9206 42.1828 58.862 47.0753 59.2935 48.1487C58.6521 48.7023 56.3433 49.6514 57.0429 50.4084C57.3578 50.7587 59.9582 52.9394 60.7745 53.7303C61.2176 55.5494 60.5179 75.4808 60.3547 78.6444ZM31.855 141.613C32.1815 140.178 34.3155 130.845 34.9102 129.535C35.3417 128.563 49.4049 121.332 51.6205 120.789C54.8156 119.976 72.214 121.648 73.4267 122.405C73.9742 124.376 74.2949 126.4 74.3829 128.439C72.4239 126.179 57.2645 126.778 57.1012 129.964C57.098 130.069 57.1207 130.173 57.1673 130.267C57.214 130.361 57.2833 130.443 57.3694 130.506C57.3618 131.872 57.5223 133.234 57.8475 134.563C48.8918 136.902 39.9361 139.342 31.855 141.613ZM76.3186 139.851C76.9134 141.715 69.9284 142.517 67.911 142.743C65.5156 143.074 63.0769 142.955 60.7278 142.393C59.7016 142.122 57.8009 141.399 57.4394 140.495C57.2645 140.065 57.8359 139.659 58.2557 139.444C58.7875 139.175 59.3515 138.97 59.9349 138.834C60.5701 139.682 61.422 140.356 62.407 140.788C63.5731 141.286 68.5524 140.935 70.2782 140.574C71.0362 140.416 71.8408 140.201 72.9836 138.427C73.6832 138.529 76.1204 139.229 76.3186 139.851ZM70.7447 139.455C69.8701 139.964 63.6897 140.37 62.7452 139.998C59.62 138.789 57.9175 134.066 57.7892 130.732C60.3297 131.274 62.9371 131.46 65.5322 131.286C67.4796 131.038 72.0857 130.269 73.7765 129.444C74.791 133.15 72.6454 138.382 70.7447 139.455ZM77.2632 133.625C76.9475 134.23 76.5041 134.764 75.9617 135.192C75.4193 135.62 74.79 135.933 74.1147 136.111C74.7248 134.526 75.0138 132.842 74.966 131.151C75.058 130.964 75.1916 130.799 75.3572 130.668C75.5228 130.537 75.7163 130.444 75.9237 130.394C76.1311 130.344 76.3473 130.34 76.5567 130.381C76.7661 130.422 76.9636 130.507 77.1349 130.631C78.0095 131.184 77.6247 132.665 77.2632 133.625ZM197.372 40.5332C205.255 44.7477 208.753 46.5103 211.272 50.2051C209.688 48.8849 207.671 48.1522 205.582 48.1374C198.107 47.8888 194.434 58.6115 192.521 65.549C189.349 77.1191 191.297 91.7625 191.122 93.9093C189.104 95.7284 178.773 100.926 174.155 103.355C174.796 100.734 177.082 90.6213 178.575 86.6328C180.58 81.2771 186.352 68.8031 186.737 66.0913C186.842 65.2891 186.679 65.1874 184.23 63.6508C185.175 63.6508 187.728 63.4022 188.521 63.2553C188.86 63.2553 189.034 63.1084 189.163 62.4192C189.594 60.0238 190.434 40.2846 190.504 38.183C190.422 38.1378 196.369 39.9795 197.407 40.5332H197.372ZM188.381 37.8328C188.912 37.7957 189.446 37.8531 189.956 38.0022C189.373 46.1939 188.79 60.6001 188.242 62.4418C187.623 62.5548 185.431 62.7017 184.58 62.7582C182.761 62.8599 182.714 62.7582 182.528 63.0067C182.341 63.2553 182.598 63.5943 182.936 63.8203C183.53 64.227 185.513 65.436 185.793 65.7524C185.524 67.0976 185.109 68.4118 184.557 69.6731C177.968 86.6215 178.365 81.4127 173.933 99.9994C174.229 91.0959 175.078 82.2177 176.476 73.413C177.408 68.5658 178.54 64.0123 182.306 53.6399C183.787 49.6288 186.854 41.9456 186.97 41.9908C187.555 40.6404 188.039 39.2508 188.416 37.8328H188.381ZM168.126 107.174C168.348 108.01 168.348 107.897 168.278 107.909L167.916 107.841C167.916 107.728 167.287 96.3838 167.59 91.6947C168.138 83.39 168.838 74.3848 169.491 65.7072C169.805 61.504 170.995 52.4761 170.96 52.8151L172.126 51.979C172.61 52.9144 173.159 53.8167 173.77 54.6794C174.003 54.9845 174.318 55.3687 174.691 55.4026C174.435 57.4477 170.552 82.6782 169.409 98.8017C168.779 107.581 169.409 105.717 168.488 106.519C168.378 106.59 168.291 106.689 168.233 106.804C168.176 106.919 168.151 107.047 168.161 107.174H168.126ZM175.053 55.4139C175.939 55.4139 176.895 53.606 178.061 52.8377C178.516 53.301 179.892 55.5156 180.802 55.8093C176.942 66.0687 172.814 80.3732 172.826 103.988C171.834 104.508 170.493 105.253 169.502 105.807C170.085 96.1917 174.307 64.6338 175.088 55.4139H175.053ZM187.297 40.2281C186.924 41.358 181.385 54.3179 181 54.9167C180.399 54.3455 179.863 53.7128 179.402 53.0298C178.423 51.753 178.085 51.335 176.417 53.1541C178.889 48.6345 183.717 44.0472 185.746 41.7648C187.682 39.618 187.425 39.7988 187.297 40.2281ZM161.176 16.5004C162.046 16.76 162.977 16.76 163.847 16.5004C164.512 16.2138 165.247 16.1121 165.969 16.2066C166.988 16.6618 168.036 17.0543 169.106 17.3817C170.429 17.3704 171.75 17.2685 173.059 17.0766C173.659 17.3481 174.166 17.7789 174.523 18.3189C174.881 18.8589 175.072 19.486 175.076 20.1273C172.903 20.4331 170.805 21.1184 168.884 22.1499C168.766 21.7789 168.532 21.4525 168.215 21.2157C167.897 20.9789 167.512 20.8434 167.112 20.8279C165.2 20.6049 163.268 20.5822 161.351 20.7601C161.181 19.3163 161.123 17.8622 161.176 16.41V16.5004ZM160.721 26.1384C160.43 25.6412 159.859 21.7883 160.442 21.3702C160.535 21.4832 160.127 21.1329 162.342 21.1555C163.904 21.2033 165.461 21.3391 167.007 21.5623C168.056 21.7431 168.231 22.2063 168.173 23.1894C168.173 25.0085 168.231 24.8277 168.173 25.3926C168.173 25.5508 168.103 25.9689 167.975 26.0593C165.576 26.4799 163.119 26.4761 160.721 26.048V26.1384ZM171.438 38.8722C168.243 37.9909 165.316 37.8779 163.345 33.9459C162.074 31.415 162.774 30.6805 161.619 30.3529C161.191 30.3034 160.769 30.2126 160.36 30.0817C160.36 29.3247 161.339 27.7428 161.526 26.9406C163.463 27.1649 165.42 27.1649 167.357 26.9406C168.523 26.7711 169.141 26.579 168.954 24.2853V22.534C170.785 21.9917 174.668 21.0991 175.134 20.9748C175.137 21.5894 175.224 22.201 175.391 22.7939C175.573 23.1667 175.888 23.4635 176.277 23.63C176.34 23.6568 176.407 23.6694 176.476 23.6667C176.544 23.6639 176.61 23.646 176.67 23.6143C176.73 23.5826 176.781 23.538 176.82 23.4839C176.859 23.4298 176.885 23.3676 176.895 23.3023C177.164 22.2515 177.373 21.3137 177.455 20.8618C177.455 21.1104 177.56 20.0709 178.33 19.6641C179.496 19.0765 181.303 20.3872 181.431 22.2402C181.501 23.1442 180.569 24.7825 179.869 26.6694C179.449 27.7993 181.991 28.2852 182.877 28.7032C183.204 29.4377 183.006 30.2625 183.449 30.7031C184.114 31.1003 184.843 31.3868 185.606 31.5506C186.411 34.048 186.996 36.6069 187.355 39.1999C184.393 42.2167 183.729 42.9399 182.936 43.7195C179.838 46.5716 177.211 49.8679 175.146 53.493C174.318 48.7814 172.744 44.6234 172.569 43.2562C172.429 42.1941 172.662 40.3185 172.149 39.3129C172.072 39.1932 171.967 39.0917 171.844 39.0155C171.721 38.9394 171.583 38.8904 171.438 38.8722ZM171.776 42.7026C172.336 44.7138 173.828 51.2446 174.26 53.8659C173.549 52.8264 172.674 51.109 172.674 51.109C172.644 51.0477 172.6 50.9938 172.545 50.9514C172.49 50.9089 172.426 50.879 172.358 50.8638C172.289 50.8486 172.218 50.8485 172.15 50.8636C172.082 50.8786 172.018 50.9084 171.963 50.9508L171.111 51.5835C171.438 48.6458 171.764 45.6516 171.811 42.7026H171.776ZM171.438 41.697C171.333 50.013 169.619 57.4251 168.919 65.7072C166.587 93.5477 166.587 92.1805 166.82 102.033C165.561 93.1297 163.8 75.8084 162.832 66.419C163.52 65.9106 166.843 63.4587 167.217 62.713C167.392 62.3514 167.217 61.9785 166.377 61.9785C164.918 62.0852 163.452 62.0852 161.992 61.9785C162.879 58.4759 167.951 45.6968 169.304 42.3071C169.992 42.115 170.563 41.923 171.438 41.697ZM117.226 82.1923C119.033 80.3506 141.714 76.057 142.95 74.8932C144.687 73.1984 149.469 62.6791 154.343 54.702C158.482 47.9227 160.733 45.4143 168.791 42.5331C166.855 47.177 163.077 56.2613 161.374 61.5492C161.27 61.8769 161.118 62.2384 161.374 62.4531C162.016 63.0632 164.698 62.7017 166.237 62.7243C165.153 63.7751 162.167 65.9106 162.167 65.9106C162.11 65.9517 162.065 66.0067 162.036 66.0702C162.007 66.1337 161.996 66.2033 162.004 66.2721C162.494 71.5148 165.502 102.802 166.809 107.344L164.71 106.824C163.353 106.178 161.879 105.795 160.372 105.694C163.03 92.8811 162.074 89.2993 162.401 82.3166C162.401 81.5935 159.252 67.0631 159.229 66.9501C159.229 66.9021 159.209 66.8561 159.174 66.8222C159.139 66.7883 159.092 66.7693 159.042 66.7693C158.993 66.7693 158.945 66.7883 158.91 66.8222C158.875 66.8561 158.856 66.9021 158.856 66.9501C159.054 71.899 160.5 76.6106 161.491 82.0115C157.76 85.4012 153.853 90.0902 147.498 91.6156C143.568 92.576 125.167 96.4628 122.718 96.6323C120.712 94.4629 116.911 83.6386 117.226 82.1923ZM115.01 83.6951C115.01 83.6951 116.409 83.3674 116.386 83.1527C117.475 87.123 118.847 91.0153 120.491 94.8019C119.431 95.1197 118.347 95.3576 117.249 95.5137C116.584 95.5137 117.051 96.0787 115.43 92.35C114.431 90.032 113.574 87.6589 112.864 85.243C112.666 84.4634 112.328 84.5425 115.01 83.6951ZM101.355 86.0791C102.276 85.0961 102.941 84.9492 112.153 86.0791C112.972 88.7733 113.966 91.4149 115.127 93.9884C113.231 95.4204 111.058 96.4693 108.736 97.073C108.666 96.5871 108.503 96.734 108.9 96.7679C109.235 96.7771 109.567 96.7133 109.873 96.5813C110.179 96.4493 110.451 96.2524 110.668 96.0052C110.885 95.758 111.042 95.4667 111.128 95.1529C111.213 94.839 111.225 94.5106 111.162 94.1918C111.069 93.0619 107.734 90.7117 106.789 90.0677C107.35 90.1795 107.932 90.1364 108.468 89.9434C108.516 89.9284 108.556 89.8956 108.579 89.8521C108.602 89.8087 108.606 89.7582 108.591 89.7117C108.575 89.6653 108.541 89.6267 108.496 89.6044C108.452 89.5822 108.4 89.5781 108.352 89.5931C106.393 90.0902 104.41 87.8305 104.154 87.7627C103.256 87.548 103.815 89.5705 101.821 90.7795C101.53 90.9603 100.41 90.5535 100.34 89.9999C100.194 89.3145 100.209 88.6059 100.384 87.9269C100.56 87.248 100.892 86.6163 101.355 86.0791ZM88.3179 89.6383C89.8105 89.1185 97.4135 86.8362 99.6058 87.3785C99.359 88.2811 99.3035 89.2228 99.4425 90.1467C99.5166 90.4402 99.6552 90.7148 99.8487 90.9517C100.042 91.1887 100.286 91.3824 100.564 91.5196C100.842 91.6569 101.147 91.7345 101.458 91.7472C101.77 91.7598 102.081 91.7072 102.369 91.593C103.182 91.0679 103.793 90.2973 104.107 89.401C105.145 90.0112 110.299 93.3217 110.229 94.4968C110.229 95.2878 109.798 95.9544 108.981 95.8866C108.292 95.6473 107.641 95.3165 107.046 94.9036C106.447 94.4401 105.815 94.0173 105.156 93.6381C105.052 93.5854 104.93 93.5721 104.816 93.6008C104.702 93.6296 104.603 93.6982 104.537 93.7936C104.472 93.889 104.446 94.0044 104.463 94.1175C104.481 94.2307 104.541 94.3336 104.632 94.4064C104.632 94.4064 105.506 95.0392 106.474 95.6493C107.932 96.7792 108.433 97.8187 106.626 98.3498C106.343 98.4312 106.046 98.4551 105.753 98.4201C105.46 98.3851 105.177 98.2919 104.923 98.1464C104.626 97.5778 104.232 97.0621 103.757 96.621C103.545 96.0932 103.166 95.6444 102.673 95.3396C102.18 95.0349 101.6 94.8901 101.017 94.9262C100.41 94.994 100.364 95.2878 100.422 95.0166C100.702 93.672 98.9294 92.8585 97.6934 93.0845C95.6993 93.4686 94.5915 96.0222 93.9385 97.8865C93.542 98.7 95.1046 97.7961 88.2829 100.146C88.4751 96.8647 88.4751 93.5752 88.2829 90.2936C88.2246 89.514 88.2013 89.6948 88.3179 89.6383ZM94.265 98.0108C94.9064 96.6775 96.3174 94.1805 97.8216 93.9545C98.4047 93.8528 99.5825 94.2369 99.4542 94.8132C99.2017 96.3432 98.4735 97.7623 97.3669 98.8808C97.5068 99.1068 93.8569 99.1746 94.265 98.0108ZM100.865 95.8527C101.145 95.5815 102.778 96.1352 102.824 96.9826C102.906 98.395 101.518 100.078 100.317 100.858C99.9323 101.118 98.4164 99.9203 98.0665 99.4345C98.8994 98.1702 99.8353 96.9725 100.865 95.8527ZM102.836 99.6152C102.918 99.5022 104.084 96.9939 104.282 99.0729C104.364 99.8864 103.116 100.316 102.299 100.203C102.489 100.017 102.668 99.8204 102.836 99.6152ZM128.77 114.304C123.861 117.999 123.161 122.857 123.966 128.653C116.083 125.942 110.066 124.134 107.722 123.942C104.55 124.005 101.392 124.384 98.2997 125.072C98.6146 122.032 98.4747 111.366 96.2474 109.174C94.0201 106.982 85.939 103.988 82.8955 102.858H83.5835C83.8517 102.722 83.4086 101.536 84.4231 101.468C85.6475 101.4 87.3617 101.852 87.9214 101.378C88.0885 101.132 88.1851 100.847 88.2013 100.553C89.484 100.158 92.5042 99.265 94.0318 98.8808C94.5454 99.2758 95.1466 99.5497 95.7881 99.6811C96.4296 99.8125 97.0938 99.7977 97.7284 99.6378C98.0782 100.395 99.7107 102.056 100.725 101.513C101.007 101.356 101.276 101.178 101.53 100.982C102.267 101.18 103.051 101.149 103.769 100.892C104.149 100.792 104.488 100.581 104.74 100.288C104.992 99.9948 105.146 99.6339 105.18 99.2537C105.79 99.4236 106.441 99.3964 107.035 99.1763C107.628 98.9562 108.131 98.555 108.468 98.0334C111.025 97.4767 113.417 96.3639 115.465 94.7793C115.686 95.2426 115.896 95.638 116.071 95.9092C116.129 96.0045 116.211 96.0844 116.308 96.1416C116.406 96.1988 116.517 96.2315 116.631 96.2369C117.797 96.3499 120.549 95.107 120.666 95.107C121.065 95.9144 121.562 96.673 122.147 97.3668C122.357 97.5701 122.706 97.5136 123.033 97.4797C126.415 97.0843 143.206 93.5816 147.696 92.4969C153.527 91.0846 157.328 87.1186 161.328 83.3448C161.106 89.8304 161.981 92.9941 159.334 105.728C153.83 106.391 148.376 107.403 143.008 108.756C138.309 110.055 132.712 111.344 128.77 114.315V114.304ZM145.784 136.597L145.375 136.438C145.282 130.699 146.751 125.411 151.089 121.49C151.473 121.585 151.863 121.656 152.255 121.705C147.789 125.411 146.028 130.812 145.784 136.597ZM164.196 117.761C160.698 119.75 161.724 120.823 158.517 121.151C155.948 121.322 153.367 121.128 150.856 120.575C148.827 119.942 149.9 119.185 152.022 118.959C152.384 119.015 155.229 119.038 156.57 118.959C156.68 118.942 156.779 118.888 156.851 118.806C156.923 118.724 156.963 118.62 156.963 118.513C156.963 118.405 156.923 118.301 156.851 118.219C156.779 118.138 156.68 118.083 156.57 118.066C155.058 117.94 153.538 117.918 152.022 117.999C151.057 117.985 150.096 117.875 149.154 117.671C149.06 117.523 149.005 117.354 148.995 117.181C148.985 117.007 149.019 116.834 149.095 116.677C150.32 115.965 156.092 116.236 157.048 116.202C157.161 116.185 157.263 116.129 157.337 116.045C157.411 115.962 157.452 115.855 157.452 115.744C157.452 115.634 157.411 115.527 157.337 115.443C157.263 115.36 157.161 115.304 157.048 115.287C155.135 115.326 153.221 115.228 151.323 114.993C150.506 114.857 148.606 114.462 148.745 113.66C149.002 112.214 152.069 113.456 154.226 113.31C155.748 113.287 157.255 113.012 158.681 112.496C158.787 112.465 158.877 112.393 158.929 112.298C158.982 112.203 158.993 112.091 158.961 111.988C158.928 111.884 158.855 111.798 158.756 111.747C158.658 111.696 158.543 111.685 158.436 111.716C156.977 112.056 155.497 112.305 154.005 112.462C153.91 112.443 153.826 112.391 153.768 112.316C153.71 112.242 153.682 112.149 153.69 112.055C153.706 111.844 153.762 111.638 153.853 111.445C154.454 110.685 155.262 110.102 156.185 109.762C159.497 108.428 162.016 109.762 165.806 109.999C166.281 112.088 166.885 114.148 167.613 116.168C166.451 116.618 165.325 117.151 164.243 117.761H164.196ZM168.651 116.383C168.243 115.05 166.727 110.214 166.575 109.084C167.177 108.799 167.811 108.583 168.464 108.44C169.001 110.372 169.992 113.728 170.633 115.603C170.008 115.906 169.361 116.167 168.698 116.383H168.651ZM171.951 116.383C171.333 115.027 169.502 108.711 169.082 107.129C171.088 105.536 189.093 96.96 191.775 94.3499C192.614 93.5364 189.781 78.2264 193.104 65.6281C194.877 58.8487 198.352 48.1939 205.523 48.4311C210.444 48.5893 213.255 52.2276 214.852 56.7697C217.779 65.1309 216.613 76.7349 216.613 76.6219C216.613 86.1017 213.115 100.35 206.118 107.129C200.835 112.259 175.239 116.959 171.998 116.417L171.951 116.383ZM220.03 124.97C218.665 124.62 212.403 122.383 209.756 122.168C196.008 121.038 196.859 118.507 188.358 114.891C193.023 113.761 203.389 111.14 206.829 107.841C214.094 100.858 217.452 86.4633 217.417 76.7236C217.687 73.3126 217.687 69.8865 217.417 66.4755C219.995 80.6444 221.581 120.676 220.03 124.97Z" fill="black"/>
<path fill-rule="evenodd" clip-rule="evenodd" d="M39.7242 48.5887L35.8994 49.0181C37.0654 50.0806 38.1273 51.2456 39.0712 52.4982L40.1324 49.1085C40.1648 49.0477 40.1787 48.9793 40.1726 48.9112C40.1664 48.8431 40.1405 48.7781 40.0978 48.7237C40.0551 48.6693 39.9973 48.6277 39.9312 48.6038C39.865 48.58 39.7933 48.5747 39.7242 48.5887ZM150.341 151.703C149.379 151.113 148.317 150.692 147.204 150.46C149.851 146.29 149.373 141.421 148.674 140.991C148.015 140.341 147.138 139.94 146.201 139.861C142.703 139.15 134.225 139.093 131.987 140.901C131.497 141.296 131.205 141.94 131.683 142.37C131.456 145.048 132.035 147.733 133.351 150.098C132.185 150.313 130.832 150.742 130.389 151.759C130.313 151.978 130.292 152.211 130.328 152.439C130.365 152.668 130.458 152.884 130.599 153.07C131.494 154.145 132.719 154.917 134.097 155.273C136.531 155.991 139.085 156.248 141.619 156.03C144.04 155.935 146.44 155.555 148.767 154.9C151.344 153.974 151.321 152.448 150.341 151.703ZM132.092 142.573C134.598 143.237 137.19 143.549 139.788 143.5C142.62 143.312 145.418 142.78 148.114 141.918C148.347 143.472 148.262 145.056 147.861 146.578C147.461 148.1 146.754 149.531 145.782 150.787C145.547 151.187 145.207 151.519 144.798 151.751C144.389 151.983 143.924 152.106 143.449 152.109C141.817 152.313 137.362 152.426 136.453 152.03C133.503 150.708 132.045 145.906 132.092 142.573ZM141.572 155.002C139.165 155.223 136.736 154.985 134.424 154.301C133.377 154.025 132.413 153.51 131.613 152.799C131.427 152.607 131.124 152.222 131.217 151.985C131.52 151.239 133.001 150.855 133.817 150.72C134.402 151.583 135.205 152.287 136.15 152.765C137.316 153.341 143.776 153.273 144.977 152.674C145.726 152.232 146.36 151.629 146.831 150.912C147.519 151.104 149.921 151.895 150.085 152.527C150.609 154.471 143.671 154.934 141.572 155.058V155.002Z" fill="black"/>
</svg>
