<svg width="301" height="254" viewBox="0 0 301 254" fill="none" xmlns="http://www.w3.org/2000/svg">
<path d="M36.0796 174.364C34.7624 174.577 33.0972 174.81 32.5611 174.81C31.2407 174.81 31.9618 174.786 27.2874 167.523C25.1731 164.235 16.4647 151.02 16.4868 150.544C16.6513 150.195 21.2261 149.856 27.4186 148.598C27.183 147.937 27.221 147.355 27.5657 146.855C25.2728 147.378 23.9587 147.653 19.0708 148.31C18.0207 148.45 15.4637 148.998 15.3546 149.04C14.0911 149.531 14.0911 149.777 14.556 150.791C15.7152 153.332 20.1097 160.039 23.6424 165.428C29.8539 174.905 27.2162 171.255 29.7859 175.106C31.0889 177.057 31.2724 177.275 37.2213 175.912C36.7691 175.311 36.437 174.853 36.0828 174.364H36.0796Z" fill="white"/>
<path d="M43.6009 205.553C44.2651 205.202 44.1923 205.294 43.4649 203.913C39.5922 204.89 34.7755 206.102 28.6652 207.633C27.7591 207.86 27.1898 208.252 26.5383 207.519C22.7494 203.243 5.77851 178.175 1.94377 171.499C1.69866 171.072 2.18255 171.159 3.45711 170.245C3.71012 170.063 3.83821 170.096 3.99792 170.334C6.14222 173.514 20.1924 195.839 25.8378 202.131C27.0617 203.494 30.8664 201.975 38.6324 199.824C41.8915 198.923 44.0563 198.41 45.5839 198.078C45.41 197.729 45.1664 197.216 44.9229 196.691C43.7954 196.99 42.3754 197.359 40.5568 197.817C36.3726 198.872 29.7326 200.464 28.0042 200.951C26.8672 201.272 26.736 200.548 25.8741 199.636C23.3519 196.97 9.39343 176.099 7.22227 172.777C1.77931 164.448 1.81726 164.411 2.21576 164.169C4.08806 163.034 4.2968 162.738 4.63046 163.219C7.01511 166.647 5.86074 165.387 8.51421 169.268C18.8862 184.442 20.4928 189.068 26.464 195.316C27.8445 196.759 27.2784 197.034 34.328 195.165C39.1763 193.881 43.3779 192.771 47.0293 191.814C47.0198 191.767 47.0008 191.712 46.9755 191.644C46.7636 191.084 46.5723 190.562 46.4916 190.089C41.9421 191.231 37.6108 192.316 34.29 193.105C32.3513 193.565 30.8142 194.307 29.7152 194.484C28.7727 194.636 28.2003 194.809 27.0206 193.502C24.889 191.141 24.6122 191.351 18.6443 182.205C17.6306 180.652 15.0467 176.836 14.3794 175.685C12.1718 171.871 11.416 171.554 8.89847 167.098C4.89612 160.014 5.12542 160.966 3.82081 157.98C3.41915 157.06 4.08964 156.925 5.40057 156.358C6.05682 156.073 5.94771 155.89 6.47113 156.729C11.8145 165.318 10.9985 163.912 13.2835 168.208C14.7051 170.881 24.4984 185.642 26.0497 187.793C26.5683 188.513 27.1851 189.153 27.9394 189.642C28.8961 190.262 28.3964 190.16 39.5559 187.241C41.7397 186.67 43.4396 186.156 45.1364 185.655C44.7015 185.122 44.3236 184.662 43.9868 184.254C43.8002 184.306 43.6167 184.357 43.4349 184.407C38.6418 185.718 32.2058 187.265 29.1412 188.103C28.6225 188.245 28.3284 188.122 28.0548 187.723C13.0337 165.904 15.967 169.834 12.9103 164.68C7.042 154.784 7.19539 156.103 5.11118 151.31C4.69529 150.352 5.35945 150.213 6.46323 149.855C7.95127 149.371 6.91549 149.503 12.6051 157.727C16.2659 163.018 18.3517 167.375 23.2175 175.315C24.7197 177.767 28.0058 182.333 28.6715 183.318C29.2772 184.211 30.1374 184.298 31.1779 184.022C34.7707 183.066 38.1469 182.154 41.4724 181.259C41.1056 180.823 40.7324 180.373 40.2643 179.793C36.8407 180.748 33.6733 181.702 30.9486 182.627C29.5713 183.095 29.3357 182.168 16.1347 160.488C13.0368 155.399 8.90638 149.371 7.61602 146.436C7.14953 145.375 9.27483 145.507 17.4915 144.215C21.6235 143.565 25.3839 143.03 28.9482 142.546C28.6383 141.998 28.3805 141.526 28.3015 141.36C28.2208 141.189 28.1766 141.028 28.1607 140.872C18.1793 142.228 9.25585 143.479 7.10841 144.365C5.35471 145.089 5.79748 146.367 6.39049 147.929C6.61345 148.517 6.29561 148.231 4.65418 148.955C3.90304 149.286 3.08233 149.974 3.46817 151.021C3.63422 151.475 4.85501 154.126 5.17286 154.699C5.47647 155.243 4.99891 155.099 3.74016 155.526C1.88209 156.157 1.47253 157.283 2.22208 158.877C3.52827 161.657 3.84453 161.405 3.01749 161.842C0.944361 162.938 0.0951827 163.15 0.466797 164.511C0.797296 165.724 1.03292 166.078 2.5083 168.227C3.04121 169.005 2.71862 168.762 0.906409 169.842C0.362428 170.166 -0.105647 170.655 0.0208598 171.271C0.183737 172.062 0.403543 172.584 0.857387 173.248C10.173 186.896 6.80005 182.532 11.8524 190.092C13.7231 192.89 13.856 192.838 18.5367 199.841C22.3177 205.498 19.3242 201.075 22.9961 206.13C25.1736 209.128 26.0133 210.409 28.2082 209.886C36.5229 207.909 36.4643 207.645 39.6207 206.856C40.2912 206.688 41.2764 206.45 42.4038 206.179C42.7438 206.001 43.1439 205.801 43.6041 205.558L43.6009 205.553Z" fill="white"/>
<path d="M78.967 195.078C79.3813 194.655 78.9038 194.418 78.7077 193.632C78.4151 192.464 79.1362 191.795 79.6676 192.035C80.803 192.546 80.4393 193.791 81.1477 193.577C81.6569 193.424 82.1914 193.25 82.6958 193.261C84.5918 193.303 85.0599 194.866 84.5744 195.619C83.9245 196.626 82.8903 195.326 81.0196 196.36C79.2627 197.331 79.035 199.831 81.1888 199.415C83.4454 198.979 84.6567 198.25 86.4041 198.405C88.8441 198.62 91.2983 201.201 90.242 204.615C89.2299 207.882 87.802 207.368 88.3127 208.44C88.3365 208.491 88.863 209.424 89.0828 210.469C89.3517 211.753 88.1325 212.779 87.3861 211.677C86.0135 209.647 86.3867 209.283 85.6339 209.609C84.2756 210.197 83.0595 210.768 81.4972 210.24C80.4614 209.89 80.2511 208.647 80.5373 208.062C80.8488 207.425 81.2932 207.502 81.9241 207.501C84.8148 207.496 88.0028 204.969 87.2469 202.616C86.8816 201.476 85.4853 201.495 82.9631 202.189C81.5067 202.591 79.7909 202.817 78.4262 201.961C76.5982 200.816 76.6251 197.47 78.967 195.078Z" fill="white"/>
<path d="M173.949 228.236C173.377 228.372 172.803 228.508 172.225 228.632C171.06 228.887 169.882 229.08 168.715 229.325C162.668 230.598 163.22 230.887 163.297 229.899C163.658 227.94 163.789 227.268 163.858 226.766C163.335 226.555 162.767 226.327 162.146 226.088C161.314 225.767 160.512 225.375 159.7 225.003C159.107 229.091 158.599 232.399 158.583 232.483C158.49 233.017 158.299 233.372 157.74 233.574C156.809 233.913 156.477 233.658 156.546 232.652C156.618 231.626 157.173 228.281 157.774 224.224C157.606 224.168 157.438 224.116 157.267 224.069C156.369 223.82 155.515 223.42 154.627 223.129C153.659 222.812 148.297 221.214 142.937 219.146C141.434 218.566 139.991 217.829 138.521 217.165C138.253 217.043 138.045 216.883 137.879 216.695C137.747 218.433 137.377 221.075 135.795 234.828C135.602 236.506 135.492 237.358 135.236 237.448C134.839 237.589 134.423 237.705 134.004 237.75C133.865 237.766 133.626 237.578 133.565 237.428C132.95 235.943 135.538 220.941 135.749 213.72C135.053 213.442 133.985 212.984 129.743 211.448C129.861 211.633 129.959 211.796 130.032 211.929C128.938 212.477 90.0322 220.055 71.5274 226.34C70.15 226.808 69.9144 225.881 56.715 204.201C53.6172 199.112 49.4867 193.084 48.1963 190.149C48.0935 189.913 48.1173 189.736 48.307 189.589C48.092 189.32 47.8484 189.017 47.5717 188.674C47.4658 188.542 47.363 188.414 47.2618 188.288C46.0157 189.036 46.43 190.22 46.9692 191.64C47.1922 192.228 46.8743 191.942 45.2329 192.666C44.4818 192.997 43.6611 193.685 44.0469 194.73C44.2129 195.184 45.4337 197.837 45.7516 198.41C46.0552 198.954 45.5776 198.81 44.3189 199.237C42.4608 199.868 42.0513 200.994 42.8008 202.588C44.107 205.368 44.4248 205.116 43.5962 205.553C41.5231 206.649 40.6739 206.861 41.0439 208.222C41.3744 209.435 41.6101 209.789 43.0855 211.938C43.6184 212.716 43.2958 212.473 41.4836 213.553C40.9396 213.877 40.4715 214.366 40.598 214.982C40.7609 215.773 40.9807 216.295 41.4345 216.959C50.7502 230.608 47.3772 226.243 52.4296 233.803C54.3003 236.601 54.4331 236.549 59.1139 243.552C62.8949 249.209 59.8998 244.786 63.5733 249.841C65.7508 252.84 66.5904 254.12 68.7853 253.597C77.1 251.62 77.0415 251.356 80.1979 250.567C83.0379 249.857 91.4981 247.88 92.6809 247.578C111.232 242.828 124.123 240.464 125.109 240.197C126.471 239.827 126.825 239.447 127.665 240.379C129.287 242.178 130.948 241.275 136.441 240.13C138.163 239.771 139.816 239.115 141.581 238.924C142.507 238.824 143.415 238.566 144.338 238.423C145.344 238.266 150.895 237.554 156.518 236.379C158.096 236.049 159.638 235.556 161.196 235.136C161.997 234.921 162.402 234.325 162.642 233.592C163.041 232.38 162.918 232.456 163.422 232.382C165.282 232.107 163.795 232.124 177.694 229.662C175.938 228.99 174.664 228.511 173.943 228.234L173.949 228.236ZM128.721 233.329L128.656 233.32C128.505 234.6 128.348 235.875 128.207 237.154C128.172 237.477 127.247 237.55 123.884 238.294C121.007 238.93 116.276 240.137 109.476 241.571C97.6194 244.073 102.052 243.138 69.2487 251.352C68.3426 251.579 67.7733 251.971 67.1218 251.238C63.3329 246.962 46.362 221.894 42.5272 215.218C42.2821 214.791 42.766 214.878 44.0406 213.964C44.2936 213.782 44.4217 213.815 44.5814 214.051C46.7257 217.233 60.7759 239.556 66.4228 245.848C67.6468 247.212 71.4515 245.692 79.2174 243.541C86.8711 241.422 88.4935 241.462 89.98 240.902C91.8001 240.216 93.7438 240.024 95.6017 239.496C99.1013 238.502 105.028 237.131 107.386 236.712C107.496 236.693 128.345 232.214 128.384 232.208C128.898 232.107 128.794 232.393 128.721 233.332V233.329ZM129.338 227.255C128.957 231.48 129.651 230.226 126.049 230.987C125.041 231.199 126.06 231.042 104.829 235.693C95.3044 237.779 99.4459 237.129 90.8766 238.955C89.3744 239.276 88.7687 239.61 81.1403 241.531C76.9561 242.586 70.3161 244.179 68.5877 244.666C67.4507 244.987 67.3194 244.262 66.4576 243.35C63.9354 240.684 49.9769 219.813 47.8057 216.491C42.3628 208.162 42.4007 208.126 42.7992 207.884C44.6715 206.748 44.8803 206.453 45.2139 206.933C47.5986 210.362 46.4458 209.101 49.0977 212.982C59.4697 228.156 61.0763 232.782 67.0475 239.03C68.428 240.473 67.8618 240.749 74.9114 238.88C120.486 226.798 108.866 230.385 120.822 228.005C130.13 226.153 129.485 225.629 129.338 227.255ZM130.2 220.808C130.042 222.864 130.285 220.871 129.725 224.375C129.629 224.978 129.713 224.53 122.769 226.137C121.283 226.482 112.859 227.907 111.35 228.133C105.172 229.064 85.1743 234.374 74.8735 236.817C72.9364 237.278 71.3993 238.019 70.2987 238.196C69.3562 238.348 68.7838 238.522 67.6041 237.214C65.474 234.853 65.1957 235.062 59.2277 225.917C58.2141 224.364 55.6302 220.549 54.9629 219.397C52.7553 215.583 51.9994 215.267 49.482 210.811C45.4796 203.726 45.7089 204.678 44.4043 201.693C44.0026 200.772 44.6731 200.638 45.984 200.07C46.6403 199.786 46.5312 199.602 47.0546 200.442C52.3979 209.03 51.582 207.624 53.8654 211.921C55.287 214.593 65.0803 229.354 66.6316 231.506C67.1502 232.225 67.767 232.866 68.5213 233.354C69.478 233.974 68.9783 233.873 80.1378 230.954C86.7035 229.238 88.892 228.047 99.7448 226.083C102.387 225.606 105.79 225.451 119.005 222.048C121.438 221.422 121.518 221.619 128.952 220.074C130.356 219.782 130.288 219.666 130.2 220.808ZM130.546 215.955C130.364 218.311 130.494 218.085 129.823 218.213C110.351 221.945 112.196 222.415 99.4332 224.412C92.1449 225.552 87.6175 227.135 84.0168 228.12C79.2238 229.431 72.7877 230.978 69.7231 231.816C69.2044 231.958 68.9103 231.835 68.6367 231.436C53.6156 209.617 56.549 213.546 53.4922 208.393C47.6239 198.497 47.7773 199.816 45.6931 195.023C45.2772 194.064 45.9413 193.925 47.0451 193.568C48.5332 193.084 47.4974 193.215 53.187 201.44C56.8478 206.731 58.932 211.088 63.7994 219.027C65.3032 221.48 68.5877 226.045 69.2534 227.031C69.8591 227.924 70.7193 228.011 71.7598 227.734C89.7396 222.955 102.303 219.227 130.056 213.724C130.926 213.551 130.72 213.684 130.544 215.956L130.546 215.955Z" fill="white"/>
<path d="M121.702 208.598C109.103 211.228 81.3031 217.22 77.8558 217.875C76.6539 218.102 73.8676 218.526 73.145 218.526C71.8245 218.526 72.5456 218.502 67.8712 211.239C66.3926 208.94 61.6897 201.788 59.0031 197.531L58.0875 197.836C57.7301 197.954 57.4059 198.019 57.1007 198.034C59.0125 201.195 61.818 205.477 64.2246 209.146C70.4361 218.623 67.7985 214.973 70.3681 218.823C71.8483 221.042 71.8815 221.021 80.582 218.983C98.8986 214.69 117.125 211.279 125.075 209.784C124.056 209.425 122.937 209.032 121.702 208.598Z" fill="white"/>
<path d="M229.317 118.248C226.098 117.331 223.144 118.905 223.009 121.057C222.93 122.331 223.553 123.475 224.336 124.436C224.434 124.468 224.532 124.498 224.633 124.529C225.687 124.865 226.716 125.289 227.771 125.632C228.471 125.861 229.189 126.092 229.923 126.326C229.221 124.748 228.013 124.028 226.566 122.27C225.173 120.576 227.48 119.581 229.17 120.663C230.971 121.814 230.323 123.343 231.519 123.434C232.412 123.5 233.562 122.344 232.695 120.658C232.464 120.209 232.056 119.822 231.678 119.449C231.153 118.927 232.42 118.653 232.328 117.412C232.284 116.83 231.354 116.515 230.467 117.331C229.871 117.88 229.89 118.411 229.321 118.25L229.317 118.248Z" fill="white"/>
<path d="M216.375 109.761C216.429 109.78 216.484 109.799 216.539 109.818C223.749 112.288 223.355 112.187 225.46 112.692C230.915 113.996 235.294 115.396 238.393 116.626C245.996 119.64 252.284 120.918 252.42 121.354C252.391 121.655 248.19 126.536 244.467 130.828C245.144 131.034 245.818 131.239 246.485 131.443C250.786 126.506 254.898 121.65 254.691 120.832C254.618 120.548 254.33 120.344 253.75 120.021C253.647 119.963 251.189 119.069 250.17 118.786C242.027 116.517 244.129 116.805 234.206 113.354C228.094 111.229 226 111.341 219.566 108.972C218.351 109.273 217.297 109.535 216.375 109.761Z" fill="white"/>
<path d="M202.363 112.985C202.611 113.289 202.84 113.62 203.049 113.985C203.152 114.167 203.244 114.349 203.323 114.527C204.134 114.758 204.71 114.9 205.07 115.027C205.16 115.059 205.249 115.09 205.336 115.12C205.075 114.206 204.612 113.34 204.025 112.53C203.484 112.676 202.927 112.829 202.361 112.985H202.363Z" fill="white"/>
<path d="M225.967 107.373C225.918 107.386 225.871 107.397 225.823 107.409C234.179 109.838 242.097 111.853 252.298 114.941C260.258 117.351 262.382 117.514 261.773 118.501C260.092 121.232 255.17 126.634 251.401 131.247C251.022 131.712 250.65 132.166 250.288 132.608C250.788 132.762 251.281 132.914 251.768 133.065C252.875 131.705 254.004 130.382 255.276 128.998C262.044 121.637 261.035 121.363 262.442 122.046C263.487 122.552 264.126 122.783 263.582 123.674C261.039 127.837 261.161 126.995 255.35 134.183C255.808 134.327 256.258 134.471 256.697 134.612C257.621 133.489 259.003 131.84 261.49 128.856C262.123 128.097 261.99 128.263 262.6 128.634C263.819 129.378 264.466 129.604 263.941 130.459C262.58 132.68 262.535 132.544 260.048 135.703C260.644 135.902 261.209 136.095 261.74 136.279C261.936 136.06 262.159 135.817 262.418 135.537C262.815 135.108 262.981 135.43 264.68 136.812C264.808 136.914 264.893 136.987 264.669 137.363C265.252 137.599 265.728 137.813 266.084 137.999C266.179 137.816 266.269 137.62 266.367 137.39C266.922 136.092 266.109 135.766 264.207 134.395C263.448 133.847 263.726 134.141 265.402 131.566C266.364 130.091 266.114 128.921 264.36 128.04C263.173 127.444 262.681 127.52 263.056 127.023C263.449 126.499 265.023 124.039 265.251 123.613C265.777 122.631 265.058 121.836 264.36 121.406C262.833 120.462 262.48 120.702 262.781 120.15C263.582 118.684 264.197 117.481 262.559 116.521C259.659 114.824 242.84 110.427 229.104 106.47C228.067 107.043 226.807 107.163 225.964 107.375L225.967 107.373Z" fill="white"/>
<path d="M288.881 152.342C288.803 152.059 288.512 151.859 287.927 151.548C287.823 151.491 285.351 150.64 284.327 150.373C276.317 148.287 278.169 148.486 268.882 145.414C268.722 145.678 268.338 146.261 267.927 146.872C269.672 147.398 271.206 147.919 272.516 148.414C280.169 151.298 286.477 152.468 286.621 152.903C286.585 153.379 276.344 165.445 273.849 168.452C268.331 175.099 269.043 175.206 267.734 175.048C267.016 174.961 264.3 174.204 263.135 173.832C262.955 173.774 262.705 173.693 262.393 173.589C261.928 174.091 261.524 174.533 261.169 174.922C268.689 177.675 268.779 177.627 270.455 175.677C271.205 174.803 271.534 174.414 272.683 172.912C276.455 167.989 289.273 153.776 288.882 152.34L288.881 152.342Z" fill="white"/>
<path d="M300.842 168.697C301.375 167.389 300.557 167.077 298.631 165.738C297.862 165.203 298.146 165.491 299.779 162.89C300.715 161.399 300.445 160.232 298.677 159.381C297.48 158.804 296.988 158.889 297.355 158.386C297.739 157.857 299.271 155.369 299.491 154.941C300 153.949 299.268 153.166 298.563 152.747C297.02 151.83 296.67 152.075 296.963 151.519C297.739 150.038 298.334 148.824 296.68 147.894C294.053 146.416 280.188 142.956 267.4 139.572C267.425 140.095 267.18 140.659 266.843 141.276C272.85 142.835 279.027 144.396 286.391 146.488C294.391 148.762 296.517 148.889 295.925 149.887C294.29 152.644 289.462 158.13 285.772 162.806C270.048 182.734 269.704 183.626 268.393 182.995C265.429 181.57 261.898 180.038 258.067 178.472C257.731 178.865 257.355 179.298 256.854 179.859C260.454 181.309 264.091 182.788 267.996 184.35C268.995 184.75 269.859 184.769 270.569 183.955C271.348 183.058 275.161 178.922 276.949 176.67C282.74 169.377 285.335 165.303 289.608 160.493C296.25 153.016 295.236 152.761 296.656 153.421C297.709 153.91 298.353 154.128 297.823 155.029C295.176 159.536 295.487 158.244 288.466 167.359C284.81 172.106 288.196 168.561 270.649 188.406C270.33 188.769 270.023 188.855 269.525 188.652C266.584 187.45 260.383 185.138 255.782 183.256C255.307 183.061 254.817 182.856 254.306 182.636C253.832 183.145 253.449 183.545 253.087 183.919C255.01 184.744 256.824 185.562 259.291 186.537C270.017 190.783 269.508 190.823 270.532 190.325C271.34 189.931 272.031 189.368 272.632 188.716C274.432 186.77 285.936 173.298 287.669 170.817C290.455 166.829 289.475 168.126 295.818 160.244C296.438 159.474 296.308 159.642 296.925 160.004C298.158 160.727 298.807 160.942 298.296 161.805C296.64 164.612 296.982 163.695 292.154 170.243C289.116 174.363 288.329 174.585 285.675 178.106C284.873 179.168 281.848 182.642 280.654 184.062C273.625 192.421 273.375 192.179 270.975 194.265C269.645 195.42 269.098 195.179 268.182 194.915C267.112 194.607 265.676 193.685 263.807 192.995C262.379 192.469 260.761 191.857 259.017 191.194C258.864 191.658 258.584 192.153 258.277 192.682C258.223 192.776 258.188 192.847 258.177 192.904C259.861 193.574 261.64 194.286 263.521 195.037C270.292 197.743 269.764 197.403 271.309 196.134C277.99 190.655 280.144 186.257 292.272 172.446C295.375 168.915 294.078 170.027 296.858 166.911C297.247 166.476 297.42 166.794 299.142 168.146C299.509 168.434 299.542 168.475 293.133 176.086C290.576 179.121 274.201 198.155 271.374 200.497C270.406 201.297 270.189 202.001 269.1 201.546C267.762 200.986 263.334 199.327 259.561 197.89C259.249 198.35 258.933 198.81 258.693 199.145C266.136 202.216 269.729 204.182 271.108 202.977C277.473 197.412 294.116 176.948 296.629 174.049C296.816 173.834 296.947 173.817 297.176 174.027C298.331 175.088 298.821 175.061 298.527 175.455C293.914 181.621 274.038 204.455 269.762 208.241C269.027 208.891 268.508 208.434 267.637 208.099C264.789 207.006 262.232 206.024 259.928 205.137C258.827 206.62 258.731 206.478 259.362 206.957C259.449 207.022 259.531 207.085 259.613 207.145C261.025 207.76 262.886 208.559 267.822 210.385C269.938 211.17 270.926 210 273.45 207.286C277.707 202.711 274.199 206.739 278.637 201.582C284.129 195.197 284.255 195.263 286.45 192.712C292.378 185.818 288.504 189.743 299.4 177.32C299.931 176.714 300.211 176.222 300.469 175.457C300.669 174.861 300.265 174.318 299.763 173.931C298.095 172.642 297.745 172.843 298.369 172.136C300.092 170.181 300.369 169.857 300.843 168.693L300.842 168.697Z" fill="white"/>
<path d="M222.02 193.932C221.928 193.815 221.854 193.701 221.795 193.593C220.799 193.176 219.676 192.709 218.561 192.244C218.53 192.371 218.508 192.501 218.495 192.633C218.356 194.238 219.339 195.662 220.361 196.775C222.129 198.701 222.782 199.936 221.933 200.782C220.182 202.528 216.48 200.842 215.158 198.271C214.869 197.709 214.736 197.278 214.026 197.29C213.375 197.303 212.366 198.057 212.527 199.137C212.769 200.769 213.832 201.592 214.975 202.532C215.607 203.054 215.112 202.888 213.933 205.036C213.291 206.203 214.76 206.819 215.781 205.994C216.612 205.324 217.201 204.429 217.236 204.384C217.957 203.44 218.152 204.947 221.52 204.357C225.04 203.742 226.218 200.382 225.298 198.111C224.638 196.485 223.437 195.739 222.021 193.93L222.02 193.932Z" fill="white"/>
<path d="M127.321 177.433C126.328 177.784 125.354 178.191 124.348 178.499C133.798 181.589 142.563 184.35 142.661 184.268L143.942 183.161C144.3 182.851 143.923 182.832 127.321 177.433Z" fill="white"/>
<path d="M249.254 192.339C249.165 192.287 247.315 191.561 246.167 191.169C245.648 191.725 245.237 192.166 244.906 192.522C246.728 193.102 247.84 193.457 247.892 193.639C247.835 194.113 237.109 205.748 234.49 208.65C228.704 215.063 229.411 215.202 228.108 214.99C227.395 214.873 224.713 214.005 223.563 213.586C219.29 212.026 176.083 195.01 175.903 195.146C174.268 196.365 174.251 196.343 174.309 196.501C174.371 196.664 197.583 204.672 220.695 214.239C228.952 217.656 228.981 217.683 230.801 215.731C231.587 214.889 231.93 214.512 233.141 213.061C237.112 208.296 250.504 194.622 250.172 193.172C250.106 192.886 249.824 192.676 249.252 192.339H249.254Z" fill="white"/>
<path d="M259.362 206.96C258.615 206.394 258.888 206.694 260.625 204.161C261.622 202.709 261.4 201.533 259.669 200.609C258.495 199.983 258.002 200.049 258.389 199.561C258.796 199.047 260.428 196.626 260.666 196.205C261.215 195.236 260.518 194.424 259.828 193.977C258.325 192.996 257.966 193.227 258.28 192.683C259.117 191.236 259.76 190.047 258.146 189.049C257.15 188.433 254.468 187.448 250.818 186.244C250.423 186.654 249.964 187.131 249.415 187.708C256.092 189.856 257.901 190.103 257.311 191.01C255.565 193.7 250.514 198.982 246.635 203.503C230.107 222.768 229.724 223.643 228.442 222.96C211.196 213.77 174.023 200.01 173.032 199.292C174.327 197.617 179.228 193.362 179.93 192.77C180.237 192.511 180.531 192.143 180.882 192.068C181.185 192.003 181.549 192.313 181.902 192.421C186.396 193.79 192.085 195.293 197.601 192.783C198.703 192.282 199.511 191.464 200.342 190.647C200.579 190.414 201.398 188.774 201.104 186.88C200.976 186.062 200.68 185.276 200.269 184.528C199.303 184.132 198.367 183.749 197.46 183.382C197.935 183.875 198.36 184.421 198.714 185.08C199.791 187.082 199.406 188.981 198.868 189.647C197.258 191.638 194.622 192.087 191.896 192.388C190.794 192.509 187.9 192.532 182.496 190.949C181.967 190.794 182.362 190.817 186.279 187.568C188.795 185.479 191.864 182.846 193.227 181.687C191.35 180.944 189.668 180.287 188.203 179.723C188.039 179.865 187.865 180.012 187.685 180.166C186.503 181.174 187.606 180.072 183.103 184.052C169.196 196.343 167.595 197.073 167.24 199.229C166.133 205.908 166.318 222.458 165.43 223.886C165.345 224.024 165.079 224.171 164.945 224.133C164.539 224.019 164.146 223.839 163.778 223.636C163.541 223.505 163.569 222.648 163.65 220.961C164.682 199.295 164.244 205.027 164.994 198.809C165.34 195.928 167.719 194.394 182.087 181.932C183.366 180.822 184.558 179.783 185.725 178.776C183.353 177.873 181.921 177.343 181.628 177.208C180.344 176.625 180.055 176.193 179.076 176.978C177.186 178.492 175.692 177.336 170.453 175.325C168.81 174.694 167.285 173.782 165.573 173.31C165.296 173.234 165.024 173.144 164.752 173.046C160.335 176.816 154.342 181.905 145.906 188.836C145.151 189.456 144.754 190.223 144.604 191.153C143.423 198.496 143.738 213.128 143.519 215.464C143.426 216.47 143.058 216.666 142.193 216.182C141.674 215.891 141.543 215.513 141.536 214.969C141.535 214.781 141.696 199.219 142.08 193.64C142.228 191.496 142.566 190.251 142.612 190.008C142.887 188.52 143.263 188.069 144.868 186.742C144.906 186.711 152.669 180.339 152.707 180.311C158.974 175.63 156.64 177.204 162.641 172.281C161.849 172.033 160.063 171.487 157.815 170.741C150.196 176.905 141.261 184.136 138.908 186.515C138.619 186.807 138.423 186.881 138.034 186.738C132.086 184.522 125.53 182.226 119.254 180.094C117.581 180.536 116.619 180.483 115.593 179.527C114.676 178.673 114.355 179.082 113.031 179.569C112.935 179.606 112.718 179.672 112.389 179.772C123.264 183.415 135.535 187.721 137.523 188.575C138.015 188.787 137.871 188.6 137.746 191.902C137.787 191.905 137.782 191.909 137.724 192.505C137.705 192.698 137.657 192.829 137.408 192.745C129.155 190.008 115.441 185.292 105.466 181.843C104.544 182.125 103.548 182.432 102.481 182.764C103.608 183.159 104.879 183.603 106.317 184.098C137.714 194.915 137.686 194.344 137.673 195.033C137.673 195.066 137.585 197.774 137.618 197.774C137.6 197.973 137.577 198.172 137.569 198.373C137.537 199.217 136.381 198.055 133.714 197.187C130.178 196.039 129.378 195.229 121.873 192.859C119.384 192.073 109.301 188.97 105.379 187.675C102.384 186.687 98.9558 185.702 95.9639 184.83C95.091 185.114 94.1881 185.406 93.2614 185.711C94.5597 186.146 98.222 187.233 100.888 188.086C102.538 188.615 104.158 189.236 105.817 189.728C107.776 190.308 109.742 190.877 111.659 191.587C114.146 192.509 124.387 195.291 125.982 195.984C129.642 197.57 130.714 197.755 137.022 200.266C137.385 200.411 137.534 200.628 137.496 201.055C137.12 205.356 137.626 205.053 136.724 204.725C136.4 204.608 93.2519 189.614 89.8473 188.191C88.9886 187.832 90.7755 187.188 91.8081 186.19C90.2837 186.696 88.6945 187.229 87.0467 187.791C86.7004 188.836 88.2517 189.627 89.7524 190.128C92.2383 190.957 91.0965 190.381 86.8665 193.61C86.128 194.173 85.5619 195.523 86.2086 196.199C87.2333 197.268 88.8684 197.53 89.8742 197.876C105.73 203.318 105 202.989 106.371 203.305C109.102 203.935 113.324 205.69 117.469 207.127C136.862 213.853 134.764 213.449 136.777 214.092C137.262 214.246 137.151 214.152 137.351 215.41C137.471 216.171 137.773 216.826 138.53 217.169C140.001 217.833 141.442 218.57 142.947 219.15C148.306 221.219 153.67 222.817 154.636 223.134C155.525 223.425 156.379 223.825 157.277 224.073C158.988 224.546 160.513 225.46 162.154 226.092C167.39 228.11 168.884 229.269 170.775 227.754C171.754 226.971 172.044 227.403 173.328 227.988C174.257 228.412 186.598 232.826 204.138 240.509C205.256 241 213.288 244.316 215.976 245.475C218.963 246.762 218.864 247.013 226.75 250.307C228.833 251.177 229.867 250.05 232.5 247.442C236.94 243.046 233.271 246.926 237.916 241.955C243.666 235.8 243.789 235.871 246.087 233.414C252.293 226.769 248.261 230.529 259.658 218.565C260.214 217.982 260.515 217.502 260.803 216.748C261.029 216.16 260.644 215.602 260.16 215.194C258.546 213.837 258.189 214.025 258.84 213.344C260.643 211.462 260.932 211.149 261.454 210.005C262.041 208.721 261.236 208.377 259.367 206.96H259.362ZM137.346 207.116C137.219 208.704 137.235 208.143 137.303 211.658C137.219 212.646 137.811 212.45 132.05 210.216C130.938 209.786 129.806 209.403 128.698 208.965C127.507 208.495 126.337 207.978 125.149 207.512C118.308 204.823 104.222 200.661 94.0094 196.95C92.5466 196.418 90.7629 195.98 89.055 195.337C88.2944 195.049 88.7008 194.568 89.2179 194.235C89.4725 194.07 92.8123 191.969 93.4322 191.701C93.6694 191.599 93.8829 191.588 94.1564 191.665C99.106 193.055 123.28 202.034 137.003 206.596C137.265 206.683 137.368 206.849 137.347 207.118L137.346 207.116ZM160.337 197.816C158.052 197.073 154.638 195.753 147.256 192.588C146.284 192.173 146.786 190.743 148.12 191.134C151.523 192.127 161.466 195.927 162.932 196.722C163.653 197.113 162.897 198.651 160.339 197.818L160.337 197.816ZM171.878 203.185C172.072 200.914 171.89 200.75 172.72 201.061C199.219 210.973 211.016 216.682 227.988 224.302C228.97 224.743 229.834 224.797 230.575 224.013C231.391 223.149 235.37 219.172 237.25 216.995C243.335 209.945 246.096 205.982 250.563 201.351C257.507 194.154 256.504 193.858 257.896 194.575C258.929 195.106 259.561 195.351 258.997 196.229C256.166 200.622 256.53 199.346 249.142 208.163C245.293 212.757 248.822 209.352 230.476 228.46C230.142 228.807 229.832 228.882 229.342 228.657C226.453 227.335 220.352 224.77 215.832 222.702C212.439 221.149 208.226 218.854 201.218 216.552C188.945 212.521 190.843 212.355 172.227 205.527C171.587 205.293 171.677 205.536 171.878 203.182V203.185ZM171.435 208.029C171.533 206.889 171.446 206.991 172.785 207.507C179.873 210.231 179.984 210.05 182.283 211.062C194.775 216.554 198.109 217.257 200.639 218.156C211.031 221.845 212.999 223.374 219.202 226.129C229.745 230.811 229.234 230.83 230.28 230.375C231.103 230.014 231.815 229.481 232.443 228.855C234.321 226.983 246.368 213.997 248.204 211.59C251.153 207.719 250.119 208.974 256.78 201.362C257.431 200.617 257.294 200.78 257.896 201.167C259.098 201.939 259.738 202.182 259.193 203.024C257.423 205.759 257.803 204.858 252.709 211.202C249.505 215.192 248.708 215.383 245.913 218.791C245.068 219.819 241.902 223.167 240.652 224.536C233.286 232.598 233.045 232.346 230.561 234.333C229.185 235.432 228.649 235.169 227.743 234.867C226.687 234.516 225.289 233.536 223.451 232.769C213.68 228.694 194.802 220.224 188.856 218.307C187.405 217.839 179.321 215.074 177.91 214.493C171.316 211.786 171.327 212.241 171.329 211.631C171.341 208.081 171.261 210.088 171.436 208.033L171.435 208.029ZM258.859 216.666C253.996 222.637 233.2 244.635 228.771 248.242C228.01 248.862 227.511 248.381 226.654 248.011C195.607 234.608 199.831 236.246 188.534 231.863C182.055 229.35 177.58 227.395 174.844 226.303C171.647 225.026 170.744 224.803 170.763 224.479C170.831 223.195 170.883 221.911 170.94 220.624H170.873C170.954 219.683 170.897 219.384 171.387 219.568C171.425 219.582 191.276 227.367 191.383 227.403C193.642 228.199 199.269 230.507 202.563 232.055C204.312 232.876 206.199 233.381 207.885 234.35C209.262 235.142 210.869 235.367 218.079 238.694C225.396 242.07 228.907 244.184 230.335 243.036C236.923 237.737 254.395 217.975 257.023 215.183C257.219 214.975 257.35 214.963 257.57 215.183C258.679 216.291 259.171 216.283 258.861 216.664L258.859 216.666ZM253.445 217.072C250.766 220.001 233.621 238.344 230.7 240.568C229.701 241.327 229.456 242.021 228.385 241.521C226.756 240.762 220.461 238.118 216.503 236.401C209.286 233.272 208.742 232.845 207.311 232.285C199.149 229.098 203.133 230.409 194.068 226.812C173.867 218.794 174.847 219.114 173.887 218.741C170.456 217.409 170.938 218.758 171.243 214.526C171.362 212.898 170.639 213.31 179.527 216.642C190.941 220.923 180.055 215.505 223.078 234.788C229.732 237.77 229.218 237.407 230.816 236.205C237.717 231.004 240.049 226.698 252.736 213.399C255.981 209.997 254.64 211.055 257.547 208.056C257.953 207.636 258.113 207.961 259.776 209.384C260.132 209.686 260.162 209.729 253.446 217.069L253.445 217.072Z" fill="white"/>
<path d="M63.1157 138.653C63.4905 138.196 62.9955 138.001 62.7298 137.236C62.3361 136.097 62.9955 135.368 63.5458 135.561C64.7207 135.971 64.4677 137.242 65.1556 136.968C65.649 136.772 66.1661 136.551 66.6705 136.518C68.5618 136.394 69.1659 137.911 68.7468 138.703C68.1886 139.764 67.0437 138.559 65.2695 139.752C63.6043 140.873 63.5964 143.384 65.7043 142.781C67.9135 142.151 69.0568 141.317 70.8105 141.319C73.26 141.32 75.9308 143.677 75.175 147.17C74.4523 150.513 72.9848 150.125 73.5873 151.148C73.6158 151.197 74.2214 152.08 74.5314 153.103C74.9109 154.358 73.7865 155.488 72.9469 154.453C71.4019 152.551 71.7419 152.156 71.0208 152.545C69.7193 153.25 68.5586 153.925 66.9536 153.535C65.8909 153.277 65.5731 152.058 65.8071 151.449C66.0617 150.786 66.5108 150.824 67.1402 150.769C70.0198 150.511 72.9737 147.717 72.017 145.438C71.5521 144.334 70.1637 144.475 67.7126 145.388C66.2973 145.914 64.6085 146.289 63.1742 145.557C61.2529 144.576 60.9904 141.24 63.1157 138.653Z" fill="white"/>
<path d="M146.814 166.425C146.381 166.229 146.096 165.932 145.91 165.57C145.788 167.572 145.701 168.905 145.696 168.959C145.649 169.499 145.491 169.868 144.951 170.119C144.053 170.538 143.7 170.314 143.682 169.303C143.666 168.465 143.836 166.062 144.033 162.981C142.902 162.529 140.783 161.602 125.741 156.406C125.058 156.17 124.373 155.925 123.692 155.679C123.678 157.526 123.531 161.009 123.198 173.284C123.153 174.972 123.118 175.83 122.871 175.942C122.488 176.117 122.084 176.268 121.671 176.351C121.535 176.38 121.28 176.212 121.204 176.068C120.542 174.795 121.48 162.573 121.391 154.834C119.546 154.154 117.8 153.514 116.309 153.055C116.339 153.386 116.309 153.971 116.32 154.942C116.343 157.306 116.452 157.069 115.796 157.254C96.7237 162.673 98.6023 162.98 86.0639 166.084C78.9036 167.856 74.5312 169.828 71.0317 171.125C66.3699 172.85 60.0952 174.952 57.1144 176.056C56.6099 176.242 56.3063 176.144 55.9995 175.773C39.1298 155.348 42.3953 159.006 38.9005 154.138C32.1909 144.794 32.4582 146.094 29.9628 141.502C29.4647 140.583 30.1146 140.387 31.1836 139.935C32.6242 139.323 31.6026 139.544 37.9897 147.239C42.0996 152.19 44.557 156.349 50.098 163.833C51.8106 166.145 55.4808 170.407 56.2304 171.329C56.912 172.167 57.7769 172.178 58.789 171.811C76.247 165.492 88.4233 160.687 115.472 152.81C115.183 152.729 114.904 152.658 114.64 152.598C114.031 152.459 113.837 152.446 112.418 151.999C102.888 154.999 73.497 163.81 58.4379 170.442C57.1065 171.029 56.7918 170.126 41.7469 149.682C38.2158 144.884 33.5746 139.239 32.0328 136.427C31.4746 135.409 33.603 135.355 41.6758 133.352C50.9709 131.043 58.381 129.509 65.9319 127.768C65.4448 127.134 65.059 126.623 64.7364 126.187C50.9203 129.409 34.2909 132.88 31.3449 134.41C29.6608 135.284 30.2142 136.517 30.9401 138.023C31.2136 138.589 30.8721 138.331 29.3002 139.198C28.5807 139.593 27.8233 140.349 28.2977 141.358C28.5032 141.794 29.9502 144.332 30.317 144.873C30.6665 145.39 30.1794 145.288 28.9634 145.824C27.167 146.616 26.8586 147.772 27.7442 149.295C29.2892 151.95 29.5817 151.67 28.7958 152.179C26.8254 153.452 25.9984 153.737 26.487 155.062C26.9219 156.24 27.1876 156.574 28.8448 158.585C29.4441 159.312 29.101 159.101 27.39 160.332C26.876 160.702 26.4522 161.231 26.6341 161.835C26.865 162.608 27.129 163.109 27.6398 163.732C38.1114 176.514 34.37 172.463 40.0644 179.552C42.1723 182.175 42.3004 182.114 47.5757 188.679C51.8359 193.983 48.4676 189.839 52.5664 194.556C54.9985 197.353 55.9458 198.555 58.0869 197.842C66.196 195.146 66.1153 194.888 69.191 193.827C71.9584 192.872 80.213 190.164 81.3658 189.76C99.4294 183.406 112.066 179.925 113.024 179.573C114.348 179.085 114.669 178.676 115.586 179.53C117.36 181.181 118.935 180.137 124.307 178.515C125.991 178.007 127.58 177.21 129.321 176.865C130.237 176.685 131.118 176.35 132.024 176.125C133.012 175.882 138.48 174.686 143.979 173.026C145.522 172.559 147.015 171.933 148.53 171.38C149.309 171.095 149.661 170.466 149.836 169.714C150.129 168.472 150.012 168.56 150.506 168.442C150.701 168.396 150.857 168.356 151 168.317C149.578 167.754 148.207 167.059 146.811 166.43L146.814 166.425ZM115.842 176.264C115.836 176.589 114.92 176.744 111.636 177.778C108.826 178.662 104.218 180.276 97.5697 182.299C85.9769 185.827 90.3114 184.509 58.351 195.557C57.4686 195.862 56.9341 196.302 56.2225 195.628C52.0746 191.7 32.9784 168.212 28.5744 161.893C28.2929 161.49 28.7831 161.534 29.9723 160.511C30.2079 160.309 30.3376 160.331 30.5179 160.551C32.931 163.533 48.8788 184.544 55.0523 190.319C56.3901 191.572 60.0477 189.725 67.597 186.904C75.0372 184.124 76.6565 184.021 78.0892 183.333C79.8429 182.492 81.7627 182.13 83.567 181.442C86.9669 180.145 92.7514 178.262 95.0633 177.637C95.1724 177.607 115.55 171.327 115.587 171.315C116.09 171.169 116.011 171.463 116.021 172.406C116.021 172.406 115.872 174.974 115.844 176.261L115.842 176.264ZM113.154 170.309C112.169 170.608 113.17 170.364 92.4256 176.851C83.1195 179.762 87.1882 178.752 78.8119 181.32C77.3428 181.771 76.7688 182.156 69.3381 184.737C65.263 186.154 58.7874 188.32 57.1065 188.956C56.0027 189.375 55.8082 188.664 54.8689 187.832C52.1221 185.397 36.3957 165.824 33.9414 162.704C27.7916 154.883 27.8248 154.844 28.2012 154.567C29.966 153.273 30.1494 152.96 30.5242 153.409C33.1982 156.616 31.9395 155.462 34.9219 159.096C46.5795 173.306 48.5846 177.775 55.0792 183.475C56.5799 184.794 56.0406 185.117 62.9005 182.64C107.244 166.623 95.9836 171.212 107.686 167.796C116.796 165.137 116.108 164.67 116.103 166.304C116.094 170.546 116.675 169.237 113.154 170.309ZM116.239 163.403C116.196 164.012 116.239 163.558 109.463 165.766C108.013 166.239 99.7456 168.394 98.2623 168.753C92.1884 170.219 72.7317 177.256 62.6838 180.591C60.7926 181.217 59.3267 182.092 58.2466 182.364C57.3215 182.596 56.7665 182.821 55.4777 181.62C53.1484 179.456 52.8906 179.688 46.1462 171.098C44.9997 169.639 42.0932 166.065 41.3279 164.975C38.7946 161.37 38.015 161.12 35.118 156.901C30.5131 150.193 30.8231 151.121 29.2639 148.26C28.7831 147.38 29.4394 147.185 30.695 146.505C31.3243 146.165 31.1994 145.991 31.794 146.784C37.8679 154.872 36.9318 153.542 39.5821 157.622C41.2314 160.16 52.2771 174.009 54.0102 176.016C54.589 176.687 55.261 177.272 56.0549 177.694C57.0622 178.227 56.5546 178.17 67.4184 174.288C73.8101 172.004 75.8864 170.628 86.5257 167.724C89.1159 167.017 92.492 166.564 105.361 162.021C107.73 161.185 107.826 161.373 115.097 159.186C116.471 158.772 116.394 158.663 116.405 159.807C116.427 161.871 116.497 159.863 116.244 163.403H116.239Z" fill="white"/>
<path d="M104.105 149.223C90.8944 153.235 67.1443 160.569 64.0006 161.457C62.8225 161.789 60.0852 162.454 59.3642 162.518C58.0485 162.631 58.7648 162.546 53.4737 155.719C51.0795 152.63 41.2515 140.225 41.231 139.75C41.3891 139.319 47.7334 138.363 55.4788 135.736C58.6367 134.664 63.0803 133.487 68.5944 132.46C68.9708 132.39 69.2665 132.335 69.5416 132.279C69.072 131.712 68.6893 131.251 68.2544 130.715C65.7069 131.25 63.482 131.614 59.8259 132.681C49.7417 135.624 51.856 135.444 43.6077 137.297C42.5751 137.528 40.075 138.296 39.9691 138.35C39.3745 138.643 39.0756 138.832 38.9886 139.112C38.549 140.534 50.8819 155.169 54.4873 160.217C55.5863 161.755 55.901 162.157 56.6221 163.054C58.2904 165.135 58.3221 165.111 66.8123 162.32C82.4722 157.171 98.1227 152.699 106.997 150.202C106.146 149.914 105.188 149.59 104.103 149.22L104.105 149.223Z" fill="white"/>
<path d="M233.124 139.142C233.688 139.318 233.682 138.785 234.291 138.251C235.197 137.455 236.12 137.792 236.151 138.374C236.215 139.617 234.941 139.862 235.455 140.395C235.823 140.778 236.222 141.173 236.443 141.628C237.272 143.333 236.095 144.464 235.203 144.377C234.011 144.26 234.694 142.745 232.92 141.552C231.253 140.433 228.925 141.374 230.279 143.099C231.697 144.906 232.899 145.651 233.56 147.277C234.484 149.546 233.309 152.908 229.789 153.528C226.421 154.121 226.224 152.615 225.505 153.559C225.47 153.604 224.882 154.499 224.052 155.171C223.032 155.996 221.563 155.381 222.203 154.214C223.381 152.065 223.876 152.231 223.244 151.711C222.1 150.772 221.036 149.951 220.791 148.319C220.63 147.237 221.639 146.483 222.289 146.47C222.999 146.456 223.131 146.888 223.421 147.448C224.746 150.017 228.449 151.698 230.198 149.951C231.046 149.105 230.391 147.871 228.622 145.945C227.599 144.834 226.615 143.41 226.753 141.805C226.936 139.656 229.925 138.151 233.124 139.142Z" fill="white"/>
<path d="M147.544 130.579C145.17 131.295 144.035 131.433 142.817 130.275C141.925 129.427 141.595 129.808 140.316 130.27C146.336 132.195 150.841 133.585 150.911 133.526L152.19 132.418C152.424 132.214 152.345 132.136 147.544 130.579Z" fill="white"/>
<path d="M258.434 142.306C258.367 142.019 258.084 141.809 257.512 141.474C257.411 141.414 254.974 140.463 253.96 140.157C245.872 137.701 247.967 138.038 238.126 134.359C231.882 132.025 229.846 132.164 223.002 129.407C220.294 128.315 209.254 124.461 208.465 124.067C208.407 124.037 208.336 124.048 208.288 124.093C206.993 125.282 206.86 125.318 206.895 125.476C206.938 125.658 206.93 125.396 220.545 130.417C227.696 133.053 227.305 132.941 229.397 133.494C234.821 134.924 239.167 136.425 242.236 137.726C249.768 140.916 256.024 142.336 256.15 142.775C256.095 143.25 245.381 154.896 242.766 157.801C236.986 164.22 237.695 164.359 236.392 164.147C235.678 164.032 232.996 163.167 231.845 162.749C227.571 161.195 184.345 144.227 184.165 144.363C182.557 145.565 182.512 145.562 182.572 145.72C182.634 145.883 205.854 153.865 228.977 163.405C237.238 166.813 237.268 166.84 239.085 164.887C239.869 164.044 240.212 163.668 241.422 162.215C245.388 157.445 258.764 143.757 258.431 142.307L258.434 142.306Z" fill="white"/>
<path d="M269.729 159.128C270.314 157.844 269.509 157.499 267.638 156.084C266.892 155.519 267.162 155.818 268.898 153.283C269.893 151.83 269.67 150.654 267.937 149.732C266.764 149.107 266.27 149.173 266.656 148.685C267.062 148.171 268.691 145.748 268.928 145.326C269.477 144.355 268.777 143.545 268.089 143.098C266.583 142.119 266.224 142.35 266.539 141.806C267.374 140.359 268.016 139.17 266.401 138.174C263.147 136.167 241.957 130.253 227.768 125.629C226.713 125.285 225.684 124.862 224.63 124.526C215.985 121.783 215.587 122.023 215.621 121.114C215.721 118.521 211.859 117.412 205.071 115.026C204.362 114.776 202.833 114.468 200.3 113.55C199.435 113.786 198.559 114.022 197.688 114.243C177.805 119.299 179.847 119.085 177.856 119.54C177.359 119.653 177.476 119.567 177.171 120.804C176.985 121.555 176.63 122.18 175.845 122.456C174.323 122.996 172.821 123.608 171.274 124.058C171.085 124.114 170.895 124.169 170.705 124.223C166.562 127.756 161.217 132.272 154.16 138.085C153.407 138.707 153.01 139.474 152.861 140.403C151.688 147.747 152.019 162.379 151.805 164.716C151.712 165.722 151.345 165.92 150.478 165.436C149.959 165.145 149.828 164.767 149.82 164.223C149.819 164.035 149.963 148.473 150.341 142.892C150.486 140.748 150.823 139.504 150.867 139.26C151.141 137.772 151.517 137.321 153.119 135.993C153.157 135.961 160.912 129.581 160.95 129.554C164.348 127.009 165.215 126.31 166.255 125.415C162.775 126.29 159.969 126.875 159.286 127.036C158.377 127.25 157.492 127.577 156.576 127.75C156.544 127.756 156.514 127.762 156.484 127.768C152.175 131.311 148.536 134.378 147.157 135.773C146.868 136.066 146.672 136.142 146.283 135.998C142.611 134.635 138.705 133.24 134.779 131.874C133.866 132.139 132.826 132.446 131.648 132.797C138.609 135.193 144.455 137.271 145.774 137.837C146.265 138.047 146.122 137.861 146.001 141.164C146.042 141.167 146.038 141.17 145.981 141.766C145.962 141.959 145.914 142.091 145.665 142.007C140.184 140.195 132.298 137.516 124.694 134.913C123.754 135.204 122.762 135.512 121.718 135.84C145.968 144.089 145.944 143.662 145.933 144.293C145.933 144.327 145.848 147.034 145.881 147.034C145.864 147.233 145.84 147.432 145.832 147.633C145.802 148.478 144.645 147.315 141.975 146.452C138.439 145.307 137.638 144.499 130.129 142.137C128.028 141.476 120.512 139.168 115.861 137.69C114.898 137.997 113.902 138.316 112.872 138.648C113.271 138.779 113.669 138.904 114.073 139.023C116.032 139.602 117.997 140.168 119.917 140.876C122.406 141.797 132.649 144.565 134.246 145.256C137.908 146.838 138.98 147.023 145.29 149.526C145.655 149.67 145.802 149.888 145.766 150.315C145.394 154.616 145.9 154.313 144.997 153.985C144.754 153.897 120.324 145.438 106.746 140.636C105.891 140.916 105.015 141.202 104.12 141.496C111.482 143.876 132.742 151.702 145.28 155.856C145.543 155.943 145.646 156.108 145.625 156.376C145.5 157.964 145.514 157.403 145.587 160.918C145.505 161.906 146.096 161.709 140.332 159.482C139.221 159.052 138.088 158.673 136.978 158.235C135.788 157.766 134.616 157.249 133.428 156.784C126.584 154.104 112.493 149.958 102.277 146.257C100.813 145.728 99.0309 145.293 97.3215 144.649C96.7348 144.428 96.8423 144.093 97.157 143.797C96.8645 143.895 96.5704 143.993 96.2746 144.091C95.4176 144.377 94.8056 144.603 94.1936 144.837C94.211 145.094 94.2964 145.329 94.4735 145.514C95.4982 146.582 97.1349 146.844 98.1406 147.189C114.003 152.613 113.272 152.286 114.643 152.599C117.374 153.225 121.6 154.975 125.746 156.408C145.147 163.111 143.049 162.71 145.062 163.35C145.548 163.505 145.437 163.409 145.638 164.669C145.758 165.43 146.061 166.084 146.819 166.426C148.29 167.088 149.733 167.824 151.237 168.403C156.6 170.465 161.964 172.057 162.931 172.373C163.82 172.664 164.674 173.063 165.572 173.309C167.283 173.781 168.809 174.693 170.452 175.324C175.691 177.336 177.186 178.493 179.075 176.977C180.054 176.192 180.343 176.624 181.627 177.207C182.557 177.63 194.904 182.029 212.451 189.694C213.57 190.182 221.604 193.489 224.294 194.646C227.282 195.93 227.183 196.182 235.072 199.466C237.155 200.334 238.189 199.205 240.819 196.595C245.254 192.194 241.59 196.077 246.228 191.101C251.972 184.94 252.095 185.011 254.39 182.551C260.588 175.898 256.561 179.665 267.943 167.688C268.498 167.104 268.799 166.625 269.087 165.871C269.311 165.283 268.928 164.724 268.443 164.318C266.827 162.963 266.469 163.151 267.121 162.469C268.92 160.586 269.211 160.273 269.732 159.13L269.729 159.128ZM267.462 152.143C265.696 154.881 266.074 153.979 260.988 160.33C257.789 164.324 256.992 164.516 254.201 167.927C253.359 168.956 250.196 172.307 248.947 173.678C241.589 181.749 241.348 181.498 238.867 183.485C237.493 184.586 236.955 184.323 236.051 184.023C234.993 183.672 233.595 182.693 231.756 181.929C221.98 177.865 203.093 169.416 197.144 167.507C195.69 167.041 187.605 164.283 186.193 163.706C179.597 161.007 179.607 161.462 179.608 160.852C179.616 157.302 179.539 159.308 179.711 157.254C179.807 156.114 179.72 156.217 181.061 156.731C188.152 159.447 188.261 159.266 190.562 160.274C203.061 165.752 206.396 166.453 208.928 167.348C219.323 171.026 221.294 172.552 227.499 175.299C238.046 179.97 237.537 179.989 238.581 179.532C239.405 179.17 240.116 178.637 240.743 178.009C242.618 176.135 254.652 163.137 256.483 160.725C259.428 156.851 258.395 158.108 265.048 150.488C265.698 149.743 265.562 149.906 266.164 150.291C267.366 151.062 268.006 151.304 267.462 152.146V152.143ZM267.26 145.353C264.434 149.749 264.798 148.473 257.418 157.298C253.575 161.895 257.1 158.488 238.774 177.615C238.44 177.963 238.13 178.039 237.64 177.815C234.749 176.496 228.645 173.937 224.124 171.875C220.729 170.325 216.513 168.036 209.503 165.743C197.226 161.725 199.123 161.557 180.5 154.751C179.86 154.517 179.951 154.76 180.149 152.406C180.34 150.135 180.158 149.97 180.989 150.28C207.498 160.162 219.303 165.858 236.283 173.46C237.265 173.899 238.129 173.953 238.869 173.167C239.685 172.302 243.659 168.322 245.536 166.143C251.613 159.087 254.369 155.119 258.832 150.484C265.767 143.28 264.765 142.984 266.156 143.7C267.189 144.23 267.825 144.475 267.26 145.353ZM212.664 122.241C229.009 128.488 239.549 130.906 256.178 136.361C264.082 138.955 266.201 139.165 265.568 140.139C263.824 142.831 258.781 148.117 254.907 152.643C238.401 171.926 238.02 172.803 236.736 172.12C219.478 162.95 182.292 149.23 181.3 148.514C182.594 146.838 187.49 142.576 188.19 141.985C188.497 141.725 188.789 141.357 189.14 141.283C189.444 141.218 189.808 141.528 190.16 141.634C194.656 142.998 200.347 144.496 205.86 141.978C206.962 141.476 207.769 140.656 208.597 139.839C208.834 139.605 209.652 137.965 209.355 136.072C208.912 133.256 206.472 130.809 204.231 129.016C203.951 128.792 203.806 128.815 204.506 128.235C211.924 122.107 211.76 121.895 212.664 122.241ZM194.53 136.774C197.585 134.233 201.454 130.885 202.09 130.36C202.435 130.076 202.885 130.123 203.23 130.416C204.679 131.646 206.056 132.59 206.964 134.274C208.042 136.274 207.658 138.175 207.122 138.841C205.515 140.833 202.879 141.286 200.153 141.589C199.051 141.713 196.158 141.738 190.752 140.16C190.222 140.005 190.617 140.029 194.53 136.774ZM168.602 147.051C166.315 146.31 162.901 144.994 155.515 141.838C154.542 141.422 155.044 139.992 156.377 140.381C159.781 141.37 169.728 145.16 171.195 145.952C171.916 146.341 171.162 147.882 168.602 147.051ZM175.503 148.456C174.404 155.137 174.606 171.687 173.722 173.115C173.637 173.252 173.371 173.401 173.237 173.363C172.831 173.249 172.438 173.071 172.07 172.868C171.833 172.737 171.861 171.88 171.939 170.193C172.946 148.525 172.516 154.259 173.257 148.04C173.601 145.157 175.977 143.621 190.331 131.141C195.074 127.019 198.644 123.84 204.01 119.811C205.352 118.802 206.141 117.287 207.35 118.199C207.46 118.283 207.607 118.31 207.735 118.372C209.015 118.998 207.481 119.874 206.451 120.682C198.853 126.649 202.27 123.944 195.928 129.37C194.746 130.381 195.848 129.277 191.351 133.262C177.457 145.568 175.859 146.3 175.505 148.456H175.503ZM267.146 165.79C262.29 171.766 241.517 193.788 237.093 197.399C236.332 198.019 235.833 197.54 234.975 197.172C203.913 183.803 208.139 185.437 196.837 181.066C190.355 178.559 185.878 176.611 183.141 175.522C179.942 174.249 179.039 174.027 179.056 173.703C179.123 172.419 179.173 171.133 179.229 169.846H179.162C179.241 168.905 179.184 168.607 179.675 168.79C179.712 168.804 199.573 176.565 199.678 176.603C201.938 177.396 207.568 179.7 210.863 181.243C212.612 182.062 214.5 182.563 216.188 183.533C217.565 184.323 219.173 184.546 226.387 187.866C233.707 191.234 237.221 193.343 238.646 192.194C245.227 186.888 262.677 167.106 265.302 164.31C265.498 164.103 265.63 164.09 265.85 164.31C266.96 165.417 267.451 165.409 267.141 165.792L267.146 165.79ZM261.733 166.203C259.058 169.135 241.933 187.497 239.016 189.724C238.018 190.484 237.773 191.179 236.702 190.68C235.074 189.923 228.775 187.285 224.814 185.574C217.593 182.454 217.048 182.027 215.617 181.469C207.452 178.292 211.436 179.598 202.368 176.01C182.159 168.015 183.139 168.335 182.178 167.963C178.745 166.636 179.229 167.983 179.529 163.752C179.644 162.123 178.923 162.537 187.815 165.86C199.234 170.126 188.342 164.723 231.387 183.957C238.045 186.931 237.531 186.569 239.125 185.366C246.021 180.157 248.349 175.849 261.02 162.534C264.262 159.13 262.921 160.189 265.824 157.186C266.231 156.765 266.39 157.091 268.055 158.511C268.411 158.813 268.441 158.854 261.733 166.203Z" fill="white"/>
<path d="M91.7947 94.5746C96.2604 93.6796 96.8218 93.474 97.9825 93.5041C101.246 93.5879 104.26 96.3616 102.197 99.85C100.898 102.046 99.567 101.778 100.182 102.47C100.369 102.681 100.811 103.441 100.913 103.727C101.359 104.999 99.986 106.024 99.0056 104.885C97.9145 103.618 98.003 103.145 97.4938 103.373C96.224 103.939 94.5604 104.496 93.21 104.127C91.3234 103.614 91.2744 102.279 92.3007 101.659C93.716 100.802 94.6443 101.378 97.119 100.078C97.8939 99.6713 99.0846 99.1162 99.5195 98.0109C99.7298 97.4764 99.5701 97.138 99.034 96.9229C98.7794 96.8201 98.4758 96.7284 98.2149 96.7648C94.2695 97.3056 92.6597 97.9982 89.8575 97.2819C86.5272 96.4311 86.4466 92.5316 89.2551 90.1184C89.5508 89.8638 89.399 89.8117 88.7206 88.4723C87.9868 87.0222 90.0536 85.6923 91.2001 88.2272C91.6176 89.1507 91.5591 88.1022 94.2679 88.3031C95.9283 88.4264 96.7917 89.7595 96.224 90.6719C95.4207 91.9654 93.9358 89.9682 91.4231 91.812C91.0198 92.1078 90.6783 92.5205 90.3873 92.9348C89.8907 93.6401 90.2292 94.3469 91.0973 94.4813C91.3219 94.5161 91.5559 94.4877 91.782 94.4877L91.7963 94.5731L91.7947 94.5746Z" fill="white"/>
<path d="M178.772 67.0052C179.225 66.5466 178.555 66.3268 178.128 65.5172C177.475 64.2806 178.3 63.5326 179.069 63.7746C180.671 64.279 180.437 65.5978 181.311 65.3448C181.934 65.1646 182.583 64.959 183.223 64.9495C186.405 64.9005 186.7 67.7247 184.887 67.6488C184.743 67.6425 184.583 67.6694 184.46 67.6172C183.661 67.2883 182.938 67.5998 182.238 67.9034C181.133 68.3826 180.484 69.1495 180.234 69.994C179.972 70.8748 181.281 71.2511 182.258 71.0297C184.882 70.4383 186.311 69.703 188.329 69.7141C191.054 69.7299 193.823 71.7809 192.955 74.6905C192.156 77.3661 190.668 77.1416 191.274 77.9038C191.301 77.9386 191.894 78.5822 192.183 79.3302C192.531 80.2315 191.416 81.1345 190.602 80.4418C189.042 79.1151 189.392 78.7878 188.649 79.1325C187.298 79.7603 186.579 80.4671 184.344 80.1793C183.169 80.0291 182.747 79.1056 182.976 78.6028C183.811 76.7811 187.442 77.4326 189.733 74.4881C190.05 74.0817 190.255 73.6168 189.971 73.1456C188.985 71.512 183.871 75.1697 179.464 73.6658C176.94 72.804 176.219 69.5812 178.772 67.0052Z" fill="white"/>
<path d="M141.838 98.5479L140.791 97.5012C140.752 97.4617 140.692 97.4443 140.636 97.4601C123.697 102.147 120.084 102.834 101.307 108.716C98.753 109.516 89.4942 112.475 86.7648 112.688C85.4492 112.791 86.1703 112.722 80.9424 105.83C73.7014 96.2836 73.2665 96.0826 68.9005 89.8079C68.5716 89.3335 74.7815 88.611 83.1562 85.8689C86.2825 84.8442 90.8289 83.6851 96.3035 82.73C101.715 81.778 118.33 76.5547 119.261 76.3886C119.413 76.3633 119.44 76.1548 119.299 76.0915C118.904 75.9049 118.785 75.3451 118.222 74.934C117.988 74.7616 116.904 75.5127 108.888 77.589C100.59 79.746 101.43 79.9468 94.409 81.3004C83.8726 83.3277 82.315 84.9579 71.2567 87.3252C70.194 87.5529 67.6971 88.2994 67.6117 88.339C66.3782 88.9067 66.4099 89.1723 66.9475 90.1464C69.0048 93.8721 79.2582 106.599 81.5433 109.842C82.5158 111.232 82.9333 111.857 84.0038 113.215C86.3679 116.213 85.2989 114.91 111.438 107.334C122.704 104.07 141.822 98.9148 141.878 98.7013C141.89 98.6475 141.876 98.5908 141.836 98.5512L141.838 98.5479Z" fill="white"/>
<path d="M227.038 94.2772C227.828 93.9973 228.953 93.7822 229.947 93.3094C231.04 92.7907 230.482 91.4972 229.74 90.9089C228.303 89.7672 227.175 89.3592 225.793 88.382C226.035 88.2997 226.275 88.2175 226.516 88.1369C226.568 88.1195 226.633 88.1337 226.685 88.1163C227.302 87.9076 227.942 87.7368 228.534 87.4679C229.629 86.9714 229.87 85.749 229.005 84.9441C227.91 83.9242 227.507 83.853 226.218 83.1335C226.06 83.0449 226.052 82.871 226.267 82.8093C226.378 82.7777 226.498 82.8014 226.609 82.7714C227.466 82.5342 228.38 82.4883 229.013 81.6723C229.691 80.7979 229.647 80.0056 228.662 79.3067C210.196 66.1895 211.31 67.9795 203.994 62.4638C198.866 58.5959 199.682 58.9786 196.356 56.8027C194.704 55.721 192.163 54.3168 191.745 54.0068C189.728 52.5062 186.407 52.9236 169.616 56.9829C160.701 59.1367 157.084 59.9653 148.214 62.3753C146.96 62.7153 146.293 61.3047 144.389 61.2177C138.515 62.1001 138.473 62.3152 134.345 63.3557C132.505 63.819 130.643 64.1907 128.835 64.7536C125.091 65.9175 122.981 66.1341 122.095 66.365C115.133 68.182 111.191 68.9552 111.072 71.547C111.031 72.4531 110.656 72.1812 101.809 74.191C100.73 74.4361 99.6705 74.773 98.5921 75.0244C84.058 78.4227 62.4506 82.5595 59.0412 84.2879C57.3508 85.145 57.8869 86.3863 58.6001 87.8965C58.8689 88.4658 58.5305 88.2064 56.9476 89.054C56.2217 89.443 55.4564 90.191 55.9213 91.2031C56.1237 91.6443 57.5437 94.195 57.9043 94.7389C58.249 95.2592 57.7619 95.1517 56.5412 95.6751C54.7368 96.4499 54.4174 97.6043 55.2872 99.1319C56.8068 101.801 57.1025 101.526 56.3103 102.027C54.3304 103.281 53.4971 103.556 53.9715 104.886C54.3953 106.068 54.6562 106.409 56.2929 108.436C56.8859 109.17 56.5443 108.952 54.8191 110.168C54.302 110.533 53.8719 111.06 54.0474 111.662C54.2735 112.437 54.5297 112.94 55.0357 113.566C65.4093 126.429 61.6758 122.368 67.2958 129.514C69.3753 132.158 69.5018 132.101 74.7107 138.719C78.9171 144.064 75.5915 139.886 79.6413 144.646C82.0418 147.465 82.9779 148.678 85.127 147.989C93.2645 145.378 93.1823 145.117 96.2707 144.088C128.467 133.355 139.125 130.684 140.252 130.286C141.582 129.814 141.91 129.406 142.814 130.268C144.571 131.938 146.156 130.912 151.543 129.342C153.23 128.85 154.829 128.072 156.575 127.743C157.49 127.572 158.376 127.245 159.285 127.03C160.277 126.797 165.756 125.664 171.273 124.055C172.82 123.605 174.322 122.993 175.843 122.453C176.629 122.175 176.984 121.552 177.17 120.801C177.477 119.564 177.36 119.65 177.855 119.537C179.846 119.084 177.804 119.296 197.686 114.242C201.939 113.16 206.295 111.77 209.07 111.376C210.462 111.179 209.705 111.443 225.965 107.367C226.995 107.11 228.652 106.985 229.761 106.008C230.46 105.391 230.012 103.993 229.327 103.373C225.382 99.8008 224.199 100.274 226.748 99.6601C228.567 99.2236 230.49 98.3839 229.307 96.9354C228.712 96.208 226.486 94.6488 226.486 94.5049C226.487 94.206 226.843 94.3389 227.036 94.2709L227.038 94.2772ZM226.555 85.7095C226.74 85.8581 226.761 85.9372 226.544 86.0716C225.878 86.4843 225.14 86.6915 224.395 86.8844C224.144 86.9508 193.436 94.7674 179.028 98.2353C178.769 98.2969 178.732 98.1625 178.731 97.9696C178.726 97.3671 178.717 97.3671 178.763 97.3671C178.921 94.0653 178.759 94.2408 179.269 94.0716C183.01 92.8271 221.808 83.0513 222.948 83.5779C224.223 84.1677 225.452 84.8303 226.554 85.7095H226.555ZM69.3769 83.358C86.4015 79.3146 97.0961 77.7538 113.92 72.9339C114.383 72.801 114.573 72.8105 115.321 73.4715C117.298 75.2189 119.81 77.893 121.434 79.4616C122.22 80.2191 122.077 80.1653 121.762 80.3788C119.383 81.9839 116.741 84.212 116.066 86.9809C115.416 89.6454 116.665 91.8166 119.055 93.1623C124.48 96.2206 130.505 95.0315 134.73 94.1412C135.089 94.0653 135.478 93.7886 135.774 93.8755C136.18 93.9957 141.797 99.9368 142.974 101.749C141.927 102.378 103.722 112.94 85.7532 120.624C84.4138 121.196 84.1118 120.293 69.2788 99.6933C65.7983 94.8575 61.2172 89.1663 59.7022 86.3389C59.1551 85.3157 61.2836 85.2825 69.3753 83.3596L69.3769 83.358ZM122.56 81.3909C122.929 81.1284 122.967 81.1331 123.286 81.4462C123.878 82.0218 127.95 86.1285 130.78 88.9196C134.403 92.4903 134.802 92.4966 134.258 92.6073C128.737 93.7269 125.856 93.458 124.77 93.2446C119.505 92.2104 115.661 89.8795 118.594 85.3869C119.641 83.785 121.008 82.4962 122.557 81.3924L122.56 81.3909ZM57.5753 91.3818C57.0883 90.4598 57.7398 90.2685 58.8151 89.8257C60.2605 89.2295 59.2389 89.4383 65.5437 97.1979C69.6014 102.192 72.0145 106.379 77.4828 113.917C79.1717 116.247 82.7961 120.546 83.5362 121.476C84.2082 122.319 85.0748 122.34 86.0916 121.985C103.657 115.855 115.882 111.117 143.132 103.52C143.986 103.281 143.796 103.438 143.796 105.713C143.796 108.079 143.899 107.842 143.241 108.021C124.113 113.234 125.992 113.573 113.419 116.547C106.243 118.246 101.848 120.172 98.3359 121.43C93.6567 123.108 87.363 125.153 84.3679 126.217C83.8619 126.397 83.5583 126.296 83.2547 125.92C66.6159 105.302 69.8244 109.012 66.3818 104.112C59.7655 94.6962 60.0122 96.004 57.5722 91.3802L57.5753 91.3818ZM143.309 123.176L143.241 123.173C143.217 124.459 143.134 125.743 143.092 127.027C143.081 127.354 142.169 127.493 138.875 128.494C136.051 129.351 131.43 130.917 124.763 132.871C113.134 136.279 117.478 134.992 85.4085 145.726C84.5229 146.023 83.9853 146.456 83.28 145.775C79.1748 141.804 60.3158 118.124 55.9829 111.759C55.7062 111.352 56.1964 111.397 57.3951 110.391C57.6323 110.192 57.7635 110.215 57.9391 110.44C60.3047 113.456 76.0517 134.619 82.1651 140.458C83.4871 141.722 87.1653 139.914 94.7415 137.172C102.207 134.47 103.829 134.384 105.268 133.712C107.032 132.889 108.95 132.547 110.765 131.876C114.178 130.615 119.978 128.78 122.298 128.19C122.409 128.162 142.849 122.093 142.887 122.082C143.395 121.94 143.309 122.237 143.309 123.176ZM140.479 121.048C139.487 121.337 140.49 121.1 119.679 127.373C110.343 130.188 114.42 129.217 106.021 131.701C104.547 132.137 103.969 132.517 96.5142 135.022C92.4233 136.396 85.924 138.499 84.2414 139.116C83.1329 139.522 82.9463 138.811 82.0165 137.969C79.295 135.506 63.7679 115.772 61.3484 112.627C55.2792 104.742 55.3156 104.703 55.6936 104.431C57.4726 103.155 57.6592 102.848 58.0276 103.299C60.67 106.536 59.4224 105.366 62.3668 109.029C73.8789 123.356 75.8287 127.854 82.2711 133.614C83.7322 134.921 83.1519 135.287 90.0987 132.857C134.528 117.313 123.144 121.811 135.036 118.476C144.174 115.913 143.494 115.443 143.472 117.075C143.415 121.318 144.013 120.015 140.479 121.048ZM143.63 114.161C143.583 114.767 143.627 114.325 136.826 116.462C135.369 116.92 127.083 118.989 125.597 119.333C119.508 120.746 99.9805 127.58 89.8963 130.804C87.9987 131.412 86.5249 132.272 85.4401 132.53C84.5134 132.749 83.9568 132.969 82.6775 131.758C80.3672 129.568 80.1078 129.799 73.4551 121.138C72.3261 119.667 69.4544 116.062 68.7032 114.966C66.211 111.332 65.4314 111.079 62.5771 106.828C58.0418 100.074 58.3391 101.006 56.8116 98.1262C56.3435 97.2422 56.9966 97.054 58.2616 96.3867C58.8942 96.053 58.774 95.8807 59.3559 96.6761C65.3318 104.834 64.4241 103.488 67.0317 107.592C68.6558 110.147 79.5559 124.106 81.2685 126.133C81.841 126.81 82.5051 127.4 83.2958 127.831C84.2984 128.375 83.7908 128.312 94.6941 124.542C101.11 122.325 103.2 120.972 113.868 118.176C116.468 117.494 119.847 117.078 132.763 112.667C135.14 111.855 135.236 112.045 142.526 109.932C143.904 109.534 143.825 109.423 143.825 110.567C143.825 112.629 143.91 110.622 143.63 114.161ZM150.493 124.115C150.428 125.806 150.382 126.661 150.139 126.77C149.753 126.943 149.347 127.085 148.934 127.166C148.8 127.193 148.545 127.025 148.472 126.879C147.719 125.377 149.299 108.906 148.765 102.157C148.592 99.9811 147.054 99.1113 134.239 85.6889C130.089 81.3418 131.095 82.531 130.004 81.4257C124.139 75.483 127.319 78.4701 120.248 71.887C119.292 70.9967 117.835 69.9989 119.164 69.4771C119.295 69.4265 119.447 69.4091 119.564 69.3363C120.846 68.5314 121.502 70.1033 122.76 71.2229C127.768 75.6838 131.059 79.1501 135.439 83.6569C148.695 97.296 150.934 99.0228 151.035 101.926C151.252 108.187 151.323 102.44 150.495 124.114L150.493 124.115ZM169.158 97.1552C161.535 99.6869 157.745 100.24 155.408 100.788C152.776 101.404 153.156 99.7201 153.909 99.3912C155.435 98.7255 165.019 96.4199 168.489 95.7083C170.253 95.3462 169.779 96.9481 169.156 97.1552H169.158ZM174.306 98.7223C174.226 103.617 173.044 119.838 173.029 120.021C172.98 120.562 172.815 120.929 172.274 121.176C171.371 121.587 171.022 121.358 171.014 120.349C170.997 118.288 172.581 103.843 172.002 96.034C171.933 95.0979 171.601 94.2977 170.903 93.6162C149.998 73.1553 145.378 67.445 141.361 64.858C140.039 64.0072 142.074 62.9952 143.227 63.7495C144.604 64.6508 144.495 64.3852 151.818 71.6293C152.912 72.7109 153.237 73.3751 154.766 74.8552C161.426 81.3055 158.774 79.0315 164.852 84.5425C164.886 84.5741 172.083 91.581 172.118 91.6158C173.593 93.088 173.935 93.5545 174.083 95.0599C174.109 95.3082 174.34 96.5749 174.305 98.7239L174.306 98.7223ZM164.499 78.4622C162.1 76.1993 152.145 66.3334 150.472 64.9212C149.516 64.1148 149.276 63.9629 149.702 63.8475C182.849 54.875 184.117 55.895 187.71 54.9019C188.306 54.7374 189.99 54.8355 190.798 55.3494C204.175 63.8317 198.199 60.6738 211.212 69.7016C226.804 80.5195 225.712 79.4759 226.86 80.4452C226.819 80.4563 199.397 86.429 178.918 92.1914C178.517 92.3037 178.329 92.212 178.067 91.8941C175.374 88.654 164.693 78.6457 164.499 78.4622ZM226.919 103.808C227.408 104.18 227.77 104.697 226.989 104.916C225.232 105.415 223.418 105.699 221.916 106.104C211.428 108.938 197.033 111.879 189.993 113.982C188.774 114.346 187.561 114.762 186.336 115.13C185.192 115.472 184.032 115.756 182.888 116.09C176.958 117.822 177.526 118.07 177.526 117.078C177.894 113.584 177.866 114.142 177.871 112.55C177.871 111.893 177.792 112.262 188.252 109.564C198.755 106.855 218.258 101.572 222.21 100.829C222.488 100.775 222.7 100.808 222.929 100.928C223.032 100.982 223.146 101.017 223.236 101.083C225.436 102.698 226.429 103.435 226.917 103.806L226.919 103.808ZM226.808 97.7403C223.296 98.8678 179.023 110.144 178.693 110.234C177.766 110.486 178.234 110.829 178.234 106.512C178.234 106.082 178.393 105.879 178.772 105.764C185.27 103.805 186.355 103.705 190.137 102.435C191.786 101.88 202.228 99.9779 204.783 99.271C206.757 98.7255 208.757 98.3286 210.761 97.9143C212.456 97.5632 214.126 97.0841 215.813 96.6982C218.755 96.0261 222.866 95.1833 223.878 94.9145C224.226 94.8212 224.522 94.8496 224.708 95.1596C225.486 96.4547 227.805 97.4209 226.808 97.7403ZM211.378 95.8981C207.363 96.8532 197.049 99.0939 194.503 99.6648C186.824 101.392 185.956 102.127 182.336 102.975C179.605 103.615 178.358 104.673 178.394 103.828C178.421 103.188 178.576 100.511 178.576 100.492C178.593 99.8024 178.547 100.367 210.75 92.2547C223.832 88.9591 223.633 88.6318 224.077 89.228C224.58 89.9032 225.369 90.1467 226.022 90.5911C228.265 92.1155 227.975 91.766 228.236 92.1614C226.014 93.0358 217.761 94.3768 211.378 95.8981Z" fill="white"/>
<path d="M217.223 77.9673C216.815 77.1102 216.587 77.3127 212.662 74.5754C208.038 71.3478 195.629 62.1239 190.667 59.1731C189.032 58.2006 188.94 58.1168 186.217 58.607C175.225 60.5853 162.502 63.1597 151.822 66.4299C151.72 66.4615 151.676 66.5833 151.738 66.6703C152.647 67.9606 152.625 68.0302 152.785 67.9717C154.474 67.336 155.541 67.0893 158.922 66.1294C171.992 62.4165 177.854 62.1049 187.321 60.1377C188.926 59.8057 189.494 60.3259 193.444 63.1249C197.761 66.1848 198.334 66.1785 204.4 70.8972C209.956 75.222 213.494 77.1782 214.52 78.1413C173.094 87.8934 173.235 87.6325 173.571 87.9962C174.681 89.2185 174.833 89.3688 174.931 89.3688C184.577 87.1486 212.882 80.7805 216.799 79.1375C217.305 78.9256 217.487 78.524 217.223 77.9673Z" fill="white"/>
<path d="M212.4 21.2847C213.102 15.4891 213.015 16.5296 213.151 15.2582C213.23 14.5213 213.352 14.7348 208.674 16.109C207.534 16.4442 206.946 15.7674 207.189 15.0732C207.584 13.9505 208.666 13.5441 210.32 12.9384C211.838 12.3818 212.54 12.4624 212.204 12.0782C212.174 12.0434 210.779 10.579 208.805 8.32406C208.272 7.71366 208.214 6.83444 209.016 6.71584C209.408 6.65733 209.764 6.76328 210.062 7.00206C210.734 7.53497 211.403 8.06946 212.039 8.64191C213.307 9.78363 213.889 10.7641 213.992 10.1537C214.522 7.01313 214.541 6.31734 215.776 0.866474C215.907 0.287705 216.244 0.0204603 216.699 0.00148422C218.301 -0.0649319 217.55 2.09201 216.506 7.60929C215.831 11.1736 215.387 11.6544 216.179 11.5278C221.666 10.655 219.019 11.1626 222.133 11.025C222.223 11.0218 222.37 11.0977 222.398 11.1736C222.541 11.569 221.73 11.7461 217.302 13.4191C216.165 13.8493 217.801 13.9093 219.743 17.6413C219.9 17.9402 219.988 18.2659 219.712 18.5095C219.395 18.7893 219.054 18.5964 218.771 18.3988C216.128 16.5518 215.219 14.3553 214.952 15.5476C213.227 23.2361 213.499 23.4227 212.986 23.4274C212.559 23.4306 212.649 23.2898 212.401 21.2894L212.4 21.2847Z" fill="white"/>
<path d="M26.1193 60.0512C25.8094 56.7494 25.7208 56.1216 25.7335 55.0131C25.7445 54.0484 26.891 53.9378 27.3101 54.5972C28.3553 56.2386 28.0058 59.4598 28.4565 60.902C29.4306 60.4402 31.3693 58.8193 34.8926 57.0388C34.9685 57.0008 35.106 57.0388 35.1883 57.083C35.6595 57.3724 32.9807 59.7618 29.9256 62.6541C31.9197 63.7974 32.5648 64.0852 33.0867 64.7478C33.4362 65.1921 33.4029 65.8262 32.753 65.6634C31.9639 65.4673 29.9873 65.0435 29.0242 64.8158C28.5008 64.6924 28.6083 64.6229 28.8107 66.9917C29.2219 71.7926 29.3611 71.9128 28.9309 72.082C28.6684 72.1848 28.3917 72.1516 28.2415 71.9065C28.0185 71.5428 27.7797 71.1664 27.6738 70.7632C26.6759 66.987 26.8262 66.3007 26.7171 65.8278C26.5589 65.1494 26.5937 65.461 23.3425 67.9073C23.0404 68.135 21.7248 69.0901 21.2346 69.1882C20.5799 69.321 20.0628 68.8023 20.281 68.173C20.7206 66.8952 22.0806 65.9875 24.6755 63.8195C25.1753 63.4021 24.7752 63.5112 22.1517 62.3283C19.5789 61.1692 20.6637 59.4835 21.7248 59.7966C23.0879 60.1999 24.4273 60.6758 25.7777 61.1218C26.1841 61.2562 26.1193 61.2941 26.1193 60.048V60.0512Z" fill="white"/>
<path d="M95.131 13.787C95.3998 17.5158 90.1355 20.2152 86.636 17.0509C84.6483 15.2545 84.6246 12.3986 86.3324 10.539C89.1535 7.46802 95.1578 9.13791 95.131 13.787ZM93.0847 13.5941C93.0151 13.3221 92.9582 13.0501 92.8744 12.7813C92.03 10.0456 87.9201 10.5358 87.3824 12.8398C87.1468 13.8456 87.3951 14.7864 88.2474 15.4538C89.3923 16.3504 90.534 16.4073 91.6742 15.8048C92.5075 15.3636 93.0926 14.6552 93.0863 13.5941H93.0847Z" fill="white"/>
<path d="M263.319 62.4955C258.784 62.2061 257.163 57.4304 259.916 55.0647C260.656 54.4275 261.29 54.4559 261.879 53.8977C262.598 53.2162 266.717 53.8281 267.642 57.0177C268.555 60.1614 265.693 62.6488 263.318 62.497L263.319 62.4955ZM262.5 55.925C262.07 55.9361 261.678 55.8665 261.301 56.2349C260.272 57.2438 260.231 58.656 261.322 59.6158C263.208 61.2762 265.454 60.0191 265.495 58.4789C265.525 57.3561 264.782 56.3662 263.673 56.11C263.287 56.0215 262.892 55.9819 262.498 55.9234L262.5 55.925Z" fill="white"/>
<path d="M153.959 33.2678C153.968 34.6245 152.801 35.8406 151.394 35.8058C149.835 35.7679 148.855 34.7005 148.821 33.2709C148.791 31.9315 150.078 30.6538 151.359 30.6538C152.809 30.6538 153.948 31.8525 153.959 33.2678Z" fill="white"/>
</svg>
